<svg width="104" height="151" viewBox="0 0 104 151" fill="none" xmlns="http://www.w3.org/2000/svg">
<path d="M2.99691 66.3034C0.354268 60.3679 -0.417536 53.506 0.681477 45.7175C1.78049 37.9289 5.0948 30.4081 10.6245 23.1549C16.1542 15.9016 23.7923 10.1053 33.539 5.76582C42.5984 1.73231 51.3396 -0.156969 59.763 0.0979203C68.1864 0.352809 75.5675 2.51277 81.9067 6.57786C88.2458 10.643 92.9175 16.0493 95.9217 22.797C98.2862 28.1077 99.2808 33.2421 98.9056 38.2004C98.5304 43.1588 97.5057 47.7512 95.8315 51.9777C94.1572 56.2043 91.0077 63.4646 86.3827 73.7588C85.1208 76.6414 84.1762 79.102 83.5491 81.1405C82.922 83.179 82.5673 84.9464 82.485 86.4429C82.4026 87.9395 82.4608 89.3734 82.6596 90.7447C82.8585 92.116 83.2957 94.4854 83.9715 97.8528C85.6774 104.879 83.4065 109.783 77.1586 112.565C73.9097 114.011 70.7034 114.166 67.5396 113.029C64.3759 111.893 61.8621 109.231 59.9984 105.045C57.6617 99.797 56.4502 94.8901 56.3639 90.3244C56.2776 85.7587 56.931 81.4252 58.324 77.3238C59.7171 73.2224 61.804 68.1572 64.5846 62.1279C67.0255 56.8487 68.7398 52.9225 69.7276 50.3491C70.7155 47.7757 71.3318 45.1244 71.5765 42.3952C71.8212 39.666 71.3734 37.0206 70.2328 34.459C68.0075 29.4607 64.2711 26.071 59.0237 24.2898C53.7762 22.5086 48.2161 22.9254 42.3431 25.5402C35.4704 28.6001 31.1817 32.5871 29.4766 37.5011C27.7716 42.4152 27.2966 48.7467 28.0516 56.4958C29.0707 64.5017 26.6126 69.8259 20.6771 72.4686C17.1783 74.0263 13.6768 74.1067 10.1726 72.7098C6.66838 71.3128 4.27651 69.1774 2.99691 66.3034ZM94.4625 148.656C90.6513 150.353 86.775 150.6 82.8335 149.398C78.8919 148.195 75.9336 145.376 73.9586 140.94C72.2061 137.004 72.1063 133.081 73.6592 129.17C75.2122 125.26 77.9879 122.414 81.9865 120.634C85.9227 118.882 89.8321 118.751 93.7148 120.241C97.5975 121.732 100.415 124.445 102.168 128.381C104.115 132.754 104.239 136.817 102.54 140.568C100.841 144.318 98.1488 147.014 94.4625 148.656Z" fill="#E0381A"/>
</svg>
