<svg width="939" height="1000" viewBox="0 0 939 1000" fill="none" xmlns="http://www.w3.org/2000/svg">
<rect width="939" height="1000" fill="#F3F8FF"/>
<mask id="mask0" mask-type="alpha" maskUnits="userSpaceOnUse" x="0" y="0" width="939" height="1000">
<rect width="939" height="1000" fill="#F3F8FF"/>
</mask>
<g mask="url(#mask0)">
<path d="M639.15 854.706C636.739 854.426 635.012 852.245 635.292 849.834C635.571 847.424 637.753 845.696 640.163 845.976C687.192 851.435 743.295 854.413 802.122 854.413C804.549 854.413 806.516 856.38 806.516 858.807C806.516 861.234 804.549 863.201 802.122 863.201C742.969 863.201 686.53 860.205 639.15 854.706ZM869.192 861.884C866.767 861.981 864.723 860.094 864.626 857.669C864.529 855.245 866.416 853.2 868.841 853.103C898.492 851.916 926.635 849.943 952.292 847.273C954.706 847.021 956.866 848.774 957.118 851.188C957.369 853.602 955.616 855.762 953.202 856.014C927.354 858.704 899.025 860.69 869.192 861.884ZM569.037 810.632C554.524 811.751 539.586 812.755 524.272 813.633C526.511 820.288 544.511 828.613 575.496 835.546C577.864 836.076 579.355 838.425 578.825 840.794C578.295 843.162 575.945 844.652 573.577 844.122C537.625 836.078 517.246 826.491 515.385 814.127C468.623 816.641 418.501 818.004 366.367 818.004C110.683 818.004 -96.5904 785.215 -96.5904 744.768C-96.5904 730.222 -69.783 716.666 -23.5572 705.27C-79.1093 696.693 -113.33 684.975 -113.33 672.055C-113.33 645.764 28.365 624.451 203.155 624.451C348.227 624.451 470.501 639.133 507.885 659.157C565.87 648.208 655.269 641.191 755.565 641.191C930.354 641.191 1072.05 662.504 1072.05 688.794C1072.05 711.474 966.607 730.449 825.437 735.234C828.001 738.354 829.324 741.537 829.324 744.768C829.324 750.476 825.195 756.032 817.384 761.365C887.785 761.983 953.241 766.861 1002.58 774.993C1057.97 784.122 1089 796.212 1089 812.25C1089 820.875 1080.52 827.869 1065.01 834.067C1062.76 834.967 1060.2 833.871 1059.3 831.617C1058.4 829.364 1059.5 826.807 1061.75 825.906C1074.15 820.951 1080.21 815.951 1080.21 812.25C1080.21 808.44 1073.82 803.289 1060.81 798.222C1046.95 792.821 1026.63 787.863 1001.15 783.664C948.775 775.032 877.836 770.087 802.122 770.087C801.718 770.087 801.315 770.087 800.911 770.087C793.491 773.273 784.711 776.355 774.682 779.315C785.242 779.162 795.978 779.084 806.83 779.084C874.461 779.084 937.463 782.113 981.743 787.322C1023.84 792.274 1045.06 798.004 1045.06 808.065C1045.06 810.492 1043.09 812.459 1040.66 812.459C1038.42 812.459 1036.57 810.78 1036.3 808.611C1035.97 808.264 1035.35 807.809 1034.44 807.305C1032.14 806.029 1028.51 804.698 1023.66 803.389C1013.75 800.713 999.156 798.22 980.716 796.05C936.812 790.886 874.142 787.872 806.83 787.872C782.08 787.872 757.945 788.279 735.126 789.053C694.08 797.593 641.45 804.664 580.941 809.679C584.132 811.114 588.852 812.567 594.957 813.974C608.122 817.009 627.312 819.748 651.142 821.996C653.558 822.224 655.332 824.367 655.104 826.783C654.876 829.199 652.733 830.973 650.316 830.745C626.133 828.464 606.591 825.675 592.983 822.538C578.963 819.306 570.924 815.917 569.037 810.632ZM233.495 917.396C48.305 917.396 -101.822 904.514 -101.822 888.624C-101.822 872.735 48.305 859.853 233.495 859.853C418.686 859.853 568.812 872.735 568.812 888.624C568.812 904.514 418.686 917.396 233.495 917.396ZM806.83 837.045C804.403 837.045 802.436 835.078 802.436 832.651C802.436 830.224 804.403 828.257 806.83 828.257C861.835 828.257 913.894 826.25 955.367 822.644C957.784 822.433 959.915 824.223 960.125 826.641C960.335 829.058 958.545 831.189 956.128 831.399C914.387 835.028 862.077 837.045 806.83 837.045Z" fill="#BFEAFF"/>
<path d="M618.016 800.738C623.59 802.599 631.945 804.394 642.691 806.034C664.41 809.35 695.067 811.913 730.551 813.352C732.975 813.45 734.861 815.495 734.763 817.92C734.665 820.345 732.619 822.231 730.195 822.133C694.413 820.682 663.449 818.093 641.365 814.722C615.687 810.803 603.131 806.612 603.131 798.649C603.131 789.169 623.044 784.111 662.673 779.854C698.224 776.034 746.221 773.853 797.416 773.853C799.843 773.853 801.81 775.82 801.81 778.247C801.81 780.674 799.843 782.641 797.416 782.641C746.515 782.641 698.825 784.809 663.612 788.592C646.492 790.431 632.833 792.603 623.529 794.966C618.988 796.12 615.576 797.299 613.426 798.428C613.282 798.503 613.147 798.577 613.019 798.649C614.181 799.308 615.862 800.019 618.016 800.738Z" fill="white"/>
<path d="M238.542 672.177C240.964 672.021 243.054 673.857 243.21 676.279C243.367 678.7 241.531 680.791 239.109 680.947C191.652 684.015 150.612 688.362 119.34 693.617C98.7474 697.078 82.6847 700.885 71.8526 704.876C66.5598 706.826 62.6112 708.789 60.1044 710.672C58.1524 712.139 57.4172 713.249 57.4172 713.904C57.4172 716.331 55.4499 718.298 53.0231 718.298C50.5962 718.298 48.6289 716.331 48.6289 713.904C48.6289 701.361 72.4404 692.588 117.883 684.951C149.483 679.64 190.809 675.263 238.542 672.177ZM85.837 736.314C83.4844 735.718 82.06 733.328 82.6555 730.975C83.2511 728.623 85.6411 727.198 87.9937 727.794C145.512 742.354 268.395 751.882 405.603 751.882C408.03 751.882 409.997 753.849 409.997 756.276C409.997 758.703 408.03 760.67 405.603 760.67C267.724 760.67 144.23 751.095 85.837 736.314ZM468.24 760.005C465.814 760.057 463.805 758.132 463.753 755.706C463.7 753.28 465.625 751.271 468.051 751.218C548.959 749.478 621.747 744.374 674.379 736.891C700.328 733.201 720.796 729.011 734.705 724.53C741.569 722.318 746.734 720.066 750.06 717.867C751.552 716.881 752.606 715.949 753.225 715.126C753.644 714.569 753.789 714.184 753.789 713.904C753.789 713.495 753.487 712.874 752.626 711.99C751.425 710.757 749.451 709.412 746.737 708.032C740.964 705.099 732.218 702.189 720.769 699.408C718.411 698.835 716.963 696.459 717.536 694.101C718.109 691.742 720.485 690.295 722.843 690.868C748.933 697.205 762.577 704.138 762.577 713.904C762.577 727.798 732.41 737.516 675.617 745.591C622.599 753.13 549.473 758.257 468.24 760.005ZM646.928 678.59C649.339 678.861 651.074 681.036 650.803 683.447C650.532 685.859 648.357 687.594 645.946 687.323C593.181 681.39 526.456 677.523 454.148 676.324C438.156 676.059 421.949 675.926 405.603 675.926C403.176 675.926 401.209 673.958 401.209 671.531C401.209 669.105 403.176 667.137 405.603 667.137C421.998 667.137 438.253 667.271 454.294 667.537C526.865 668.74 593.865 672.623 646.928 678.59Z" fill="white"/>
<path d="M291.05 738.379C288.626 738.265 286.753 736.207 286.868 733.782C286.982 731.358 289.04 729.486 291.464 729.6C324.83 731.175 361.476 732.004 399.324 732.004C401.751 732.004 403.718 733.971 403.718 736.398C403.718 738.825 401.751 740.792 399.324 740.792C361.341 740.792 324.556 739.96 291.05 738.379ZM640.406 709.956C635.956 708.193 629.189 706.44 620.344 704.773C602.572 701.424 576.913 698.506 545.623 696.276C543.202 696.103 541.38 694.001 541.552 691.58C541.725 689.16 543.827 687.337 546.248 687.51C577.846 689.762 603.814 692.715 621.971 696.137C643.296 700.156 653.768 704.305 653.768 711.812C653.768 718.519 645.687 722.292 629.591 725.92C616.121 728.956 596.738 731.679 572.627 733.949C570.211 734.176 568.068 732.402 567.84 729.986C567.613 727.57 569.387 725.427 571.803 725.199C595.573 722.962 614.618 720.286 627.659 717.347C634.109 715.893 638.993 714.394 642.145 712.922C642.985 712.53 643.669 712.154 644.191 711.812C643.322 711.24 642.051 710.608 640.406 709.956ZM399.324 682.831C401.751 682.831 403.718 684.798 403.718 687.225C403.718 689.652 401.751 691.619 399.324 691.619C344.507 691.619 292.384 693.361 249.523 696.53C247.103 696.709 244.996 694.892 244.817 692.472C244.638 690.052 246.455 687.945 248.875 687.766C291.962 684.58 344.3 682.831 399.324 682.831ZM154.288 711.697C155.549 712.566 157.657 713.529 160.533 714.505C166.605 716.566 175.714 718.57 187.5 720.435C196.612 721.876 207.255 723.223 219.236 724.451C221.65 724.699 223.406 726.857 223.158 729.271C222.911 731.685 220.753 733.442 218.339 733.194C206.208 731.95 195.409 730.583 186.128 729.115C158.39 724.728 144.881 720.143 144.881 711.812C144.881 709.385 146.848 707.417 149.275 707.417C151.484 707.417 153.313 709.048 153.623 711.171C153.764 711.308 153.985 711.488 154.288 711.697Z" fill="white"/>
<path d="M515.524 712.369C515.524 704.838 509.419 698.734 501.889 698.734C494.358 698.734 488.254 704.838 488.254 712.369" fill="#BFEAFF"/>
<path d="M515.524 712.369C515.524 704.838 509.419 698.734 501.889 698.734C494.358 698.734 488.254 704.838 488.254 712.369" stroke="white" stroke-width="8" stroke-linecap="round" stroke-linejoin="round"/>
<path d="M454.251 718.49C454.251 709.245 446.756 701.75 437.511 701.75C428.266 701.75 420.771 709.245 420.771 718.49" fill="#BFEAFF"/>
<path d="M454.251 718.49C454.251 709.245 446.756 701.75 437.511 701.75C428.266 701.75 420.771 709.245 420.771 718.49" stroke="white" stroke-width="8" stroke-linecap="round" stroke-linejoin="round"/>
<path d="M488.129 723.258C488.129 710.869 478.086 700.826 465.697 700.826C453.309 700.826 443.266 710.869 443.266 723.258" fill="#BFEAFF"/>
<path d="M488.129 723.258C488.129 710.869 478.086 700.826 465.697 700.826C453.309 700.826 443.266 710.869 443.266 723.258" stroke="white" stroke-width="8" stroke-linecap="round" stroke-linejoin="round"/>
<path d="M462.166 739.571C462.166 732.04 456.062 725.936 448.531 725.936C441.001 725.936 434.896 732.04 434.896 739.571" fill="#BFEAFF"/>
<path d="M462.166 739.571C462.166 732.04 456.062 725.936 448.531 725.936C441.001 725.936 434.896 732.04 434.896 739.571" stroke="white" stroke-width="8" stroke-linecap="round" stroke-linejoin="round"/>
<path d="M-119.606 554.04C-122.033 554.04 -124 552.072 -124 549.646C-124 547.219 -122.033 545.251 -119.606 545.251H1031.77C1034.2 545.251 1036.17 547.219 1036.17 549.646C1036.17 552.072 1034.2 554.04 1031.77 554.04H-119.606Z" fill="#8FD8FC"/>
<path d="M319.638 697.718C318.808 698.049 317.771 698.224 316.489 698.224C305.309 698.224 279.691 684.963 279.691 670.133C279.691 655.302 288.755 643.28 299.935 643.28C300.519 643.28 301.096 643.313 301.667 643.377C300.552 637.275 299.935 631.461 299.935 626.053C299.935 573.254 343.527 530.452 397.299 530.452C451.072 530.452 494.663 573.254 494.663 626.053C494.663 647.605 486.411 675.677 477.125 702.744C472.835 715.25 329.648 719.752 324.603 708.804C322.91 705.132 321.249 701.43 319.638 697.718Z" fill="#FFAA83"/>
<path fill-rule="evenodd" clip-rule="evenodd" d="M250.967 586.503L236.651 584.162C234.256 583.771 232.632 581.512 233.023 579.117C233.415 576.721 235.674 575.097 238.069 575.489L243.476 576.373L238.413 573.469C236.308 572.262 235.58 569.577 236.788 567.472C237.995 565.366 240.68 564.639 242.786 565.846L250.938 570.522C251.114 569.485 251.33 568.462 251.587 567.456C259.713 535.735 267.574 526.108 298.82 531.85C321.957 408.721 400.037 404.624 434.134 458.35C454.657 415.463 481.144 409.753 503.56 418.048L506.311 408.729C506.999 406.402 509.442 405.072 511.77 405.759C514.097 406.446 515.427 408.89 514.74 411.218L511.642 421.709C516.328 424.221 520.755 427.273 524.817 430.619L543.919 409.655C545.554 407.861 548.333 407.732 550.127 409.367C551.921 411.001 552.05 413.78 550.415 415.574L531.328 436.522C531.419 436.612 531.509 436.702 531.599 436.792L547.077 427.352C549.148 426.088 551.853 426.743 553.116 428.815C554.38 430.887 553.725 433.591 551.653 434.855L537.609 443.421C540.906 447.428 543.622 451.433 545.62 455.118C618.187 426.236 663.241 480.642 580.18 539.008C596.67 580.668 545.62 606.076 523.664 599.239C531.231 637.215 504.318 664.915 487.893 669.267C490.228 662.509 492.574 643.241 492.574 631.193C481.923 611.387 476.156 606.288 472.446 580.668C458.245 595.693 427.995 605.765 400.525 616.775C388.298 621.676 345.568 626.448 328.717 611.387C328.717 631.316 333.172 651.092 326.08 680.921C316.134 686.943 313.081 651.092 305.037 646.059C295.57 640.137 287.522 651.537 282.85 654.621C278.325 648.051 255.108 615.494 250.967 586.503Z" fill="#253238"/>
<path d="M376.761 631.316H341.6V642.327H376.761V631.316Z" fill="#253238"/>
<path d="M459.855 624.535H424.693V635.545H459.855V624.535Z" fill="#253238"/>
<path d="M373.16 658.831C373.16 655.797 370.7 653.337 367.666 653.337C364.632 653.337 362.172 655.797 362.172 658.831V665.46C362.172 668.494 364.632 670.954 367.666 670.954C370.7 670.954 373.16 668.494 373.16 665.46V658.831Z" fill="#1C2229"/>
<path d="M448.865 660.853C448.865 657.819 446.405 655.359 443.371 655.359C440.337 655.359 437.877 657.819 437.877 660.853V667.482C437.877 670.516 440.337 672.976 443.371 672.976C446.405 672.976 448.865 670.516 448.865 667.482V660.853Z" fill="#1C2229"/>
<path d="M410.602 685.618C401.995 679.868 400.377 665.274 404.313 641.606C404.711 639.212 406.975 637.594 409.369 637.992C411.763 638.39 413.381 640.654 412.982 643.047C409.594 663.421 410.906 675.252 415.484 678.31C421.414 682.272 426.482 684.176 430.624 684.176C434.213 684.176 436.288 688.247 434.18 691.152C427.857 699.863 421.371 705.55 414.589 708.098C409.338 710.071 402.146 710.056 396.99 708.19C389.644 705.53 387.134 698.811 393.375 692.865C395.132 691.191 397.913 691.258 399.587 693.015C401.261 694.772 401.194 697.554 399.437 699.228C399.314 699.345 399.206 699.454 399.113 699.554C399.357 699.679 399.648 699.806 399.981 699.926C403.194 701.089 408.23 701.1 411.497 699.872C415.038 698.541 418.731 695.805 422.528 691.621C418.744 690.415 414.773 688.404 410.602 685.618Z" fill="#ED5738"/>
<path d="M298.362 652.593C300.47 651.39 303.154 652.123 304.357 654.231C305.56 656.339 304.826 659.022 302.719 660.225C294.729 664.786 294.178 668.281 300.291 674.162C302.039 675.845 302.093 678.627 300.411 680.376C298.728 682.124 295.946 682.178 294.197 680.496C283.75 670.444 285.397 659.993 298.362 652.593Z" fill="#ED5738"/>
<path d="M829.326 575.697C857.624 541.67 900.28 520.008 947.995 520.008C995.71 520.008 1038.37 541.67 1066.66 575.697C1010.72 582.219 969.892 585.48 944.178 585.48C917.15 585.48 878.866 582.219 829.326 575.697Z" fill="#BFEAFF"/>
<path d="M889.188 415.154C884.292 421.942 882.615 428.479 884.157 434.765C887.982 450.364 879.784 495.271 863.388 450.991C854.37 426.639 861.762 411.151 885.563 404.527C866.99 405.912 855.247 410.651 850.332 418.746C841.439 433.393 795.405 463.734 814.76 418.746C826.942 390.432 852.333 384.496 890.934 400.939C878.832 385.858 867.951 378.633 858.292 379.264C841.193 380.381 789.936 360.074 837.889 350.125C867.378 344.007 886.6 360.474 895.554 399.524C904.724 362.088 923.768 346.369 952.686 352.369C1000.64 362.318 949.382 382.624 932.283 381.508C922.942 380.898 912.458 387.635 900.833 401.72C901.002 401.701 901.172 401.683 901.343 401.665C926.875 381.552 949.084 381.18 967.972 400.549C1002.16 435.612 948.314 423.784 934.762 413.296C928.64 408.558 919.06 407.549 906.022 410.27C930.735 428.327 946.844 465.504 954.35 521.799C948.421 532.959 941.97 532.959 934.995 521.799C939.235 477.083 910.128 432.935 896.275 412.799C893.996 413.494 891.634 414.279 889.188 415.154Z" fill="#8FD8FC"/>
<path d="M664.135 236.848C664.135 220.309 677.542 206.901 694.081 206.901C702.96 206.901 710.936 210.765 716.42 216.903C716.34 216.156 716.3 215.397 716.3 214.629C716.3 202.892 725.815 193.377 737.552 193.377C744.771 193.377 751.149 196.976 754.99 202.477C756.297 169.487 783.455 143.144 816.766 143.144C844.522 143.144 868.007 161.435 875.823 186.622C878.645 178.196 886.603 172.125 895.979 172.125C907.716 172.125 917.231 181.64 917.231 193.377C917.231 195.1 917.026 196.776 916.639 198.38C921.886 195.205 928.039 193.377 934.62 193.377C953.826 193.377 969.396 208.947 969.396 228.154C969.396 230.176 969.224 232.158 968.892 234.086C971.343 232.766 974.146 232.018 977.124 232.018C986.728 232.018 994.513 239.803 994.513 249.406C994.513 257.861 984.027 266.485 980.611 266.794H689.68C675.268 264.389 664.135 251.919 664.135 236.848Z" fill="#8FD8FC"/>
<path d="M-113.33 226.157C-113.33 203.713 -95.1359 185.519 -72.6923 185.519C-60.644 185.519 -49.8203 190.762 -42.3785 199.092C-42.4863 198.078 -42.5416 197.049 -42.5416 196.006C-42.5416 180.079 -29.6296 167.167 -13.7019 167.167C-3.90617 167.167 4.74886 172.05 9.96118 179.516C11.7357 134.748 48.589 99 93.7917 99C131.458 99 163.326 123.821 173.933 158C177.763 146.566 188.562 138.327 201.285 138.327C217.213 138.327 230.125 151.239 230.125 167.167C230.125 169.505 229.847 171.779 229.321 173.956C236.441 169.647 244.792 167.167 253.721 167.167C279.785 167.167 300.914 188.295 300.914 214.359C300.914 217.103 300.679 219.793 300.23 222.409C303.555 220.619 307.359 219.603 311.401 219.603C324.432 219.603 334.997 230.167 334.997 243.199C334.997 254.672 320.767 266.375 316.131 266.795H-78.6644C-98.2226 263.531 -113.33 246.608 -113.33 226.157Z" fill="#8FD8FC"/>
<path fill-rule="evenodd" clip-rule="evenodd" d="M899.204 599.341C948.03 599.341 934.156 742.522 920.053 799.127C887.081 819.7 697.721 819.7 684.299 799.127C674.407 742.522 850.378 599.341 899.204 599.341Z" fill="#445A65"/>
<path d="M787.222 700.71C785.503 702.422 782.72 702.417 781.008 700.698C779.295 698.978 779.3 696.196 781.02 694.483C784.315 691.2 786.431 689.128 790.973 684.709C792.712 683.017 795.494 683.055 797.186 684.795C798.879 686.534 798.841 689.316 797.101 691.008C792.583 695.404 790.486 697.458 787.222 700.71ZM812.528 676.906C810.655 678.45 807.886 678.183 806.342 676.31C804.798 674.438 805.065 671.668 806.937 670.125C817.006 661.824 825.672 655.879 832.996 652.28C835.174 651.21 837.808 652.108 838.878 654.286C839.948 656.464 839.05 659.097 836.872 660.168C830.249 663.421 822.114 669.003 812.528 676.906Z" fill="white"/>
</g>
<path d="M437.547 227.234C438.263 227.169 438.719 227.169 438.914 227.234C439.109 227.234 439.272 227.234 439.402 227.234C440.249 227.169 440.867 227.072 441.258 226.941C441.518 227.072 441.779 227.137 442.039 227.137C442.299 227.137 442.625 227.169 443.016 227.234C443.667 228.016 443.992 228.634 443.992 229.09C444.057 229.546 444.025 230.034 443.895 230.555C443.895 230.815 443.862 231.043 443.797 231.238C443.797 231.368 443.797 231.531 443.797 231.727C443.797 231.922 443.829 232.117 443.895 232.312C443.96 232.508 443.96 232.703 443.895 232.898L443.797 234.266C443.797 234.396 443.797 234.624 443.797 234.949C443.862 235.21 443.862 235.372 443.797 235.438C443.732 236.089 443.732 236.512 443.797 236.707C443.862 236.837 443.895 237.033 443.895 237.293C443.829 237.879 443.764 238.53 443.699 239.246C443.699 239.897 443.764 240.483 443.895 241.004C444.025 241.72 444.057 242.143 443.992 242.273C443.471 242.99 443.113 243.38 442.918 243.445C442.723 243.445 442.625 243.478 442.625 243.543C442.234 243.348 441.811 243.348 441.355 243.543C440.9 243.738 440.477 243.673 440.086 243.348C439.63 243.543 439.174 243.445 438.719 243.055C438.523 243.12 438.328 243.185 438.133 243.25C437.938 243.25 437.775 243.348 437.645 243.543C437.579 243.868 437.547 244.194 437.547 244.52C437.547 244.845 437.547 245.203 437.547 245.594C437.547 246.44 437.579 247.091 437.645 247.547C437.71 247.938 437.742 248.296 437.742 248.621C437.807 248.882 437.807 249.109 437.742 249.305C437.742 249.5 437.742 249.728 437.742 249.988C437.742 250.965 437.84 251.876 438.035 252.723C438.1 253.113 438.165 253.634 438.23 254.285C438.296 254.871 438.393 255.424 438.523 255.945C438.393 256.336 438.361 256.759 438.426 257.215C438.491 257.605 438.523 257.996 438.523 258.387C438.523 258.712 438.523 258.973 438.523 259.168C438.589 259.363 438.589 259.591 438.523 259.852V261.512C438.068 262.098 437.677 262.391 437.352 262.391C437.091 262.391 436.896 262.456 436.766 262.586C436.375 262.456 435.952 262.423 435.496 262.488C435.04 262.618 434.65 262.618 434.324 262.488C433.934 262.618 433.51 262.651 433.055 262.586C432.599 262.586 432.078 262.618 431.492 262.684H429.246C428.204 262.749 427.488 262.749 427.098 262.684C426.772 262.618 426.414 262.586 426.023 262.586C425.763 262.586 425.503 262.618 425.242 262.684C425.047 262.749 424.852 262.749 424.656 262.684C423.94 262.553 423.484 262.488 423.289 262.488C422.768 262.358 422.41 262.26 422.215 262.195C422.085 262 421.954 261.805 421.824 261.609C421.694 261.414 421.564 261.251 421.434 261.121C421.499 260.275 421.531 259.754 421.531 259.559C421.531 259.363 421.466 259.201 421.336 259.07C421.531 258.549 421.629 258.159 421.629 257.898C421.629 257.443 421.596 256.987 421.531 256.531C421.531 256.076 421.499 255.62 421.434 255.164C421.564 254.383 421.629 253.829 421.629 253.504C421.629 253.178 421.629 252.918 421.629 252.723C421.564 252.137 421.564 251.811 421.629 251.746C421.694 251.681 421.727 251.583 421.727 251.453C421.727 250.802 421.694 250.444 421.629 250.379C421.629 250.314 421.629 250.249 421.629 250.184C421.759 249.728 421.824 249.37 421.824 249.109C421.889 248.849 421.922 248.589 421.922 248.328C422.052 247.417 422.085 246.505 422.02 245.594C422.02 244.682 421.987 243.706 421.922 242.664C421.466 242.534 421.043 242.501 420.652 242.566C420.262 242.566 419.806 242.566 419.285 242.566C418.829 242.566 418.276 242.501 417.625 242.371L414.891 242.273C414.24 242.143 413.882 242.111 413.816 242.176C413.751 242.176 413.654 242.176 413.523 242.176C413.003 242.176 412.71 242.176 412.645 242.176C412.645 242.111 412.579 242.078 412.449 242.078C412.189 242.078 411.961 242.078 411.766 242.078C411.635 242.078 411.505 242.013 411.375 241.883C410.854 242.013 410.366 242.046 409.91 241.98C409.454 241.915 409.031 241.883 408.641 241.883C408.445 241.883 408.25 241.915 408.055 241.98C407.924 242.046 407.762 242.078 407.566 242.078C407.436 242.078 407.208 242.078 406.883 242.078C406.557 242.078 406.329 242.111 406.199 242.176C405.939 242.176 405.711 242.208 405.516 242.273C405.32 242.273 405.092 242.273 404.832 242.273C404.572 242.339 404.311 242.436 404.051 242.566C403.855 242.632 403.595 242.599 403.27 242.469C402.553 242.339 402.195 242.306 402.195 242.371C402.195 242.371 402.163 242.371 402.098 242.371C402.033 242.371 401.87 242.371 401.609 242.371C401.414 242.306 401.186 242.273 400.926 242.273C400.535 241.753 400.275 241.362 400.145 241.102C400.014 240.841 399.884 240.548 399.754 240.223C399.428 239.962 399.168 239.637 398.973 239.246C398.777 238.855 398.517 238.53 398.191 238.27C398.061 238.009 397.931 237.781 397.801 237.586C397.671 237.326 397.54 237.098 397.41 236.902C397.215 236.577 396.987 236.219 396.727 235.828C396.466 235.372 396.336 235.112 396.336 235.047C396.401 234.917 396.401 234.819 396.336 234.754C395.88 234.168 395.62 233.81 395.555 233.68C395.555 233.549 395.522 233.419 395.457 233.289C395.132 232.573 394.871 232.15 394.676 232.02C394.48 231.889 394.383 231.661 394.383 231.336C393.862 230.815 393.602 230.522 393.602 230.457C393.536 230.262 393.471 230.099 393.406 229.969C393.341 229.839 393.341 229.643 393.406 229.383C393.536 228.862 393.602 228.569 393.602 228.504C393.667 228.374 393.699 228.243 393.699 228.113C393.829 227.462 393.895 227.007 393.895 226.746C393.895 226.421 394.057 226.193 394.383 226.062C394.513 225.802 394.643 225.607 394.773 225.477C394.904 225.346 395.034 225.184 395.164 224.988C395.359 224.663 395.49 224.435 395.555 224.305C395.62 224.109 395.685 223.947 395.75 223.816C396.466 222.97 396.922 222.286 397.117 221.766C397.508 221.31 397.736 221.082 397.801 221.082C397.931 221.017 397.996 220.952 397.996 220.887C398.322 220.366 398.517 220.073 398.582 220.008C398.712 219.943 398.842 219.845 398.973 219.715L399.559 218.738C399.884 218.217 400.112 217.924 400.242 217.859C400.372 217.729 400.47 217.599 400.535 217.469C400.796 216.948 401.089 216.59 401.414 216.395C401.74 215.743 401.935 215.418 402 215.418C402.065 215.353 402.13 215.255 402.195 215.125C402.586 214.474 402.781 214.181 402.781 214.246C402.781 214.246 402.846 214.214 402.977 214.148C403.172 213.823 403.302 213.628 403.367 213.562C403.432 213.497 403.53 213.4 403.66 213.27C403.79 213.139 403.888 212.977 403.953 212.781C404.018 212.521 404.181 212.391 404.441 212.391C404.832 211.74 405.092 211.349 405.223 211.219C405.418 211.089 405.581 210.926 405.711 210.73L406.297 209.656L407.664 208.191C408.12 207.54 408.38 207.215 408.445 207.215C408.771 206.629 408.966 206.336 409.031 206.336C409.096 206.271 409.161 206.206 409.227 206.141C409.487 205.49 409.617 205.164 409.617 205.164C409.682 205.164 409.715 205.132 409.715 205.066C409.845 204.936 409.975 204.741 410.105 204.48C410.301 204.22 410.496 204.025 410.691 203.895C410.691 203.569 410.789 203.374 410.984 203.309C411.245 203.178 411.375 202.951 411.375 202.625L412.059 201.746C412.319 201.421 412.482 201.16 412.547 200.965C412.677 200.704 412.807 200.477 412.938 200.281C413.263 199.63 413.458 199.272 413.523 199.207C413.654 199.142 413.751 199.044 413.816 198.914L414.598 198.035C414.728 197.905 414.826 197.742 414.891 197.547C414.956 197.286 415.086 197.124 415.281 197.059C415.607 196.342 415.802 195.952 415.867 195.887C415.932 195.757 415.997 195.626 416.062 195.496C416.453 194.975 416.648 194.682 416.648 194.617C416.714 194.487 416.811 194.389 416.941 194.324C417.202 193.738 417.365 193.413 417.43 193.348C417.885 192.697 418.146 192.306 418.211 192.176C418.471 191.72 418.634 191.492 418.699 191.492C418.764 191.427 418.829 191.329 418.895 191.199C419.155 190.613 419.318 190.32 419.383 190.32C419.513 190.255 419.643 190.19 419.773 190.125C420.099 189.93 420.424 189.832 420.75 189.832C421.076 189.832 421.434 189.832 421.824 189.832C422.41 189.897 422.703 189.897 422.703 189.832C422.768 189.767 422.866 189.734 422.996 189.734C423.191 189.734 423.387 189.767 423.582 189.832C423.777 189.897 423.94 189.93 424.07 189.93C424.526 189.995 424.949 190.027 425.34 190.027C425.796 189.962 426.284 189.897 426.805 189.832C427.13 189.832 427.456 189.832 427.781 189.832C428.172 189.832 428.53 189.799 428.855 189.734C429.246 189.734 429.507 189.734 429.637 189.734C429.832 189.669 429.995 189.669 430.125 189.734C430.646 189.734 431.102 189.734 431.492 189.734C431.948 189.669 432.436 189.637 432.957 189.637C433.738 189.572 434.194 189.539 434.324 189.539C434.454 189.474 434.65 189.474 434.91 189.539C435.561 189.93 436.017 190.19 436.277 190.32C436.538 190.451 436.733 190.874 436.863 191.59C436.798 192.241 436.766 192.632 436.766 192.762C436.831 192.827 436.863 192.924 436.863 193.055C436.863 193.25 436.831 193.445 436.766 193.641C436.766 193.836 436.766 193.999 436.766 194.129C436.766 194.454 436.733 194.715 436.668 194.91C436.668 195.04 436.635 195.203 436.57 195.398C436.57 196.115 436.57 196.473 436.57 196.473C436.57 196.668 436.538 196.863 436.473 197.059C436.473 197.254 436.473 197.449 436.473 197.645C436.408 198.816 436.375 199.63 436.375 200.086C436.44 200.477 436.408 200.9 436.277 201.355C436.277 201.941 436.31 202.299 436.375 202.43C436.44 202.56 436.473 202.69 436.473 202.82V204.383C436.538 204.904 436.538 205.359 436.473 205.75C436.408 206.141 436.408 206.596 436.473 207.117C436.538 207.768 436.57 208.387 436.57 208.973C436.57 209.493 436.635 210.014 436.766 210.535C436.57 211.251 436.505 211.837 436.57 212.293C436.635 212.684 436.668 213.074 436.668 213.465C436.668 213.725 436.668 213.953 436.668 214.148C436.668 214.344 436.668 214.507 436.668 214.637L436.863 220.203C436.928 220.398 436.928 220.659 436.863 220.984C436.863 221.245 436.863 221.538 436.863 221.863L437.156 225.184C437.221 225.509 437.254 225.867 437.254 226.258C437.319 226.583 437.417 226.909 437.547 227.234ZM420.945 213.66C420.49 214.246 420.229 214.637 420.164 214.832C420.099 215.027 420.001 215.19 419.871 215.32C419.741 215.451 419.611 215.581 419.48 215.711C419.35 215.841 419.22 215.971 419.09 216.102C418.439 216.818 418.016 217.371 417.82 217.762C417.625 218.087 417.365 218.38 417.039 218.641C416.974 218.901 416.876 219.096 416.746 219.227C416.616 219.357 416.518 219.52 416.453 219.715C415.932 220.236 415.639 220.529 415.574 220.594C415.574 220.659 415.542 220.757 415.477 220.887C415.021 221.473 414.728 221.863 414.598 222.059C414.533 222.189 414.435 222.352 414.305 222.547C413.393 223.328 412.742 224.044 412.352 224.695C411.831 225.216 411.538 225.542 411.473 225.672C411.408 225.802 411.342 225.932 411.277 226.062C410.887 226.453 410.659 226.746 410.594 226.941C411.115 227.267 411.505 227.397 411.766 227.332C412.091 227.267 412.384 227.234 412.645 227.234C413.296 227.43 413.621 227.527 413.621 227.527C413.621 227.462 413.654 227.43 413.719 227.43H415.184H416.355H417.43C418.016 227.56 418.406 227.625 418.602 227.625C418.862 227.56 419.122 227.527 419.383 227.527C419.643 227.527 419.871 227.495 420.066 227.43C420.262 227.365 420.457 227.332 420.652 227.332C420.913 227.332 421.141 227.397 421.336 227.527C421.596 227.592 421.857 227.56 422.117 227.43C422.182 227.234 422.182 227.072 422.117 226.941C422.117 226.746 422.117 226.518 422.117 226.258L422.215 224.305V223.23C422.085 222.645 422.02 222.352 422.02 222.352C422.085 222.286 422.117 222.221 422.117 222.156C422.117 221.57 422.085 221.277 422.02 221.277C421.954 221.212 421.922 221.115 421.922 220.984C421.987 220.398 422.02 220.073 422.02 220.008C422.085 219.943 422.117 219.845 422.117 219.715C422.052 219.064 422.02 218.641 422.02 218.445C422.085 218.185 422.117 217.99 422.117 217.859C422.117 216.883 422.085 216.264 422.02 216.004C421.954 215.678 421.922 215.385 421.922 215.125C421.987 214.604 421.954 214.083 421.824 213.562L420.945 213.66ZM461.492 250.477C461.167 250.021 460.906 249.63 460.711 249.305C460.451 248.979 460.158 248.686 459.832 248.426C459.767 248.1 459.669 247.84 459.539 247.645C459.409 247.449 459.344 247.156 459.344 246.766C459.214 246.635 459.083 246.505 458.953 246.375C458.888 246.18 458.79 245.984 458.66 245.789L458.172 244.715C457.716 244.194 457.488 243.901 457.488 243.836C457.553 243.771 457.553 243.673 457.488 243.543C457.293 243.022 457.195 242.762 457.195 242.762C457.195 242.697 457.163 242.599 457.098 242.469L456.512 239.93C456.316 239.148 456.219 238.66 456.219 238.465C456.219 238.27 456.186 238.107 456.121 237.977C455.926 237.195 455.763 236.74 455.633 236.609C455.763 236.154 455.763 235.763 455.633 235.438C455.438 234.982 455.307 234.656 455.242 234.461C455.177 234.266 455.145 234.07 455.145 233.875C455.079 233.549 455.079 233.224 455.145 232.898C455.21 232.573 455.112 232.247 454.852 231.922C454.917 231.141 454.917 230.652 454.852 230.457C454.852 230.262 454.852 230.066 454.852 229.871C454.721 229.155 454.656 228.732 454.656 228.602C454.656 228.406 454.721 228.048 454.852 227.527C454.852 227.267 454.819 227.007 454.754 226.746C454.754 226.486 454.754 226.225 454.754 225.965C454.819 225.118 454.819 224.598 454.754 224.402C454.689 224.142 454.689 223.849 454.754 223.523C454.884 223.003 454.917 222.645 454.852 222.449C454.786 222.254 454.754 222.059 454.754 221.863C454.884 221.212 454.917 220.887 454.852 220.887C454.852 220.822 454.852 220.757 454.852 220.691C454.917 220.301 454.949 219.943 454.949 219.617C455.079 219.031 455.112 218.706 455.047 218.641C455.047 218.576 455.047 218.478 455.047 218.348C455.047 218.152 455.079 217.957 455.145 217.762C455.21 217.501 455.21 217.273 455.145 217.078C455.275 216.948 455.34 216.785 455.34 216.59C455.34 216.329 455.405 216.134 455.535 216.004C455.405 215.743 455.405 215.516 455.535 215.32C455.665 215.06 455.763 214.799 455.828 214.539C455.958 214.214 456.023 213.921 456.023 213.66C456.023 213.4 456.089 213.139 456.219 212.879L456.512 211.805C456.577 211.609 456.642 211.447 456.707 211.316C456.772 211.121 456.837 210.926 456.902 210.73C457.163 210.014 457.293 209.591 457.293 209.461C457.293 209.266 457.358 209.103 457.488 208.973C457.358 208.777 457.358 208.582 457.488 208.387C457.618 208.191 457.716 207.996 457.781 207.801L458.367 206.531C458.693 205.62 458.986 204.871 459.246 204.285C459.507 203.764 459.767 203.439 460.027 203.309L460.613 202.039C461.004 201.388 461.167 201.062 461.102 201.062C461.102 200.997 461.167 200.965 461.297 200.965C461.883 200.053 462.241 199.467 462.371 199.207C462.566 198.882 462.762 198.556 462.957 198.23C463.087 198.1 463.185 197.97 463.25 197.84C463.38 197.71 463.478 197.514 463.543 197.254C463.868 196.798 464.129 196.473 464.324 196.277C464.52 196.082 464.715 195.887 464.91 195.691C465.431 195.105 465.757 194.812 465.887 194.812C466.017 194.747 466.082 194.65 466.082 194.52C466.408 194.454 466.635 194.389 466.766 194.324C466.961 194.194 467.156 194.064 467.352 193.934L468.133 193.152C468.393 192.892 468.621 192.697 468.816 192.566C469.077 192.371 469.337 192.241 469.598 192.176C470.249 191.655 470.77 191.362 471.16 191.297C471.616 191.167 471.909 190.939 472.039 190.613C472.365 190.613 472.723 190.483 473.113 190.223C473.309 190.223 473.504 190.19 473.699 190.125C473.895 190.06 474.09 189.995 474.285 189.93C474.546 189.865 474.741 189.799 474.871 189.734C475.066 189.669 475.262 189.604 475.457 189.539C475.717 189.539 476.108 189.474 476.629 189.344C477.28 189.018 477.671 188.888 477.801 188.953C477.931 188.953 478.061 188.953 478.191 188.953C478.777 188.888 479.135 188.823 479.266 188.758C479.396 188.628 479.526 188.53 479.656 188.465C479.786 188.4 479.949 188.4 480.145 188.465C480.405 188.465 480.665 188.432 480.926 188.367C481.186 188.367 481.414 188.4 481.609 188.465C481.87 188.465 482.13 188.432 482.391 188.367C482.586 188.367 482.781 188.367 482.977 188.367C483.237 188.302 483.497 188.302 483.758 188.367C483.953 188.367 484.148 188.4 484.344 188.465C484.539 188.465 484.734 188.465 484.93 188.465C485.125 188.53 485.32 188.562 485.516 188.562C485.711 188.497 485.874 188.497 486.004 188.562C486.72 188.823 487.143 188.986 487.273 189.051C487.469 189.116 487.632 189.148 487.762 189.148C488.087 189.279 488.51 189.409 489.031 189.539C489.747 189.865 490.171 190.06 490.301 190.125C490.496 190.19 490.724 190.255 490.984 190.32C491.505 190.711 491.831 190.939 491.961 191.004C492.026 191.134 492.189 191.232 492.449 191.297C492.71 191.362 492.905 191.46 493.035 191.59L494.207 192.078C495.053 192.534 495.542 192.859 495.672 193.055C495.867 193.25 496.095 193.283 496.355 193.152C496.616 193.608 496.844 193.934 497.039 194.129C497.56 194.52 497.885 194.812 498.016 195.008C498.146 195.138 498.374 195.236 498.699 195.301C499.22 196.017 499.48 196.408 499.48 196.473C500.197 196.993 500.652 197.384 500.848 197.645C501.043 197.84 501.271 198.003 501.531 198.133C501.857 198.654 502.117 198.979 502.312 199.109C502.573 199.174 502.671 199.37 502.605 199.695C502.931 199.891 503.159 200.151 503.289 200.477C503.484 200.802 503.745 201.095 504.07 201.355C504.591 202.267 504.884 202.918 504.949 203.309C505.145 203.96 505.275 204.285 505.34 204.285C505.405 204.285 505.438 204.318 505.438 204.383C505.698 205.034 505.828 205.457 505.828 205.652C506.154 206.368 506.382 206.857 506.512 207.117C506.577 207.573 506.642 207.866 506.707 207.996C506.837 208.126 506.935 208.257 507 208.387C507.065 208.842 507.098 209.135 507.098 209.266C507.098 209.331 507.195 209.396 507.391 209.461C507.26 209.786 507.228 210.177 507.293 210.633C507.358 211.023 507.521 211.284 507.781 211.414C507.977 212.13 508.042 212.553 507.977 212.684C507.977 212.749 507.977 212.846 507.977 212.977C508.042 213.237 508.107 213.595 508.172 214.051C508.302 214.441 508.367 214.832 508.367 215.223C508.367 215.939 508.4 216.427 508.465 216.688C508.595 216.948 508.693 217.241 508.758 217.566L508.855 218.641C508.986 219.487 509.051 220.04 509.051 220.301C509.116 220.496 509.148 220.724 509.148 220.984C509.214 221.44 509.214 221.928 509.148 222.449C509.148 222.905 509.214 223.361 509.344 223.816C509.279 223.947 509.214 224.109 509.148 224.305C509.083 224.5 509.051 224.695 509.051 224.891C509.116 225.607 509.148 225.965 509.148 225.965C509.148 226.29 509.116 226.681 509.051 227.137C509.051 227.592 509.083 227.983 509.148 228.309C509.279 229.09 509.279 229.676 509.148 230.066C509.148 230.848 509.116 231.336 509.051 231.531C508.986 231.727 509.018 231.922 509.148 232.117C508.953 232.378 508.888 232.671 508.953 232.996C509.018 233.322 509.018 233.647 508.953 233.973C508.888 234.168 508.823 234.428 508.758 234.754C508.758 235.014 508.725 235.242 508.66 235.438C508.53 236.154 508.432 236.512 508.367 236.512C508.302 236.447 508.27 236.479 508.27 236.609C508.335 237.521 508.27 238.204 508.074 238.66C508.009 238.986 507.911 239.246 507.781 239.441C507.716 239.572 507.651 239.734 507.586 239.93C507.326 240.906 507.163 241.525 507.098 241.785C507.098 242.046 507.033 242.339 506.902 242.664C506.577 243.576 506.382 244.129 506.316 244.324C506.316 244.52 506.219 244.682 506.023 244.812L505.73 246.18C505.34 246.831 505.112 247.156 505.047 247.156C504.982 247.156 504.949 247.189 504.949 247.254C504.689 247.775 504.493 248.1 504.363 248.23C504.103 248.882 503.94 249.207 503.875 249.207L503.191 250.184C502.866 250.704 502.638 251.062 502.508 251.258C502.247 251.714 502.085 252.007 502.02 252.137C502.02 252.202 501.954 252.299 501.824 252.43C501.434 253.016 501.206 253.341 501.141 253.406C500.685 253.927 500.392 254.253 500.262 254.383C500.197 254.448 500.164 254.546 500.164 254.676C500.034 254.806 499.904 254.936 499.773 255.066C499.643 255.197 499.513 255.327 499.383 255.457C498.797 256.108 498.471 256.466 498.406 256.531C498.406 256.596 498.341 256.694 498.211 256.824C497.755 257.215 497.527 257.443 497.527 257.508C497.527 257.508 497.495 257.54 497.43 257.605C496.714 258.191 496.258 258.582 496.062 258.777C495.867 258.973 495.672 259.135 495.477 259.266C494.826 259.917 494.467 260.275 494.402 260.34C494.207 260.47 493.979 260.568 493.719 260.633C493.523 260.633 493.328 260.698 493.133 260.828C492.547 261.154 492.254 261.349 492.254 261.414C492.254 261.479 492.221 261.512 492.156 261.512C491.831 261.642 491.408 261.772 490.887 261.902C490.301 262.163 489.878 262.293 489.617 262.293C489.357 262.293 489.161 262.391 489.031 262.586C488.38 262.716 487.99 262.846 487.859 262.977C487.664 262.977 487.404 263.009 487.078 263.074C486.818 263.204 486.622 263.302 486.492 263.367C486.362 263.497 486.199 263.53 486.004 263.465C485.809 263.465 485.613 263.465 485.418 263.465C484.637 263.66 484.018 263.725 483.562 263.66C483.172 263.66 482.716 263.693 482.195 263.758C481.609 263.823 481.121 263.855 480.73 263.855C480.34 263.921 479.982 263.921 479.656 263.855C479.005 263.66 478.615 263.562 478.484 263.562C478.354 263.562 478.224 263.53 478.094 263.465C477.573 263.335 477.117 263.139 476.727 262.879C476.531 262.749 476.303 262.651 476.043 262.586C475.848 262.521 475.652 262.423 475.457 262.293C475.262 262.163 475.066 262.065 474.871 262C474.676 261.87 474.415 261.805 474.09 261.805C473.829 261.479 473.536 261.284 473.211 261.219C472.885 261.089 472.56 260.926 472.234 260.73C471.909 260.47 471.648 260.307 471.453 260.242C471.258 260.112 471.095 259.982 470.965 259.852C470.444 259.591 470.151 259.428 470.086 259.363C470.086 259.298 470.021 259.233 469.891 259.168C469.24 258.712 468.914 258.484 468.914 258.484C468.328 258.094 467.938 257.801 467.742 257.605C467.547 257.41 467.319 257.215 467.059 257.02C466.668 256.629 466.342 256.368 466.082 256.238C465.822 255.717 465.561 255.359 465.301 255.164C464.975 254.708 464.747 254.415 464.617 254.285C464.422 254.025 464.194 253.797 463.934 253.602C463.673 253.406 463.478 253.146 463.348 252.82C462.957 252.56 462.664 252.332 462.469 252.137C461.948 251.225 461.622 250.672 461.492 250.477ZM469.402 230.457C469.663 231.368 469.793 232.085 469.793 232.605C469.988 232.931 470.086 233.354 470.086 233.875C470.346 234.396 470.477 234.819 470.477 235.145C470.542 235.405 470.639 235.6 470.77 235.73C470.965 236.316 471.225 236.967 471.551 237.684L471.941 239.246C472.202 239.702 472.332 239.962 472.332 240.027C472.332 240.092 472.365 240.19 472.43 240.32C472.69 240.971 472.853 241.297 472.918 241.297C473.048 241.297 473.113 241.362 473.113 241.492L473.699 242.469C474.025 243.185 474.188 243.608 474.188 243.738C474.253 243.803 474.318 243.868 474.383 243.934L475.164 244.91C475.555 245.496 475.783 245.789 475.848 245.789C476.629 246.375 477.02 246.701 477.02 246.766C477.41 247.026 477.638 247.189 477.703 247.254C477.833 247.319 477.964 247.352 478.094 247.352C478.745 247.742 479.103 247.97 479.168 248.035C479.233 248.1 479.331 248.133 479.461 248.133C479.591 248.198 479.754 248.23 479.949 248.23C480.145 248.23 480.34 248.263 480.535 248.328C480.926 248.523 481.219 248.589 481.414 248.523C481.609 248.458 481.772 248.426 481.902 248.426L482.977 248.523C483.693 248.523 484.051 248.491 484.051 248.426C484.572 248.361 484.93 248.263 485.125 248.133C485.32 248.003 485.483 247.905 485.613 247.84C486.329 247.449 486.785 247.189 486.98 247.059C487.241 246.863 487.534 246.798 487.859 246.863C488.445 246.277 488.771 245.952 488.836 245.887C489.292 245.366 489.552 245.073 489.617 245.008C489.747 244.943 489.845 244.845 489.91 244.715C490.301 244.064 490.496 243.738 490.496 243.738C490.691 243.413 490.854 243.152 490.984 242.957C491.115 242.697 491.342 242.469 491.668 242.273C491.993 241.427 492.221 240.874 492.352 240.613C492.482 240.288 492.645 239.962 492.84 239.637C492.905 238.921 493.003 238.497 493.133 238.367C493.198 237.716 493.263 237.358 493.328 237.293C493.393 237.228 493.426 237.13 493.426 237C493.556 236.349 493.589 235.958 493.523 235.828C494.044 234.786 494.24 233.973 494.109 233.387C494.174 232.931 494.24 232.605 494.305 232.41C494.37 232.215 494.337 232.052 494.207 231.922C494.272 231.01 494.305 230.457 494.305 230.262C494.37 230.001 494.402 229.773 494.402 229.578C494.402 228.862 494.37 228.439 494.305 228.309C494.24 228.178 494.272 228.048 494.402 227.918C494.207 227.527 494.142 227.104 494.207 226.648C494.272 226.193 494.24 225.802 494.109 225.477C494.37 224.956 494.37 224.435 494.109 223.914C494.24 223.784 494.272 223.621 494.207 223.426C494.142 223.165 494.109 222.97 494.109 222.84L494.207 221.668C494.207 221.147 494.142 220.691 494.012 220.301C493.947 219.845 493.947 219.454 494.012 219.129L493.621 218.055C493.491 217.729 493.393 217.469 493.328 217.273C493.263 217.013 493.296 216.818 493.426 216.688C493.296 216.492 493.198 216.264 493.133 216.004C493.133 215.678 493.068 215.451 492.938 215.32C492.872 214.734 492.807 214.311 492.742 214.051C492.677 213.725 492.547 213.497 492.352 213.367C492.286 213.107 492.221 212.814 492.156 212.488C492.156 212.163 492.124 211.967 492.059 211.902C491.733 211.382 491.538 211.023 491.473 210.828C491.473 210.633 491.408 210.438 491.277 210.242C490.887 209.656 490.561 209.298 490.301 209.168C490.236 208.842 490.105 208.615 489.91 208.484C489.78 208.354 489.65 208.126 489.52 207.801C489.194 207.605 488.868 207.41 488.543 207.215C488.283 206.954 488.055 206.661 487.859 206.336C487.339 206.076 487.046 205.913 486.98 205.848C486.915 205.717 486.85 205.62 486.785 205.555C486.395 205.359 486.102 205.197 485.906 205.066C485.776 204.871 485.581 204.773 485.32 204.773L484.539 203.992C484.344 203.862 484.116 203.829 483.855 203.895C483.595 203.96 483.4 203.96 483.27 203.895C482.553 203.699 482.13 203.602 482 203.602C481.87 203.602 481.74 203.634 481.609 203.699C481.154 203.634 480.861 203.634 480.73 203.699C480.6 203.764 480.47 203.764 480.34 203.699C479.949 203.829 479.689 203.96 479.559 204.09C479.428 204.155 479.266 204.155 479.07 204.09C478.745 204.22 478.452 204.35 478.191 204.48C477.931 204.546 477.671 204.643 477.41 204.773C477.15 204.969 476.922 205.164 476.727 205.359C476.531 205.555 476.336 205.783 476.141 206.043C475.685 206.368 475.424 206.596 475.359 206.727C475.294 206.792 475.262 206.889 475.262 207.02C475.001 207.15 474.773 207.312 474.578 207.508C474.448 207.638 474.285 207.736 474.09 207.801C474.025 208.191 473.862 208.484 473.602 208.68C473.341 208.875 473.211 209.201 473.211 209.656C472.82 210.047 472.592 210.34 472.527 210.535C472.462 210.73 472.332 210.893 472.137 211.023C471.941 211.805 471.779 212.26 471.648 212.391C471.388 213.107 471.258 213.465 471.258 213.465C471.128 213.921 470.997 214.279 470.867 214.539C470.737 214.799 470.639 215.092 470.574 215.418C470.509 215.678 470.379 215.939 470.184 216.199C470.053 216.98 469.956 217.404 469.891 217.469C469.76 217.99 469.63 218.445 469.5 218.836C469.435 219.161 469.37 219.552 469.305 220.008C469.305 220.464 469.24 220.822 469.109 221.082C469.109 221.603 469.077 222.026 469.012 222.352C468.947 222.677 468.914 222.938 468.914 223.133C468.914 223.849 468.914 224.272 468.914 224.402C468.979 224.533 469.012 224.63 469.012 224.695C469.207 225.607 469.24 226.323 469.109 226.844C469.044 227.299 469.044 227.788 469.109 228.309C469.24 228.764 469.272 229.253 469.207 229.773L469.402 230.457ZM562.488 227.234C563.204 227.169 563.66 227.169 563.855 227.234C564.051 227.234 564.214 227.234 564.344 227.234C565.19 227.169 565.809 227.072 566.199 226.941C566.46 227.072 566.72 227.137 566.98 227.137C567.241 227.137 567.566 227.169 567.957 227.234C568.608 228.016 568.934 228.634 568.934 229.09C568.999 229.546 568.966 230.034 568.836 230.555C568.836 230.815 568.803 231.043 568.738 231.238C568.738 231.368 568.738 231.531 568.738 231.727C568.738 231.922 568.771 232.117 568.836 232.312C568.901 232.508 568.901 232.703 568.836 232.898L568.738 234.266C568.738 234.396 568.738 234.624 568.738 234.949C568.803 235.21 568.803 235.372 568.738 235.438C568.673 236.089 568.673 236.512 568.738 236.707C568.803 236.837 568.836 237.033 568.836 237.293C568.771 237.879 568.706 238.53 568.641 239.246C568.641 239.897 568.706 240.483 568.836 241.004C568.966 241.72 568.999 242.143 568.934 242.273C568.413 242.99 568.055 243.38 567.859 243.445C567.664 243.445 567.566 243.478 567.566 243.543C567.176 243.348 566.753 243.348 566.297 243.543C565.841 243.738 565.418 243.673 565.027 243.348C564.572 243.543 564.116 243.445 563.66 243.055C563.465 243.12 563.27 243.185 563.074 243.25C562.879 243.25 562.716 243.348 562.586 243.543C562.521 243.868 562.488 244.194 562.488 244.52C562.488 244.845 562.488 245.203 562.488 245.594C562.488 246.44 562.521 247.091 562.586 247.547C562.651 247.938 562.684 248.296 562.684 248.621C562.749 248.882 562.749 249.109 562.684 249.305C562.684 249.5 562.684 249.728 562.684 249.988C562.684 250.965 562.781 251.876 562.977 252.723C563.042 253.113 563.107 253.634 563.172 254.285C563.237 254.871 563.335 255.424 563.465 255.945C563.335 256.336 563.302 256.759 563.367 257.215C563.432 257.605 563.465 257.996 563.465 258.387C563.465 258.712 563.465 258.973 563.465 259.168C563.53 259.363 563.53 259.591 563.465 259.852V261.512C563.009 262.098 562.618 262.391 562.293 262.391C562.033 262.391 561.837 262.456 561.707 262.586C561.316 262.456 560.893 262.423 560.438 262.488C559.982 262.618 559.591 262.618 559.266 262.488C558.875 262.618 558.452 262.651 557.996 262.586C557.54 262.586 557.02 262.618 556.434 262.684H554.188C553.146 262.749 552.43 262.749 552.039 262.684C551.714 262.618 551.355 262.586 550.965 262.586C550.704 262.586 550.444 262.618 550.184 262.684C549.988 262.749 549.793 262.749 549.598 262.684C548.882 262.553 548.426 262.488 548.23 262.488C547.71 262.358 547.352 262.26 547.156 262.195C547.026 262 546.896 261.805 546.766 261.609C546.635 261.414 546.505 261.251 546.375 261.121C546.44 260.275 546.473 259.754 546.473 259.559C546.473 259.363 546.408 259.201 546.277 259.07C546.473 258.549 546.57 258.159 546.57 257.898C546.57 257.443 546.538 256.987 546.473 256.531C546.473 256.076 546.44 255.62 546.375 255.164C546.505 254.383 546.57 253.829 546.57 253.504C546.57 253.178 546.57 252.918 546.57 252.723C546.505 252.137 546.505 251.811 546.57 251.746C546.635 251.681 546.668 251.583 546.668 251.453C546.668 250.802 546.635 250.444 546.57 250.379C546.57 250.314 546.57 250.249 546.57 250.184C546.701 249.728 546.766 249.37 546.766 249.109C546.831 248.849 546.863 248.589 546.863 248.328C546.993 247.417 547.026 246.505 546.961 245.594C546.961 244.682 546.928 243.706 546.863 242.664C546.408 242.534 545.984 242.501 545.594 242.566C545.203 242.566 544.747 242.566 544.227 242.566C543.771 242.566 543.217 242.501 542.566 242.371L539.832 242.273C539.181 242.143 538.823 242.111 538.758 242.176C538.693 242.176 538.595 242.176 538.465 242.176C537.944 242.176 537.651 242.176 537.586 242.176C537.586 242.111 537.521 242.078 537.391 242.078C537.13 242.078 536.902 242.078 536.707 242.078C536.577 242.078 536.447 242.013 536.316 241.883C535.796 242.013 535.307 242.046 534.852 241.98C534.396 241.915 533.973 241.883 533.582 241.883C533.387 241.883 533.191 241.915 532.996 241.98C532.866 242.046 532.703 242.078 532.508 242.078C532.378 242.078 532.15 242.078 531.824 242.078C531.499 242.078 531.271 242.111 531.141 242.176C530.88 242.176 530.652 242.208 530.457 242.273C530.262 242.273 530.034 242.273 529.773 242.273C529.513 242.339 529.253 242.436 528.992 242.566C528.797 242.632 528.536 242.599 528.211 242.469C527.495 242.339 527.137 242.306 527.137 242.371C527.137 242.371 527.104 242.371 527.039 242.371C526.974 242.371 526.811 242.371 526.551 242.371C526.355 242.306 526.128 242.273 525.867 242.273C525.477 241.753 525.216 241.362 525.086 241.102C524.956 240.841 524.826 240.548 524.695 240.223C524.37 239.962 524.109 239.637 523.914 239.246C523.719 238.855 523.458 238.53 523.133 238.27C523.003 238.009 522.872 237.781 522.742 237.586C522.612 237.326 522.482 237.098 522.352 236.902C522.156 236.577 521.928 236.219 521.668 235.828C521.408 235.372 521.277 235.112 521.277 235.047C521.342 234.917 521.342 234.819 521.277 234.754C520.822 234.168 520.561 233.81 520.496 233.68C520.496 233.549 520.464 233.419 520.398 233.289C520.073 232.573 519.812 232.15 519.617 232.02C519.422 231.889 519.324 231.661 519.324 231.336C518.803 230.815 518.543 230.522 518.543 230.457C518.478 230.262 518.413 230.099 518.348 229.969C518.283 229.839 518.283 229.643 518.348 229.383C518.478 228.862 518.543 228.569 518.543 228.504C518.608 228.374 518.641 228.243 518.641 228.113C518.771 227.462 518.836 227.007 518.836 226.746C518.836 226.421 518.999 226.193 519.324 226.062C519.454 225.802 519.585 225.607 519.715 225.477C519.845 225.346 519.975 225.184 520.105 224.988C520.301 224.663 520.431 224.435 520.496 224.305C520.561 224.109 520.626 223.947 520.691 223.816C521.408 222.97 521.863 222.286 522.059 221.766C522.449 221.31 522.677 221.082 522.742 221.082C522.872 221.017 522.938 220.952 522.938 220.887C523.263 220.366 523.458 220.073 523.523 220.008C523.654 219.943 523.784 219.845 523.914 219.715L524.5 218.738C524.826 218.217 525.053 217.924 525.184 217.859C525.314 217.729 525.411 217.599 525.477 217.469C525.737 216.948 526.03 216.59 526.355 216.395C526.681 215.743 526.876 215.418 526.941 215.418C527.007 215.353 527.072 215.255 527.137 215.125C527.527 214.474 527.723 214.181 527.723 214.246C527.723 214.246 527.788 214.214 527.918 214.148C528.113 213.823 528.243 213.628 528.309 213.562C528.374 213.497 528.471 213.4 528.602 213.27C528.732 213.139 528.829 212.977 528.895 212.781C528.96 212.521 529.122 212.391 529.383 212.391C529.773 211.74 530.034 211.349 530.164 211.219C530.359 211.089 530.522 210.926 530.652 210.73L531.238 209.656L532.605 208.191C533.061 207.54 533.322 207.215 533.387 207.215C533.712 206.629 533.908 206.336 533.973 206.336C534.038 206.271 534.103 206.206 534.168 206.141C534.428 205.49 534.559 205.164 534.559 205.164C534.624 205.164 534.656 205.132 534.656 205.066C534.786 204.936 534.917 204.741 535.047 204.48C535.242 204.22 535.438 204.025 535.633 203.895C535.633 203.569 535.73 203.374 535.926 203.309C536.186 203.178 536.316 202.951 536.316 202.625L537 201.746C537.26 201.421 537.423 201.16 537.488 200.965C537.618 200.704 537.749 200.477 537.879 200.281C538.204 199.63 538.4 199.272 538.465 199.207C538.595 199.142 538.693 199.044 538.758 198.914L539.539 198.035C539.669 197.905 539.767 197.742 539.832 197.547C539.897 197.286 540.027 197.124 540.223 197.059C540.548 196.342 540.743 195.952 540.809 195.887C540.874 195.757 540.939 195.626 541.004 195.496C541.395 194.975 541.59 194.682 541.59 194.617C541.655 194.487 541.753 194.389 541.883 194.324C542.143 193.738 542.306 193.413 542.371 193.348C542.827 192.697 543.087 192.306 543.152 192.176C543.413 191.72 543.576 191.492 543.641 191.492C543.706 191.427 543.771 191.329 543.836 191.199C544.096 190.613 544.259 190.32 544.324 190.32C544.454 190.255 544.585 190.19 544.715 190.125C545.04 189.93 545.366 189.832 545.691 189.832C546.017 189.832 546.375 189.832 546.766 189.832C547.352 189.897 547.645 189.897 547.645 189.832C547.71 189.767 547.807 189.734 547.938 189.734C548.133 189.734 548.328 189.767 548.523 189.832C548.719 189.897 548.882 189.93 549.012 189.93C549.467 189.995 549.891 190.027 550.281 190.027C550.737 189.962 551.225 189.897 551.746 189.832C552.072 189.832 552.397 189.832 552.723 189.832C553.113 189.832 553.471 189.799 553.797 189.734C554.188 189.734 554.448 189.734 554.578 189.734C554.773 189.669 554.936 189.669 555.066 189.734C555.587 189.734 556.043 189.734 556.434 189.734C556.889 189.669 557.378 189.637 557.898 189.637C558.68 189.572 559.135 189.539 559.266 189.539C559.396 189.474 559.591 189.474 559.852 189.539C560.503 189.93 560.958 190.19 561.219 190.32C561.479 190.451 561.674 190.874 561.805 191.59C561.74 192.241 561.707 192.632 561.707 192.762C561.772 192.827 561.805 192.924 561.805 193.055C561.805 193.25 561.772 193.445 561.707 193.641C561.707 193.836 561.707 193.999 561.707 194.129C561.707 194.454 561.674 194.715 561.609 194.91C561.609 195.04 561.577 195.203 561.512 195.398C561.512 196.115 561.512 196.473 561.512 196.473C561.512 196.668 561.479 196.863 561.414 197.059C561.414 197.254 561.414 197.449 561.414 197.645C561.349 198.816 561.316 199.63 561.316 200.086C561.382 200.477 561.349 200.9 561.219 201.355C561.219 201.941 561.251 202.299 561.316 202.43C561.382 202.56 561.414 202.69 561.414 202.82V204.383C561.479 204.904 561.479 205.359 561.414 205.75C561.349 206.141 561.349 206.596 561.414 207.117C561.479 207.768 561.512 208.387 561.512 208.973C561.512 209.493 561.577 210.014 561.707 210.535C561.512 211.251 561.447 211.837 561.512 212.293C561.577 212.684 561.609 213.074 561.609 213.465C561.609 213.725 561.609 213.953 561.609 214.148C561.609 214.344 561.609 214.507 561.609 214.637L561.805 220.203C561.87 220.398 561.87 220.659 561.805 220.984C561.805 221.245 561.805 221.538 561.805 221.863L562.098 225.184C562.163 225.509 562.195 225.867 562.195 226.258C562.26 226.583 562.358 226.909 562.488 227.234ZM545.887 213.66C545.431 214.246 545.171 214.637 545.105 214.832C545.04 215.027 544.943 215.19 544.812 215.32C544.682 215.451 544.552 215.581 544.422 215.711C544.292 215.841 544.161 215.971 544.031 216.102C543.38 216.818 542.957 217.371 542.762 217.762C542.566 218.087 542.306 218.38 541.98 218.641C541.915 218.901 541.818 219.096 541.688 219.227C541.557 219.357 541.46 219.52 541.395 219.715C540.874 220.236 540.581 220.529 540.516 220.594C540.516 220.659 540.483 220.757 540.418 220.887C539.962 221.473 539.669 221.863 539.539 222.059C539.474 222.189 539.376 222.352 539.246 222.547C538.335 223.328 537.684 224.044 537.293 224.695C536.772 225.216 536.479 225.542 536.414 225.672C536.349 225.802 536.284 225.932 536.219 226.062C535.828 226.453 535.6 226.746 535.535 226.941C536.056 227.267 536.447 227.397 536.707 227.332C537.033 227.267 537.326 227.234 537.586 227.234C538.237 227.43 538.562 227.527 538.562 227.527C538.562 227.462 538.595 227.43 538.66 227.43H540.125H541.297H542.371C542.957 227.56 543.348 227.625 543.543 227.625C543.803 227.56 544.064 227.527 544.324 227.527C544.585 227.527 544.812 227.495 545.008 227.43C545.203 227.365 545.398 227.332 545.594 227.332C545.854 227.332 546.082 227.397 546.277 227.527C546.538 227.592 546.798 227.56 547.059 227.43C547.124 227.234 547.124 227.072 547.059 226.941C547.059 226.746 547.059 226.518 547.059 226.258L547.156 224.305V223.23C547.026 222.645 546.961 222.352 546.961 222.352C547.026 222.286 547.059 222.221 547.059 222.156C547.059 221.57 547.026 221.277 546.961 221.277C546.896 221.212 546.863 221.115 546.863 220.984C546.928 220.398 546.961 220.073 546.961 220.008C547.026 219.943 547.059 219.845 547.059 219.715C546.993 219.064 546.961 218.641 546.961 218.445C547.026 218.185 547.059 217.99 547.059 217.859C547.059 216.883 547.026 216.264 546.961 216.004C546.896 215.678 546.863 215.385 546.863 215.125C546.928 214.604 546.896 214.083 546.766 213.562L545.887 213.66Z" fill="black"/>
</svg>
