<?xml version="1.0" encoding="utf-8"?>
<svg width="93px" height="92px" viewBox="0 0 93 92" version="1.1" xmlns:xlink="http://www.w3.org/1999/xlink" xmlns="http://www.w3.org/2000/svg">
  <g id="headphone">
    <path d="M0 4.60465L0 28.3953C0 30.9375 2.09534 33 4.67797 33L7.79661 33C10.3792 33 12.4746 30.9375 12.4746 28.3953L12.4746 27.0523L18.322 27.0523C20.9047 27.0523 23 24.9898 23 22.4477L23 10.5523C23 8.01017 20.9047 5.94767 18.322 5.94767L12.4746 5.94767L12.4746 4.60465C12.4746 2.0625 10.3792 0 7.79661 0L4.67797 0C2.09534 0 0 2.0625 0 4.60465Z" transform="translate(68 33)" id="Path" fill="#D6F4FC" stroke="none" />
    <path d="M5 10C7.76142 10 10 7.76142 10 5C10 2.23858 7.76142 0 5 0C2.23858 0 0 2.23858 0 5C0 7.76142 2.23858 10 5 10Z" transform="translate(55 80)" id="Oval" fill="#42434D" stroke="none" />
    <path d="M12 28.3953C12 30.9375 9.98438 33 7.5 33L4.5 33C2.01563 33 0 30.9375 0 28.3953L0 4.60465C0 2.0625 2.01563 0 4.5 0L7.5 0C9.98438 0 12 2.0625 12 4.60465L12 28.3953Z" transform="translate(69 33)" id="Path" fill="#FFFFFF" stroke="none" />
    <path d="M23 4.60465L23 28.3953C23 30.9375 20.9047 33 18.322 33L15.2034 33C12.6208 33 10.5254 30.9375 10.5254 28.3953L10.5254 27.0523L4.67797 27.0523C2.09534 27.0523 0 24.9898 0 22.4477L0 10.5523C0 8.01017 2.09534 5.94767 4.67797 5.94767L10.5254 5.94767L10.5254 4.60465C10.5254 2.0625 12.6208 0 15.2034 0L18.322 0C20.9047 0 23 2.0625 23 4.60465Z" transform="translate(2 33)" id="Path" fill="#D6F4FC" stroke="none" />
    <path d="M12 4.60465L12 28.3953C12 30.9375 9.98438 33 7.5 33L4.5 33C2.01563 33 0 30.9375 0 28.3953C0 27.0867 0 5.41967 0 4.60465C0 2.0625 2.01563 0 4.5 0L7.5 0C9.98438 0 12 2.0625 12 4.60465Z" transform="translate(12 33)" id="Path" fill="#FFCE34" stroke="none" />
    <path d="M11.9435 3.54586C12.214 4.65282 11.4815 5.73133 10.425 5.87001C7.68455 6.22939 5.66373 8.71734 5.66373 11.5876L5.66373 29.0517C5.66373 32.8773 0 33.0935 0 29.0323L0 4.70794C0 2.10778 2.02856 0 4.53098 0L7.55164 0C9.66798 0 11.4456 1.50772 11.9435 3.54586Z" transform="translate(12 33)" id="Path" fill="#FFCE34" stroke="none" />
    <path d="M11.9435 3.54567C12.214 4.65262 11.4815 5.73113 10.4251 5.86982C7.68443 6.22919 5.66364 8.71734 5.66364 11.5876L5.66364 29.0517C5.66364 32.8773 0 33.0935 0 29.0323L0 4.70794C0 2.10778 2.02853 0 4.53091 0L7.55152 0C9.66802 -0.000196164 11.4455 1.50752 11.9435 3.54567Z" transform="translate(69 33)" id="Path" fill="#D8F4FF" stroke="none" />
    <path d="M11 0L11 3.73069L8.96309 3.73069C6.26316 3.73069 4.0745 5.73594 4.0745 8.20827C4.0745 11.8584 4.07246 14.3815 4.07165 16.136C4.07043 18.5248 0.144073 18.6656 0.00760036 16.2802C-0.00319528 16.0942 0.000674855 4.2916 0.000674855 4.47683C0.000674855 2.00432 2.18934 1.06033e-14 4.88926 1.06033e-14L11 0Z" transform="translate(2 41)" id="Path" fill="#E8F8FC" stroke="none" />
    <path d="M0 0L4 0L4 21L0 21L0 0Z" transform="translate(81 40)" id="Path" fill="#BDEFFC" stroke="none" />
    <path d="M3.1 44.3537L3.1 56.3621C3.1 58.0708 4.49074 59.4611 6.2 59.4611C7.05599 59.4611 7.75 60.1548 7.75 61.0105C7.75 61.8662 7.05599 62.56 6.2 62.56C2.78128 62.56 0 59.7797 0 56.3621L0 44.3537C0 40.9361 2.78128 38.1558 6.2 38.1558C7.05599 38.1558 7.75 38.8496 7.75 39.7053C7.75 40.561 7.05599 41.2547 6.2 41.2547C4.49074 41.2547 3.1 42.645 3.1 44.3537ZM86.8 38.1558C85.944 38.1558 85.25 38.8496 85.25 39.7053C85.25 40.561 85.944 41.2547 86.8 41.2547C88.5093 41.2547 89.9 42.645 89.9 44.3537L89.9 56.3621C89.9 58.0708 88.5093 59.4611 86.8 59.4611C85.944 59.4611 85.25 60.1548 85.25 61.0105C85.25 61.8662 85.944 62.56 86.8 62.56C90.2187 62.56 93 59.7797 93 56.3621L93 44.3537C93 40.9361 90.2187 38.1558 86.8 38.1558ZM19.375 30.2147L19.375 32.1516L19.7625 32.1516C23.1812 32.1516 25.9625 34.9319 25.9625 38.3495L25.9625 62.3663C25.9625 65.7839 23.1812 68.5642 19.7625 68.5642L16.6625 68.5642C13.2438 68.5642 10.4625 65.7839 10.4625 62.3663L10.4625 38.3495C10.4625 35.0623 13.0363 32.3656 16.275 32.1649L16.275 30.2147C16.275 13.5542 29.8338 0 46.5 0C63.1662 0 76.725 13.5542 76.725 30.2147L76.725 32.1649C79.9637 32.3658 82.5375 35.0623 82.5375 38.3495L82.5375 62.3663C82.5375 65.7839 79.7562 68.5642 76.3375 68.5642L73.2375 68.5642C69.8188 68.5642 67.0375 65.7839 67.0375 62.3663L67.0375 38.3495C67.0375 34.9319 69.8188 32.1516 73.2375 32.1516L73.625 32.1516L73.625 30.2147C73.625 15.2631 61.4567 3.09895 46.5 3.09895C31.5433 3.09895 19.375 15.2631 19.375 30.2147ZM76.3375 35.2505L73.2375 35.2505C71.5282 35.2505 70.1375 36.6408 70.1375 38.3495L70.1375 62.3663C70.1375 64.075 71.5282 65.4653 73.2375 65.4653L76.3375 65.4653C78.0468 65.4653 79.4375 64.075 79.4375 62.3663L79.4375 38.3495C79.4375 36.6408 78.0468 35.2505 76.3375 35.2505ZM16.6625 35.2505C14.9532 35.2505 13.5625 36.6408 13.5625 38.3495L13.5625 62.3663C13.5625 64.075 14.9532 65.4653 16.6625 65.4653L19.7625 65.4653C21.4718 65.4653 22.8625 64.075 22.8625 62.3663L22.8625 38.3495C22.8625 36.6408 21.4718 35.2505 19.7625 35.2505L16.6625 35.2505ZM88.5437 68.3705C88.5437 78.6232 80.1999 86.9642 69.9437 86.9642L67.0452 86.9642C66.3462 89.8499 63.742 92 60.6438 92C57.0113 92 54.0563 89.0459 54.0563 85.4147C54.0563 81.7835 57.0113 78.8295 60.6438 78.8295C63.7422 78.8295 66.3462 80.9796 67.0452 83.8653L69.9437 83.8653C78.4904 83.8653 85.4438 76.9143 85.4438 68.3705C85.4438 67.5148 86.1378 66.8211 86.9938 66.8211C87.8497 66.8211 88.5437 67.5148 88.5437 68.3705ZM64.1312 85.4147C64.1312 83.4924 62.5667 81.9284 60.6437 81.9284C58.7208 81.9284 57.1563 83.4924 57.1563 85.4147C57.1563 87.3371 58.7208 88.9011 60.6437 88.9011C62.5667 88.9011 64.1312 87.3371 64.1312 85.4147ZM60.388 51.7925C60.6277 50.9709 60.1557 50.1106 59.334 49.8712C58.5125 49.631 57.6517 50.1032 57.412 50.9246C56.0067 55.7415 51.5195 59.1058 46.5 59.1058C41.4805 59.1058 36.9935 55.7415 35.588 50.9246C35.3483 50.1034 34.4879 49.6304 33.666 49.8712C32.8441 50.1106 32.3723 50.9709 32.612 51.7925C34.4007 57.9232 40.1117 62.205 46.5 62.205C52.8883 62.205 58.5993 57.9234 60.388 51.7925L60.388 51.7925ZM36.6833 36.6708C38.3747 36.6708 39.7509 38.0467 39.7509 39.7376C39.7509 41.4285 38.3747 42.8042 36.6833 42.8042C34.9918 42.8042 33.6156 41.4285 33.6156 39.7376C33.6156 38.0467 34.9918 36.6708 36.6833 36.6708ZM36.6511 39.7376C36.6511 39.7734 36.7156 39.7732 36.7156 39.7376C36.7156 39.702 36.6511 39.702 36.6511 39.7376ZM56.3167 36.7677C57.9549 36.7677 59.2875 38.1 59.2875 39.7376C59.2875 41.3752 57.9549 42.7074 56.3167 42.7074C54.6786 42.7074 53.346 41.3752 53.346 39.7376C53.346 38.1 54.6786 36.7677 56.3167 36.7677ZM56.1875 39.7376C56.1875 39.9081 56.4458 39.9081 56.4458 39.7376C56.4458 39.5666 56.1875 39.5666 56.1875 39.7376Z" id="Shape" fill="#000000" stroke="none" />
  </g>
</svg>