<?xml version="1.0" encoding="utf-8"?>
<svg width="143px" height="143px" viewBox="0 0 143 143" version="1.1" xmlns:xlink="http://www.w3.org/1999/xlink" xmlns="http://www.w3.org/2000/svg">
  <defs>
    <path d="M83.4251 2.03134L98.1522 101.532Q98.1608 101.59 98.1626 101.648Q98.1643 101.707 98.1592 101.765Q98.1542 101.823 98.1423 101.881Q98.1305 101.938 98.1121 101.993Q98.0936 102.049 98.0688 102.102Q98.0441 102.155 98.0133 102.204Q97.9825 102.254 97.9461 102.3Q97.9097 102.346 97.8682 102.387Q97.8268 102.428 97.7808 102.464Q97.7348 102.5 97.6849 102.531Q97.635 102.561 97.5819 102.586Q97.5288 102.61 97.4732 102.628Q97.4176 102.646 97.3602 102.658Q97.3029 102.669 97.2446 102.674Q97.1863 102.679 97.1279 102.677Q97.0695 102.675 97.0117 102.666L1.88439 87.99Q1.85081 87.9849 1.81765 87.9774Q1.78449 87.97 1.75192 87.9603Q1.71934 87.9506 1.6875 87.9387Q1.65566 87.9268 1.6247 87.9128Q1.59374 87.8988 1.56381 87.8827Q1.53387 87.8666 1.5051 87.8485Q1.47632 87.8305 1.44885 87.8105Q1.42137 87.7905 1.39531 87.7686Q1.36926 87.7468 1.34475 87.7233Q1.32023 87.6997 1.29738 87.6746Q1.27452 87.6494 1.25343 87.6228Q1.23234 87.5962 1.2131 87.5681Q1.19387 87.5401 1.17658 87.5109Q1.1593 87.4816 1.14404 87.4512Q1.12878 87.4209 1.11563 87.3895Q1.10247 87.3582 1.09147 87.326Q1.08047 87.2939 1.07168 87.261Q1.0629 87.2282 1.05636 87.1949Q1.04982 87.1615 1.04557 87.1278Q1.04132 87.0941 1.03936 87.0602Q1.03741 87.0262 1.03777 86.9922Q1.03812 86.9583 1.04079 86.9244Q1.04345 86.8905 1.04842 86.8569Q1.05338 86.8232 1.06061 86.79Q1.06785 86.7569 1.07732 86.7242Q1.0868 86.6916 1.09847 86.6597Q1.11014 86.6277 1.12395 86.5967Q1.13777 86.5656 1.15366 86.5356Q1.16955 86.5056 1.18744 86.4767Q1.20534 86.4478 1.22516 86.4202Q1.24498 86.3926 1.26663 86.3664Q1.28827 86.3402 1.31165 86.3155L81.7118 1.49038Q81.7358 1.46504 81.7616 1.44143Q81.7873 1.41783 81.8146 1.39608Q81.8419 1.37433 81.8707 1.35454Q81.8995 1.33475 81.9295 1.31702Q81.9596 1.29929 81.9909 1.2837Q82.0221 1.26811 82.0544 1.25474Q82.0866 1.24137 82.1197 1.23029Q82.1528 1.2192 82.1867 1.21046Q82.2205 1.20171 82.2548 1.19535Q82.2891 1.18898 82.3238 1.18503Q82.3585 1.18108 82.3934 1.17956Q82.4283 1.17804 82.4632 1.17896Q82.4981 1.17988 82.5328 1.18323Q82.5676 1.18659 82.602 1.19236Q82.6365 1.19813 82.6704 1.2063Q82.7044 1.21446 82.7377 1.22497Q82.771 1.23549 82.8034 1.2483Q82.8359 1.26111 82.8674 1.27616Q82.8989 1.29121 82.9293 1.30842Q82.9597 1.32563 82.9888 1.34492Q83.0179 1.36422 83.0456 1.38549Q83.0733 1.40677 83.0994 1.42993Q83.1255 1.45308 83.15 1.47801Q83.1745 1.50293 83.1971 1.52951Q83.2198 1.55608 83.2405 1.58417Q83.2613 1.61225 83.28 1.64172Q83.2987 1.67119 83.3153 1.70189Q83.332 1.7326 83.3464 1.76439Q83.3609 1.79618 83.373 1.8289Q83.3852 1.86162 83.3951 1.89511Q83.405 1.9286 83.4125 1.9627Q83.42 1.9968 83.4251 2.03134L83.4251 2.03134Z" transform="matrix(-0.70710677 -0.70710677 0.70710677 -0.70710677 70.16061 142.92761)" id="path_1" />
    <clipPath id="mask_1">
      <use xlink:href="#path_1" />
    </clipPath>
  </defs>
  <g id="Triangle-line-shape">
    <g id="Rectangle-8" transform="matrix(1 -1.7484555E-07 1.7484555E-07 1 0 0)">
      <path d="M83.4251 2.03134L98.1522 101.532Q98.1608 101.59 98.1626 101.648Q98.1643 101.707 98.1592 101.765Q98.1542 101.823 98.1423 101.881Q98.1305 101.938 98.1121 101.993Q98.0936 102.049 98.0688 102.102Q98.0441 102.155 98.0133 102.204Q97.9825 102.254 97.9461 102.3Q97.9097 102.346 97.8682 102.387Q97.8268 102.428 97.7808 102.464Q97.7348 102.5 97.6849 102.531Q97.635 102.561 97.5819 102.586Q97.5288 102.61 97.4732 102.628Q97.4176 102.646 97.3602 102.658Q97.3029 102.669 97.2446 102.674Q97.1863 102.679 97.1279 102.677Q97.0695 102.675 97.0117 102.666L1.88439 87.99Q1.85081 87.9849 1.81765 87.9774Q1.78449 87.97 1.75192 87.9603Q1.71934 87.9506 1.6875 87.9387Q1.65566 87.9268 1.6247 87.9128Q1.59374 87.8988 1.56381 87.8827Q1.53387 87.8666 1.5051 87.8485Q1.47632 87.8305 1.44885 87.8105Q1.42137 87.7905 1.39531 87.7686Q1.36926 87.7468 1.34475 87.7233Q1.32023 87.6997 1.29738 87.6746Q1.27452 87.6494 1.25343 87.6228Q1.23234 87.5962 1.2131 87.5681Q1.19387 87.5401 1.17658 87.5109Q1.1593 87.4816 1.14404 87.4512Q1.12878 87.4209 1.11563 87.3895Q1.10247 87.3582 1.09147 87.326Q1.08047 87.2939 1.07168 87.261Q1.0629 87.2282 1.05636 87.1949Q1.04982 87.1615 1.04557 87.1278Q1.04132 87.0941 1.03936 87.0602Q1.03741 87.0262 1.03777 86.9922Q1.03812 86.9583 1.04079 86.9244Q1.04345 86.8905 1.04842 86.8569Q1.05338 86.8232 1.06061 86.79Q1.06785 86.7569 1.07732 86.7242Q1.0868 86.6916 1.09847 86.6597Q1.11014 86.6277 1.12395 86.5967Q1.13777 86.5656 1.15366 86.5356Q1.16955 86.5056 1.18744 86.4767Q1.20534 86.4478 1.22516 86.4202Q1.24498 86.3926 1.26663 86.3664Q1.28827 86.3402 1.31165 86.3155L81.7118 1.49038Q81.7358 1.46504 81.7616 1.44143Q81.7873 1.41783 81.8146 1.39608Q81.8419 1.37433 81.8707 1.35454Q81.8995 1.33475 81.9295 1.31702Q81.9596 1.29929 81.9909 1.2837Q82.0221 1.26811 82.0544 1.25474Q82.0866 1.24137 82.1197 1.23029Q82.1528 1.2192 82.1867 1.21046Q82.2205 1.20171 82.2548 1.19535Q82.2891 1.18898 82.3238 1.18503Q82.3585 1.18108 82.3934 1.17956Q82.4283 1.17804 82.4632 1.17896Q82.4981 1.17988 82.5328 1.18323Q82.5676 1.18659 82.602 1.19236Q82.6365 1.19813 82.6704 1.2063Q82.7044 1.21446 82.7377 1.22497Q82.771 1.23549 82.8034 1.2483Q82.8359 1.26111 82.8674 1.27616Q82.8989 1.29121 82.9293 1.30842Q82.9597 1.32563 82.9888 1.34492Q83.0179 1.36422 83.0456 1.38549Q83.0733 1.40677 83.0994 1.42993Q83.1255 1.45308 83.15 1.47801Q83.1745 1.50293 83.1971 1.52951Q83.2198 1.55608 83.2405 1.58417Q83.2613 1.61225 83.28 1.64172Q83.2987 1.67119 83.3153 1.70189Q83.332 1.7326 83.3464 1.76439Q83.3609 1.79618 83.373 1.8289Q83.3852 1.86162 83.3951 1.89511Q83.405 1.9286 83.4125 1.9627Q83.42 1.9968 83.4251 2.03134L83.4251 2.03134Z" transform="matrix(-0.70710677 -0.70710677 0.70710677 -0.70710677 70.16061 142.92761)" id="Rectangle" fill="none" fill-rule="evenodd" stroke="none" />
      <g clip-path="url(#mask_1)">
        <g id="Group-34" transform="matrix(0.81915206 -0.57357645 0.57357645 0.81915206 -43.81993 51.92502)">
          <path d="M0 0L2.26015 0L2.26015 132.298L0 132.298L0 0Z" transform="translate(0.12011709 1.3202807)" id="Rectangle" fill="#0FD8F7" fill-rule="evenodd" stroke="none" />
          <path d="M0 0L2.26015 0L2.26015 132.298L0 132.298L0 0Z" transform="translate(11.915518 1.5883405)" id="Rectangle" fill="#0FD8F7" fill-rule="evenodd" stroke="none" />
          <path d="M0 0L2.26015 0L2.26015 132.298L0 132.298L0 0Z" transform="translate(21.561018 1.157687)" id="Rectangle-Copy-3" fill="#0FD8F7" fill-rule="evenodd" stroke="none" />
          <path d="M0 0L2.26015 0L2.26015 132.298L0 132.298L0 0Z" transform="translate(33.35618 1.4257469)" id="Rectangle-Copy-4" fill="#0FD8F7" fill-rule="evenodd" stroke="none" />
          <path d="M0 0L2.26015 0L2.26015 132.298L0 132.298L0 0Z" transform="translate(45.15182 1.6938066)" id="Rectangle-Copy-5" fill="#0FD8F7" fill-rule="evenodd" stroke="none" />
          <path d="M0 0L2.26015 0L2.26015 132.298L0 132.298L0 0Z" transform="translate(54.79732 1.2631532)" id="Rectangle-Copy-6" fill="#0FD8F7" fill-rule="evenodd" stroke="none" />
          <path d="M0 0L2.26015 0L2.26015 132.298L0 132.298L0 0Z" transform="translate(66.59272 1.5312129)" id="Rectangle-Copy-7" fill="#0FD8F7" fill-rule="evenodd" stroke="none" />
          <path d="M0 0L2.26015 0L2.26015 132.298L0 132.298L0 0Z" transform="translate(77.81171 0.07470523)" id="Rectangle-Copy-8" fill="#0FD8F7" fill-rule="evenodd" stroke="none" />
          <path d="M0 0L2.26015 0L2.26015 132.298L0 132.298L0 0Z" transform="translate(88.959404 2.0165527)" id="Rectangle-Copy-9" fill="#0FD8F7" fill-rule="evenodd" stroke="none" />
          <path d="M0 0L2.26015 0L2.26015 132.298L0 132.298L0 0Z" transform="translate(99.829025 1.636191)" id="Rectangle-Copy-10" fill="#0FD8F7" fill-rule="evenodd" stroke="none" />
          <path d="M0 0L2.26015 0L2.26015 132.298L0 132.298L0 0Z" transform="translate(111.04777 0.18017145)" id="Rectangle-Copy-11" fill="#0FD8F7" fill-rule="evenodd" stroke="none" />
          <path d="M0 0L2.26015 0L2.26015 132.298L0 132.298L0 0Z" transform="translate(121.27017 1.473109)" id="Rectangle-Copy-12" fill="#0FD8F7" fill-rule="evenodd" stroke="none" />
          <path d="M0 0L2.26015 0L2.26015 132.298L0 132.298L0 0Z" transform="translate(133.41444 0.66599953)" id="Rectangle-Copy-13" fill="#0FD8F7" fill-rule="evenodd" stroke="none" />
          <path d="M0 0L2.26015 0L2.26015 132.298L0 132.298L0 0Z" transform="translate(143.78578 1.6596278)" id="Rectangle-Copy-14" fill="#0FD8F7" fill-rule="evenodd" stroke="none" />
        </g>
      </g>
    </g>
  </g>
</svg>