<?xml version="1.0" encoding="utf-8"?>
<svg width="169px" height="238px" viewBox="0 0 169 238" version="1.1" xmlns:xlink="http://www.w3.org/1999/xlink" xmlns="http://www.w3.org/2000/svg">
  <g id="Group-207" transform="translate(-68.06201 0)">
    <g id="Group-206" transform="translate(108.15497 67.87842)">
      <path d="M11.5676 26.3672C5.05359 21.1602 2.46725 13.4755 0.227992 5.63211C-0.192988 4.15865 -0.134767 2.225 1.3006 1.40213C3.1435 0.348029 5.23945 -0.513384 7.52349 0.359363C9.75602 1.21398 11.281 2.92547 12.8037 4.65509C13.9457 5.95628 14.9086 7.47962 16.2364 8.53825C19.2796 10.9661 19.4072 14.1488 18.5966 17.4289C17.9853 19.9044 16.8612 22.2642 15.849 24.6217C15.1616 26.2312 13.8539 26.8954 11.5676 26.3672" transform="translate(97.099304 0)" id="Fill-77" fill="#282A3B" fill-rule="evenodd" stroke="none" />
      <path d="M3.24779 0C4.80014 1.81048 6.20331 3.56718 7.7362 5.19168C8.81938 6.3434 10.0539 7.34723 11.2647 8.36226C12.7932 9.6417 13.4008 11.4074 12.9121 13.2134C12.2289 15.7431 11.1609 18.1698 10.1339 20.5875C9.9177 21.0984 9.18477 21.3762 8.74587 21.719C3.41859 18.8621 -0.883883 8.28384 0.156061 0.434694C1.11817 0.300253 2.16244 0.152367 3.24779 0" transform="translate(0 148.06836)" id="Fill-85" fill="#282A3B" fill-rule="evenodd" stroke="none" />
      <path d="M9.15872 17.9924C6.62776 18.5309 5.50583 16.9356 4.68206 15.3919C3.62859 13.4219 2.90641 11.2567 2.16214 9.1319C1.51063 7.26961 0.98279 5.3602 0.492499 3.44854C0.22306 2.39175 0.147971 1.28335 0 0.314055C1.67185 -0.520611 2.36532 0.489066 3.20235 1.2452C5.92987 3.69311 8.68831 6.10063 11.6808 8.74374C12.4627 11.9792 10.9101 14.9746 9.15872 17.9924" transform="translate(116.039185 129.58838)" id="Fill-106" fill="#282A3B" fill-rule="evenodd" stroke="none" />
    </g>
    <path d="M72.4818 118.297C69.9943 118.57 67.5179 117.923 64.7411 118.841C66.9152 121.681 69.7467 122.654 72.381 123.796C74.8881 121.541 74.9035 120.591 72.4818 118.297ZM36.9454 107.927C33.6931 105.797 31.5125 102.854 27.3288 103.049C27.4603 103.982 27.3157 104.886 27.6948 105.33C29.7571 107.738 32.0911 109.843 35.3368 111.442C35.8935 110.228 36.3537 109.215 36.9454 107.927ZM21.1464 85.341C21.2165 86.125 21.1289 86.567 21.2998 86.8402C22.7945 89.1967 24.2519 91.5843 25.9175 93.8142C26.3536 94.3983 27.4713 94.4583 28.0345 94.6693C29.9806 93.35 29.9499 91.793 29.6519 90.1628C27.6729 88.5837 25.718 87.0178 23.6185 85.341C23.0158 85.341 22.2071 85.341 21.1464 85.341ZM45.1682 102.014C43.6911 99.962 41.9619 99.4489 40.0378 99.5533C38.7535 99.6222 37.1712 98.9336 36.3932 100.675C37.3312 104.417 40.338 106.749 44.1206 106.285C44.4625 104.893 44.8439 103.338 45.1682 102.014ZM71.0594 135.141C52.8015 134.801 38.3086 130.657 25.6325 121.031C-3.18662 99.1402 -8.44639 58.4621 13.6359 28.9203C19.9125 20.5248 27.6532 13.8951 36.9827 9.25312C48.2145 3.66502 60.0008 -0.0285391 72.6067 0.000334206C77.3405 0.0114393 82.1795 0.615558 86.7774 1.74828C98.1144 4.54455 108.627 9.52186 117.532 17.1444C136.127 33.0625 142.954 53.2627 137.008 77.3764C134.799 86.3315 131.082 94.787 126.256 102.665C112.964 124.36 93.3192 134.459 71.0594 135.141L71.0594 135.141Z" id="Fill-226" fill="#E7AB4E" fill-rule="evenodd" stroke="none" />
  </g>
</svg>