<?xml version="1.0" encoding="utf-8"?>
<svg width="187px" height="136px" viewBox="0 0 187 136" version="1.1" xmlns:xlink="http://www.w3.org/1999/xlink" xmlns="http://www.w3.org/2000/svg">
  <g id="Group-206" transform="translate(-154.58997 0)">
    <path d="M8.32151 5.58929C8.35168 8.10748 7.08255 9.67989 4.97955 9.73114C2.47578 9.79637 0.0754293 7.25488 0.00216908 4.45715C-0.0667817 1.90401 1.51478 0.0450677 3.79662 0.000807187C6.34564 -0.0504419 8.28488 2.34429 8.32151 5.58929" transform="translate(260.46176 89.60156)" id="Fill-167" fill="#E7AB4E" fill-rule="evenodd" stroke="none" />
    <path d="M8.6578 8.40348C5.63841 8.89681 3.15717 7.71374 1.07514 5.86604C-0.931906 4.08457 0.0385336 0.743178 2.60138 0.131085C4.94146 -0.428479 6.61106 0.87793 7.94321 2.63427C9.16949 4.25358 10.3737 5.98023 8.6578 8.40348" transform="translate(273.53928 72.57031)" id="Fill-168" fill="#E7AB4E" fill-rule="evenodd" stroke="none" />
    <path d="M7.13316 7.67301C6.90971 8.02614 6.55556 9.20548 5.83883 9.54973C5.11999 9.89842 3.84041 9.72296 3.15741 9.23435C1.31709 7.92176 0.0796764 5.96065 0.00167908 3.5931C-0.0341575 2.52703 0.507608 1.13449 1.24753 0.426001C2.23831 -0.522351 3.43989 0.301627 4.3885 1.06564C5.82197 2.22054 7.13738 5.11668 7.13316 7.67301" transform="translate(309.2051 111.5)" id="Fill-170" fill="#E7AB4E" fill-rule="evenodd" stroke="none" />
    <path d="M5.32764 8.51582C2.12418 8.29366 0.368371 6.70187 0.0354086 3.78789C-0.119698 2.42042 0.2174 1.2298 1.39207 0.451163C2.60191 -0.349049 3.73728 0.00899745 4.81889 0.79411C7.70801 2.89278 7.90862 5.37969 5.32764 8.51582" transform="translate(266.4061 107.84961)" id="Fill-172" fill="#E7AB4E" fill-rule="evenodd" stroke="none" />
    <path d="M6.29744 8.48275C2.54511 8.88389 -0.668311 5.56288 0.120012 2.48255C0.478544 1.0849 1.62317 0.136946 3.10852 0.0144934C4.67403 -0.118516 6.16828 0.668984 6.63148 2.17009C7.2706 4.24968 7.43761 6.37361 6.29744 8.48275" transform="translate(253.32858 64.05469)" id="Fill-173" fill="#E7AB4E" fill-rule="evenodd" stroke="none" />
    <path d="M7.13221 5.17378C7.10006 7.13877 5.75868 8.49511 3.8316 8.51563C1.60822 8.53842 -0.0294577 6.5666 0.000401785 3.8995C0.0279643 1.5903 1.48648 -0.0555539 3.45721 0.00143536C5.57263 0.0607042 7.17815 2.32204 7.13221 5.17378" transform="translate(302.07193 65.27051)" id="Fill-174" fill="#E7AB4E" fill-rule="evenodd" stroke="none" />
    <path d="M7.13307 4.5599C7.14618 6.1811 5.96363 7.34455 4.34609 7.29792C2.2433 7.24071 0.0377637 5.07699 0.000604118 3.03831C-0.0299979 1.26877 1.10446 0.056578 2.84878 0.00147851C4.97344 -0.0663363 7.11121 2.2097 7.13307 4.5599" transform="translate(288.99448 109.06641)" id="Fill-175" fill="#E7AB4E" fill-rule="evenodd" stroke="none" />
    <path d="M7.13317 5.38638C6.49308 6.31843 6.02735 7.58105 5.12342 8.16874C3.94877 8.9332 2.52635 8.35239 1.77384 7.22981C0.982323 6.05901 0.268815 4.69079 0.0416855 3.32257C-0.187738 1.93598 0.534947 0.611378 2.08356 0.156835C3.56563 -0.277048 4.87106 0.193566 5.62127 1.51587C6.23154 2.58795 6.54126 3.82991 7.13317 5.38638" transform="translate(280.6724 94.46777)" id="Fill-177" fill="#E7AB4E" fill-rule="evenodd" stroke="none" />
    <path d="M5.94431 5.24381C5.6921 6.70235 5.25535 7.75288 4.18295 8.28987C3.06544 8.85031 2.11606 8.30394 1.37379 7.35659C0.192714 5.85349 -0.2953 4.01272 0.180411 2.08519C0.383409 1.25743 1.13799 0.167035 1.77774 0.0333738C2.54872 -0.128426 3.78926 0.314765 4.24241 1.00183C5.04415 2.2165 5.40093 3.81105 5.94431 5.24381" transform="translate(316.3383 132.18066)" id="Fill-178" fill="#E7AB4E" fill-rule="evenodd" stroke="none" />
    <path d="M3.75683 6.08027C1.54872 6.0096 -0.120315 4.43051 0.00680426 2.52897C0.115091 0.879212 1.38629 -0.105786 3.26012 0.00905661C5.2705 0.134942 7.21966 1.95255 7.13021 3.61777C7.05017 5.11073 5.63773 6.1399 3.75683 6.08027" transform="translate(334.17123 93.25098)" id="Fill-180" fill="#E7AB4E" fill-rule="evenodd" stroke="none" />
    <path d="M5.94403 3.74594C5.92285 5.30378 5.1709 6.07647 3.66699 6.0827C1.67378 6.09101 -0.0758368 4.42931 0.00253593 2.6056C0.0703177 1.07683 1.33275 -0.0863563 2.82184 0.00503716C4.52485 0.11097 5.96733 1.84121 5.94403 3.74594" transform="translate(271.16153 47.02246)" id="Fill-181" fill="#E7AB4E" fill-rule="evenodd" stroke="none" />
    <path d="M4.34285 7.15573C3.73771 7.45964 2.36174 7.25781 1.99129 6.76831C1.08702 5.57588 0.283986 4.14217 0.0124744 2.69455C-0.12098 1.98234 0.843116 0.73655 1.62544 0.256329C2.61714 -0.351486 3.80443 0.182092 4.38887 1.22141C4.99862 2.31409 5.36447 3.54596 5.94431 4.9843C5.4174 5.74987 5.05155 6.79847 4.34285 7.15573Z" transform="translate(308.01627 44.589844)" id="Fill-182" fill="#E7AB4E" fill-rule="evenodd" stroke="none" />
    <path d="M5.94431 5.76871C2.32666 6.74476 0.0116381 5.36166 2.81826e-05 2.78087C-0.00461579 1.45744 0.564271 0.453677 2.0039 0.102041C3.4505 -0.249595 4.67419 0.32581 5.12697 1.54694C5.61227 2.85972 5.67961 4.29823 5.94431 5.76871" transform="translate(293.7499 82.302734)" id="Fill-183" fill="#E7AB4E" fill-rule="evenodd" stroke="none" />
    <path d="M5.94426 3.03447C5.95357 4.65714 4.67786 6.05444 3.16703 6.08234C1.57937 6.11024 0.0871648 4.64426 0.00335898 2.98081C-0.073463 1.38389 1.17664 0.0552755 2.80853 0.00161572C4.4893 -0.0541904 5.93495 1.34311 5.94426 3.03447" transform="translate(267.59494 78.65332)" id="Fill-184" fill="#E7AB4E" fill-rule="evenodd" stroke="none" />
    <path d="M4.56419 4.25678C3.17528 5.28473 1.94069 4.9191 0.850772 3.85354C-0.161979 2.8632 -0.335594 1.11234 0.684391 0.466743C1.30651 0.0718599 2.42777 -0.118269 3.14875 0.0781279C4.63171 0.487636 5.04646 2.0024 4.56419 4.25678" transform="translate(329.4158 71.353516)" id="Fill-186" fill="#E7AB4E" fill-rule="evenodd" stroke="none" />
    <path d="M2.95124 4.86619C1.17348 4.70113 0.239957 3.82554 0.0207813 2.49906C-0.0948945 1.80462 0.286633 0.784103 0.810218 0.305042C1.2161 -0.0653247 2.383 -0.103569 2.85991 0.218489C3.33885 0.542559 3.57832 1.50068 3.56615 2.17499C3.55194 3.0526 3.18462 3.92014 2.95124 4.86619" transform="translate(243.81772 54.322266)" id="Fill-187" fill="#E7AB4E" fill-rule="evenodd" stroke="none" />
    <path d="M144.006 44.248C143.273 47.0929 142.458 49.5734 142.013 52.1163C140.141 62.7868 137.153 73.1834 134.383 83.6322C132.171 91.989 129.975 100.355 127.559 108.655C126.566 112.068 125.01 115.316 123.716 118.64C122.806 120.972 121.26 122.196 118.71 121.655C114.103 119.177 111.708 114.575 108.774 110.541C100.404 99.0227 92.2288 87.3585 83.9046 75.8086C81.663 72.7007 79.1842 69.7655 76.7404 66.8167C76.0583 65.9954 75.1103 65.4048 73.9196 64.404C73.023 65.9107 72.1878 67.0256 71.6448 68.2722C67.9904 76.6507 64.3775 85.0468 60.7886 93.4561C55.0539 106.889 49.3628 120.345 43.6149 133.774C42.0145 137.514 41.2541 138.161 38.3987 138.745C34.4856 136.476 31.5306 133.048 29.019 129.352C20.3843 116.649 11.923 103.828 3.47714 90.993C2.05685 88.8347 1.04714 86.3981 8.34069e-15 84.3888C0.498836 82.0569 2.13174 81.8317 3.54599 81.5966C5.39806 81.2922 7.31179 81.2988 8.7398 82.8699C11.135 85.5053 13.627 88.0578 15.8508 90.8344C19.8815 95.8649 23.7452 101.032 27.6771 106.141C30.2389 109.472 32.803 112.8 35.3605 116.135C35.6427 116.507 35.8722 116.92 36.3751 117.702C37.8915 114.141 39.1073 111.115 40.454 108.149C44.6734 98.8662 48.9561 89.6143 53.1798 80.3382C55.5653 75.1013 57.8176 69.8052 60.2619 64.5991C61.6656 61.6124 63.2329 58.6892 64.9353 55.8654C65.5756 54.8073 66.6837 53.7932 67.8018 53.3218C69.8408 52.4691 72.0163 51.8314 74.1901 51.4739C77.1872 50.9827 79.629 52.7325 81.7233 54.451C84.2943 56.5626 86.651 59.0492 88.6786 61.709C97.3948 73.1609 105.948 84.7362 114.588 96.2465C115.081 96.9065 115.793 97.394 116.676 98.2119C117.229 96.3779 117.799 94.6685 118.257 92.933C121.081 82.208 123.952 71.4984 126.651 60.7453C128.068 55.0958 129.054 49.3421 130.447 43.6861C131.253 40.4137 132.371 37.2018 133.555 34.0429C134.312 32.0276 135.795 30.4685 137.924 29.9C140.864 29.1133 143.844 28.4864 145.929 27.9983C153.535 30.5433 157.381 36.0487 161.285 41.4248C166.88 49.1312 172.246 57.0168 177.902 64.6783C183.046 71.651 188.443 78.4264 193.979 85.6148C195.415 81.8649 196.984 78.359 198.109 74.7177C201.271 64.4802 204.302 54.1989 207.289 43.9068C209.815 35.2057 212.849 26.6973 216.372 18.3507C217.181 16.4285 218.423 15.2601 220.396 14.8127C222.284 14.3857 224.159 13.9032 226.047 13.4763C226.402 13.3986 226.892 13.3201 227.147 13.4988C229.378 15.0608 232.275 15.5111 233.925 18.0907C237.645 23.9127 241.433 29.6988 245.366 35.375C251.75 44.5871 258.253 53.7141 264.75 62.8433C265.763 64.2655 267.013 65.5106 268.519 67.2658C269.502 64.0347 270.397 61.2333 271.203 58.408C275.611 42.9581 279.966 27.4928 284.422 12.0559C285.202 9.34866 286.376 6.7548 287.358 4.10644C287.929 2.55935 289.065 1.61403 290.542 1.11607C291.949 0.645204 293.423 -0.0707381 294.825 0.00564473C296.687 0.103815 298.509 0.867334 300.309 1.33291C300.676 4.54066 300.548 7.30639 299.758 10.096C296.711 20.86 293.761 31.6502 290.747 42.423C287.127 55.3681 284.46 68.599 279.315 81.0881C278.386 83.3402 277.238 85.5357 275.951 87.6031C273.764 91.1171 271.326 91.3804 267.997 89.0173C262.527 85.1319 257.999 80.2644 254.168 74.8212C245.799 62.9401 237.684 50.8751 229.5 38.8617C228.298 37.1002 227.281 35.2087 225.905 32.9211C225.174 34.9674 224.474 36.5841 224.014 38.2663C221.633 46.9666 219.343 55.6931 216.967 64.3979C214.364 73.9225 211.343 83.3139 207.789 92.5304C205.924 97.3639 204.216 102.263 202.17 107.018C200.446 111.032 198.671 113.553 193.525 109.628C189.507 106.56 186.746 102.469 183.803 98.5202C178.016 90.7504 172.333 82.9 166.724 74.9935C161.497 67.6232 156.457 60.116 151.263 52.721C149.545 50.2752 147.62 47.9841 145.746 45.6593C145.363 45.1832 144.788 44.8707 144.006 44.248" transform="matrix(0.9659258 -0.25881904 0.25881904 0.9659258 0 77.77637)" id="Fill-122" fill="#282A3B" fill-rule="evenodd" stroke="none" />
  </g>
</svg>