<?xml version="1.0" encoding="utf-8"?>
<svg width="115px" height="286px" viewBox="0 0 115 286" version="1.1" xmlns:xlink="http://www.w3.org/1999/xlink" xmlns="http://www.w3.org/2000/svg">
  <g id="Group-205">
    <path d="M205.323 238.141C206.701 237.243 207.737 236.759 208.531 236.012C210.478 234.182 212.311 232.23 214.191 230.328C216.132 228.358 218.232 226.517 219.985 224.388C223.192 220.493 226.271 216.486 229.261 212.416C233.018 207.301 235.863 201.642 238.365 195.808C240.081 191.805 241.785 187.793 243.321 183.717C245.128 178.922 246.482 173.978 246.997 168.854C247.41 164.773 249.748 161.066 248.948 156.703C248.623 154.949 249.401 153.002 249.571 151.132C249.821 148.404 250.071 145.672 250.133 142.935C250.17 141.202 249.759 139.46 249.736 137.718C249.683 133.605 249.81 129.506 248.85 125.436C248.28 123.023 248.212 120.49 247.853 118.021C247.624 116.454 247.263 114.908 246.981 113.351C246.726 111.943 246.645 110.483 246.221 109.13C244.983 105.179 243.591 101.278 242.312 97.3394C241.918 96.1324 241.837 94.807 241.353 93.6467C240.281 91.0784 238.999 88.6017 237.888 86.0496C237.055 84.1314 236.428 82.1199 235.578 80.2107C234.753 78.3608 233.867 76.5198 232.809 74.801C231.474 72.6207 229.876 70.6091 228.512 68.4467C227.512 66.8662 226.689 65.1708 225.828 63.5058C224.646 61.2231 223.128 59.26 221.325 57.3994C219.163 55.1687 217.562 52.3956 215.532 50.0177C213.704 47.8768 211.709 45.8581 209.638 43.9525C206.474 41.0412 203.192 38.2627 199.941 35.4501C197.44 33.2877 195.147 30.8451 192.088 29.4191C191.624 29.2036 191.227 28.8264 190.819 28.4977C189.477 27.4111 188.279 26.0425 186.782 25.2685C182.552 23.0773 178.616 20.3204 174.079 18.7094C172.341 18.0897 170.865 16.6906 169.119 16.1069C165.831 15.006 162.761 13.5063 159.735 11.8324C158.8 11.3133 157.505 10.8338 156.562 11.0799C154.628 11.5863 153.106 10.6165 151.414 10.2375C150.123 9.94836 149.042 9.19583 147.638 9.00725C144.258 8.55465 140.927 7.68717 137.593 6.9059C134.743 6.23957 131.908 5.76183 128.943 5.83187C125.547 5.9109 122.142 5.5966 118.743 5.40262C117.478 5.33078 116.206 4.92668 114.961 5.01828C112.732 5.18171 110.519 5.58582 108.307 5.92706C106.842 6.15516 105.294 6.21443 103.947 6.76581C101.662 7.70333 99.2669 7.96017 96.9356 7.84522C93.7575 7.68896 90.9462 8.82226 88.0321 9.64484C85.1215 10.4656 82.2907 11.6115 79.3482 12.2598C77.481 12.6711 75.8141 13.298 74.1825 14.2696C72.2693 15.4065 70.3118 16.5613 68.2285 17.2779C67.0558 17.682 66.0868 18.2478 65.1089 18.9195C64.0602 19.6397 63.0894 20.685 61.9291 20.9885C59.5801 21.6028 57.8919 23.1725 56.0159 24.4962C55.2789 25.017 54.5934 25.6133 53.8316 26.0892C50.8378 27.9679 47.9449 29.974 45.3851 32.4472C43.3125 34.4497 41.1814 36.3877 39.0839 38.3615C37.2876 40.0497 35.4187 41.6644 33.7322 43.4604C31.8208 45.4935 30.0546 47.6703 28.2743 49.8273C27.369 50.9265 26.3929 52.0274 25.7534 53.2865C24.4177 55.923 22.857 58.3243 20.9651 60.6286C19.0554 62.9581 17.5036 65.7491 16.4265 68.585C14.4477 73.7935 11.686 78.6679 10.2032 84.0955C9.1439 87.9767 7.04822 91.4394 6.57168 95.6511C6.12881 99.5718 5.10134 103.493 4.30417 107.401C3.49814 111.348 3.45386 115.296 3.20053 119.233C2.88875 124.05 3.12613 128.905 3.1279 133.743C3.1279 134.28 3.10133 134.822 3.16333 135.354C3.49991 138.341 3.85244 141.326 4.21737 144.309C4.51675 146.759 4.69567 149.237 5.18638 151.648C5.83297 154.818 6.76301 157.926 7.51412 161.075C7.85956 162.531 7.86488 164.103 8.38038 165.482C9.66826 168.933 10.3715 172.607 12.205 175.851C12.4229 176.237 12.492 176.708 12.6585 177.128C13.8419 180.111 14.6444 183.252 16.5611 185.923C17.5124 187.248 18.2139 188.77 18.9597 190.239C19.8047 191.904 20.4407 193.691 21.4026 195.28C23.5391 198.808 25.7587 202.288 28.0599 205.71C32.1255 211.757 36.8501 217.265 41.8793 222.497C44.0671 224.776 46.4215 226.894 48.7563 229.024C50.2567 230.391 51.8263 231.686 53.4242 232.937C55.9627 234.927 58.4906 236.944 61.1373 238.785C64.5173 241.135 67.9894 243.353 71.4686 245.556C72.3402 246.111 73.4243 246.311 74.3402 246.805C77.4261 248.473 80.3544 250.517 83.575 251.83C88.5901 253.874 93.4245 256.43 98.7762 257.615C101.451 258.208 104.025 259.246 106.686 259.921C108.342 260.339 110.077 260.42 111.767 260.715C113.818 261.076 115.852 261.546 117.907 261.884C120.116 262.245 122.337 262.538 124.559 262.802C126.268 263.003 127.988 263.262 129.699 263.236C134.371 263.166 139.04 262.944 143.71 262.811C147.831 262.694 151.902 262.358 155.85 260.997C157.25 260.515 158.754 260.338 160.212 260.041C162.828 259.512 165.501 259.283 168.003 258.181C170.029 257.288 172.144 256.606 174.228 255.851C176.805 254.919 179.413 254.064 181.962 253.062C183.064 252.627 184.056 251.9 185.101 251.314C186.591 250.479 188.194 249.797 189.558 248.787C192.398 246.688 195.408 244.96 198.554 243.374C201.199 242.043 203.893 240.581 205.323 238.141ZM5.55662 168.67C5.26787 166.127 5.073 163.322 4.59115 160.568C4.27406 158.751 3.40071 157.037 3.03224 155.225C2.2829 151.533 1.51938 147.827 1.09777 144.088C0.297052 137.033 -0.301713 129.941 0.162419 122.832C0.320082 120.404 0.114588 118.006 0.139389 115.596C0.15179 114.585 0.12876 113.556 0.298824 112.568C1.34401 106.485 2.31833 100.385 3.59026 94.3508C4.01365 92.341 4.29354 90.2487 5.35113 88.3305C6.1607 86.8614 6.19436 84.9773 6.78958 83.3609C8.01014 80.0472 9.37773 76.7892 10.678 73.5043C11.5655 71.2665 12.2936 68.9478 13.3512 66.7962C15.0447 63.364 16.7471 59.9048 18.8216 56.7061C21.353 52.7997 23.7375 48.7551 27.2131 45.5276C28.6303 44.2147 29.5551 42.372 30.8908 40.9496C34.2318 37.3952 37.858 34.0977 41.0202 30.3925C43.029 28.0379 45.7961 26.7071 47.7979 24.5554C50.7014 21.4304 54.3205 19.514 57.8352 17.4468C62.7653 14.548 67.9274 12.0551 72.9992 9.40417C74.5723 8.58159 76.1312 7.70154 77.7769 7.06215C78.9425 6.61315 80.2712 6.61853 81.4793 6.25214C84.3031 5.39903 86.9709 4.04483 90.064 4.10051C91.1499 4.12026 92.2128 3.1073 93.3501 2.86484C95.3873 2.42661 97.4741 2.23803 99.5344 1.90397C102.994 1.3454 106.431 0.596461 109.908 0.231868C112.206 -0.0087999 114.557 0.267788 116.884 0.336037C117.558 0.355793 118.257 0.619809 118.895 0.495883C122.153 -0.141706 125.384 -0.186606 128.649 0.490495C129.668 0.702426 130.766 0.494087 131.823 0.537192C132.486 0.564132 133.145 0.714998 133.807 0.790431C137.125 1.1676 140.445 1.53758 143.763 1.90936C143.839 1.91834 143.921 1.89678 143.99 1.91654C147.556 2.93668 151.127 3.93886 154.685 4.99133C156.178 5.43136 157.643 5.97017 159.115 6.48024C161.507 7.31 163.928 8.06972 166.275 9.01443C168.329 9.8424 170.286 10.9074 172.306 11.8252C175.56 13.3033 178.832 14.7384 182.088 16.2093C182.488 16.3889 182.865 16.6386 183.22 16.9026C185.014 18.2478 186.816 19.5158 188.858 20.5234C190.632 21.3998 192.031 23.0288 193.67 24.2214C195.546 25.5882 197.525 26.8077 199.417 28.1529C200.637 29.0204 201.835 29.9363 202.949 30.9385C206.212 33.875 209.459 36.8295 212.648 39.8432C214.595 41.6841 216.407 43.6705 218.317 45.551C219.888 47.0992 221.372 48.6994 222.29 50.7594C222.441 51.0953 222.708 51.3952 222.972 51.6611C225.681 54.4 228.094 57.2916 229.883 60.8262C231.502 64.0285 233.925 66.8033 235.86 69.853C236.731 71.2252 237.197 72.8524 237.986 74.2874C239.362 76.7892 241.142 79.0702 241.936 81.8882C242.179 82.7539 242.446 83.6177 242.783 84.4493C243.295 85.7047 243.778 86.9907 244.457 88.1545C245.642 90.193 246.289 92.4021 246.82 94.6705C246.937 95.1805 247.079 95.6852 247.215 96.1899C247.879 98.6541 249.247 100.881 249.305 103.572C249.33 104.689 250.186 105.772 250.583 106.9C250.903 107.819 251.357 108.796 251.309 109.721C251.153 112.688 252.457 115.346 252.834 118.193C253.217 121.083 254.041 123.886 253.886 126.882C253.801 128.524 254.466 130.207 254.793 131.87C254.854 132.166 254.992 132.464 254.974 132.753C254.873 134.51 254.63 136.265 254.645 138.019C254.659 140.282 255.176 142.576 254.937 144.796C254.498 148.862 254.896 153.002 253.773 157.021C253.394 158.377 253.661 159.918 253.638 161.377C253.617 162.821 253.548 164.18 252.953 165.606C252.273 167.241 252.211 169.134 251.812 170.899C251.25 173.388 250.7 175.887 250 178.34C249.594 179.772 248.907 181.12 248.351 182.509C247.964 183.473 247.506 184.416 247.222 185.411C246.014 189.623 244.822 193.833 242.274 197.479C242.104 197.721 241.881 197.994 241.865 198.263C241.598 202.184 239.323 205.119 237.211 208.138C237.08 208.325 236.901 208.497 236.841 208.704C235.932 211.854 233.633 214.133 231.9 216.761C230.949 218.205 229.814 219.527 228.719 220.866C227.07 222.887 225.116 224.708 223.789 226.921C222.326 229.363 220.338 231.034 218.116 232.611C217.16 233.291 216.292 234.204 215.62 235.177C213.339 238.484 209.994 240.493 206.887 242.807C205.746 243.654 204.69 244.624 203.541 245.459C202.283 246.374 200.995 247.261 199.657 248.046C196.556 249.863 193.409 251.602 190.292 253.392C187.693 254.883 185.142 256.473 182.495 257.874C181.461 258.421 180.242 258.705 179.073 258.879C176.883 259.203 174.94 260.101 173.053 261.187C172.926 261.261 172.835 261.458 172.71 261.478C170.148 261.898 167.898 263.314 165.259 263.626C162.019 264.009 158.835 264.892 155.625 265.543C152.784 266.119 149.939 266.699 147.085 267.215C146.599 267.301 146.064 267.035 145.547 267.005C144.66 266.952 143.701 266.733 142.888 266.978C138.963 268.156 135.032 267.868 131.069 267.312C130.052 267.17 129.007 267.252 127.974 267.245C122.683 267.213 117.501 266.266 112.275 265.573C109.588 265.214 107.382 263.579 104.783 263.461C101.728 263.319 99.0561 261.968 96.2164 261.155C94.8116 260.753 93.4334 260.244 92.064 259.727C89.8355 258.885 87.6211 257.999 85.405 257.121C84.7973 256.88 84.1986 256.611 83.6033 256.34C81.9789 255.602 80.3261 254.919 78.7477 254.096C75.1781 252.236 71.6582 250.282 68.0939 248.408C65.2152 246.894 62.8273 244.7 60.2338 242.785C59.2754 242.077 58.0779 241.693 57.1478 240.955C53.6899 238.207 50.0034 235.757 46.9299 232.51C43.3089 228.686 39.5923 224.952 35.8315 221.272C34.0617 219.541 32.563 217.664 31.3531 215.491C30.9032 214.684 29.8172 214.259 29.2787 213.481C26.6799 209.733 24.0138 206.017 21.6684 202.111C19.0607 197.771 16.3982 193.421 15.0501 188.432C14.8995 187.872 14.4584 187.39 14.1413 186.878C11.8401 183.173 10.5575 179.023 9.26436 174.91C8.52564 172.561 7.14033 170.743 5.55662 168.67L5.55662 168.67Z" transform="translate(0.3966086 17.478222)" id="Fill-203" fill="#FAD8CA" fill-rule="evenodd" stroke="none" />
    <path d="M120.989 0.94413C120.394 0.425969 120.238 0.289706 120.068 0.140892C120.162 0.0924823 120.268 -0.0115083 120.355 0.00104232C121.232 0.144478 122.156 0.173165 122.966 0.495894C124.154 0.967438 125.254 1.13239 126.422 0.504859C127.307 0.0297294 128.152 -0.137014 129.201 0.336322C129.936 0.668017 130.915 0.447485 131.785 0.463621C132.162 0.472586 132.589 0.338115 132.913 0.472586C135.002 1.34754 137.177 0.798901 139.346 0.9262C139.307 2.28525 140.271 2.53805 141.196 2.23863C143.298 1.55194 145.326 2.43406 147.397 2.3749C148.621 2.33904 149.841 3.2642 151.104 3.4148C154.39 3.80387 157.484 4.76309 160.502 6.0827C161.239 6.40543 162.082 6.47177 162.881 6.64927C166.918 7.54574 170.63 9.21856 174.125 11.4328C174.75 11.8291 175.469 12.0729 176.212 12.419C176.406 12.1411 176.589 11.8829 176.807 11.5709C177.581 12.2576 177.962 13.6399 179.423 13.1505C179.572 13.1021 179.894 13.2581 179.986 13.4105C181.029 15.155 182.997 15.3038 184.582 15.9242C186.915 16.8404 189.035 17.9699 190.902 19.6786C191.513 19.5638 192.139 19.4473 192.814 19.3218C193.226 20.7723 193.745 21.5522 195.437 21.9287C196.783 22.2317 198.163 23.6392 199.385 24.8315C200.619 26.0346 201.749 27.4671 203.772 28.0104C205.595 28.4981 207.189 30.1153 208.711 31.4403C211.107 33.5273 213.332 35.8186 215.68 37.9648C217.514 39.643 219.545 41.115 221.27 42.8954C223.107 44.7887 225.518 46.1012 226.76 48.631C227.195 49.5221 228.166 50.1532 228.924 50.8686C230.144 52.0215 230.872 53.4809 231.73 54.9027C232.665 56.4554 234.261 57.5885 235.481 58.9834C236.041 59.6253 236.392 60.459 236.741 61.2677C237.844 62.3165 238.797 63.2937 239.447 64.9324C240.473 67.5143 241.914 69.9491 244.038 72.0432C245.531 73.5152 247.203 75.4624 247.046 78.003C247.427 78.0263 247.643 78.0388 247.857 78.0532C247.914 78.1823 248.055 78.3454 248.018 78.4369C247.627 79.4391 248.006 80.3858 248.665 80.9344C250.036 82.0712 250.225 83.7834 251.04 85.1783C252.322 87.3729 252.604 89.978 254.023 92.1582C255.024 93.6984 255.505 95.5828 256.253 97.2986C256.295 97.3972 256.641 97.3614 256.912 97.399C256.294 99.6169 257.057 101.548 258.075 103.513C258.688 104.691 258.91 106.086 259.227 107.404C259.473 108.424 259.338 109.627 259.829 110.48C260.739 112.065 260.752 113.778 261.094 115.458C261.368 116.811 261.935 118.104 262.507 119.836C262.589 120.429 262.493 121.609 262.936 122.52C263.646 123.983 263.887 125.446 263.781 127.009C263.696 128.302 264.073 129.373 265.258 130.215C264.946 130.611 264.686 130.936 264.385 131.316C264.324 132.655 265.125 134.022 264.725 135.494C264.652 135.763 264.677 136.204 264.845 136.37C265.934 137.443 265.541 138.796 265.605 140.06C265.756 143.081 266.002 146.104 266 149.125C266 151.7 265.722 154.273 265.538 156.846C265.444 158.146 265.288 159.44 265.153 160.738C264.723 164.891 263.88 169.014 264.234 173.228C264.239 173.303 264.255 173.393 264.223 173.456C262.741 176.493 262.658 179.874 261.923 183.094C261.621 184.409 261.542 185.818 261.007 187.025C260.268 188.697 260.227 190.524 259.223 192.199C257.925 194.367 257.383 197.001 256.526 199.439C255.959 201.047 255.519 202.716 254.818 204.264C253.869 206.356 252.707 208.35 251.674 210.405C251.515 210.722 251.568 211.147 251.508 211.52C251.12 213.962 250.33 216.169 248.344 217.826C247.818 218.263 247.618 219.1 247.267 219.753C246.038 222.057 244.81 224.363 243.574 226.663C243.434 226.928 243.303 227.219 243.096 227.42C241.628 228.827 241.622 228.822 241.417 229.942C240.627 230.855 239.994 231.57 239.383 232.302C236.912 235.264 234.447 238.235 231.978 241.2C230.938 242.452 229.935 243.742 228.834 244.937C227.927 245.919 226.914 246.801 225.92 247.7C225.309 248.25 224.561 248.669 224.023 249.283C221.541 252.107 218.716 254.577 215.67 256.691C212.359 258.99 209.697 262.156 205.97 263.881C203.956 264.811 202.015 265.91 200.09 267.015C196.82 268.892 193.586 270.832 190.339 272.749C187.819 274.237 185.054 275.072 182.278 275.897C181.068 276.258 179.889 276.718 178.695 277.131C177.287 277.617 175.875 278.083 174.474 278.587C173.521 278.929 172.588 279.322 171.739 279.998C169.479 280.168 167.208 280.254 164.964 280.552C163.976 280.682 163.04 281.245 162.192 281.57C159.128 282.239 156.149 282.891 152.861 283.609C151.867 283.336 150.498 282.642 149.317 284.098C147.765 283.331 146.176 283.49 144.603 284.032C142.715 284.683 140.864 284.917 138.879 284.284C137.945 283.989 136.837 284.293 135.811 284.241C132.904 284.094 129.999 283.915 127.096 283.723C125.364 283.607 123.635 283.44 121.288 283.246C120.39 282.601 118.821 282.544 117.684 283.076C116.155 282.771 115.07 282.639 114.033 282.332C111.828 281.678 109.648 280.941 107.466 280.22C107.04 280.078 106.615 279.634 106.243 279.691C102.596 280.234 99.6862 277.783 96.312 277.258C95.5787 277.145 94.8295 277.034 94.1316 276.792C92.9608 276.387 91.5916 276.483 90.7113 275.291C90.4314 274.913 89.8274 274.698 89.3315 274.578C85.8262 273.724 82.6733 272.055 79.5081 270.384C78.4064 269.803 77.0921 269.64 75.9833 269.071C73.4026 267.746 70.7634 266.543 68.4271 264.725C67.0916 263.685 65.393 263.121 63.9866 262.213C63.2356 261.572 62.5572 260.804 61.7211 260.315C59.9658 259.291 58.2123 258.308 57.1053 256.415C55.249 256.336 53.8745 255.16 52.5319 254.02C50.8244 252.567 49.3029 250.93 47.2305 249.903C46.228 249.408 45.5159 248.3 44.6923 247.449C42.9352 245.632 41.2136 243.78 39.4334 241.987C37.3859 239.925 35.0762 238.084 33.2766 235.823C31.4203 233.49 29.0025 231.588 27.8052 228.694C27.4491 227.834 26.4023 227.292 25.8745 226.469C24.7887 224.775 23.9013 222.95 22.8173 221.254C21.7368 219.563 20.4385 218.017 19.374 216.319C17.7373 213.707 16.1928 211.034 14.666 208.353C13.961 207.118 13.3376 205.827 12.7796 204.52C12.5529 203.988 12.5919 203.339 12.7318 202.672C13.0524 203.398 13.3818 204.12 13.69 204.852C14.0354 205.673 14.271 206.557 14.7156 207.315C15.5127 208.671 16.5719 209.881 17.2715 211.279C19.351 215.441 22.6667 218.718 25.0296 222.69C27.4084 226.692 30.4975 230.175 33.7406 233.53C35.5562 235.407 37.2158 237.435 39.1005 239.271C45.5 245.498 52.1475 251.377 59.6045 256.325C63.813 259.121 68.018 261.88 72.3628 264.462C74.4937 265.729 76.8441 266.317 78.9183 267.61C83.1144 270.224 87.8206 271.748 92.2594 273.846C94.8047 275.049 97.559 275.166 100.143 276.062C102.37 276.835 104.64 277.489 106.922 278.074C108.867 278.572 110.852 278.915 112.825 279.289C113.849 279.483 114.912 279.506 115.916 279.768C118.325 280.392 120.739 280.84 123.247 280.706C123.892 280.672 124.549 281.016 125.212 281.088C127.073 281.285 128.94 281.541 130.805 281.575C134.706 281.651 138.61 281.638 142.51 281.59C148.924 281.513 155.254 280.774 161.491 279.173C164.946 278.284 168.464 277.643 171.953 276.889C172.449 276.783 173.002 276.763 173.424 276.519C177.409 274.226 182.021 273.593 186.113 271.673C190.452 269.633 195.084 268.128 198.777 264.749C200.348 263.311 202.479 262.506 204.339 261.381C206.794 259.895 209.573 258.966 211.559 256.671C212.42 255.675 213.636 254.92 214.812 254.289C218.314 252.402 220.489 249.075 223.327 246.471C224.03 245.828 224.604 244.999 225.387 244.487C227.654 242.997 229.156 240.852 230.674 238.676C231.794 237.069 232.961 235.466 234.316 234.068C237.6 230.681 240.005 226.652 242.526 222.724C244.587 219.507 246.497 216.156 248.112 212.692C250.624 207.308 252.971 201.831 255.105 196.282C256.37 192.995 257.105 189.501 258.052 186.092C258.536 184.36 259.213 182.632 259.356 180.864C259.613 177.717 260.408 174.734 261.306 171.743C261.593 170.784 261.62 169.732 261.671 168.719C261.85 165.219 261.986 161.717 262.139 158.217C262.153 157.911 262.07 157.554 262.194 157.307C263.526 154.68 262.548 152.034 262.36 149.382C262.222 147.456 262.417 145.511 262.339 143.58C262.25 141.36 262.045 139.144 261.85 136.932C261.669 134.895 261.483 132.856 261.214 130.83C260.959 128.887 260.598 126.959 260.279 125.025C259.838 122.348 259.416 119.669 258.938 116.999C258.78 116.116 258.563 115.224 258.229 114.396C256.391 109.826 254.862 105.166 253.909 100.318C253.738 99.4412 253.463 98.5214 252.994 97.7809C250.542 93.9297 249.448 89.4885 247.607 85.3755C246.656 83.2509 245.809 81.0528 244.624 79.0644C243.062 76.4485 241.202 74.0173 239.5 71.4874C238.836 70.5013 238.053 69.5349 237.665 68.4358C236.571 65.3466 234.548 62.9638 232.406 60.6096C230.94 58.996 229.633 57.2282 228.279 55.5105C224.716 50.9923 220.95 46.7108 216.274 43.2755C214.001 41.6045 212.136 39.3758 210.016 37.4807C207.228 34.9903 204.711 32.1969 201.314 30.4022C199.287 29.3318 197.621 27.5872 195.713 26.2605C192.962 24.3492 190.157 22.515 187.333 20.7095C186.6 20.2416 185.723 19.9995 184.908 19.6589C183.41 19.0349 181.894 18.4504 180.411 17.787C178.447 16.9067 176.516 15.9475 174.554 15.0582C171.691 13.7637 168.785 12.5696 165.954 11.2051C164.222 10.3696 162.458 10.0057 160.557 9.89808C159.167 9.81919 157.661 9.64707 156.444 9.03568C154.319 7.96888 152.03 7.74476 149.827 7.10826C147.089 6.31578 144.356 5.83169 141.525 5.77431C141.242 5.76714 140.926 5.65239 140.687 5.49282C139.313 4.57304 137.774 4.45112 136.188 4.4063C131.711 4.28079 127.233 4.13557 122.755 3.94372C121.342 3.88276 119.935 3.5421 118.524 3.53134C117.42 3.52238 116.313 3.81821 115.21 3.98854C114.327 4.12481 113.445 4.39016 112.565 4.39554C109.024 4.41526 105.593 4.88681 102.217 6.07015C100.802 6.56679 99.169 6.44487 97.6333 6.56321C96.629 6.6421 95.5681 6.45563 94.6258 6.72457C91.1913 7.69993 87.8117 8.86535 84.3844 9.8676C81.956 10.5794 79.4727 11.0958 77.0425 11.8004C75.9904 12.1034 74.9879 12.6126 74.0013 13.1074C70.9458 14.6422 67.9099 16.2146 64.8651 17.7709C64.3338 18.0416 63.7227 18.2102 63.2763 18.5831C61.4696 20.0945 59.4752 21.2008 57.2753 22.0471C56.1594 22.4756 55.1356 23.1587 54.2535 24.2398C53.205 25.5236 51.5205 26.2927 50.0769 27.2287C46.3644 29.6384 42.9317 32.4013 39.7257 35.4636C37.8092 37.2942 35.7687 38.9975 33.9426 40.9142C31.6506 43.3203 29.5162 45.8788 27.3216 48.38C26.0268 49.8592 24.8348 51.4441 23.4479 52.8265C21.4464 54.8202 20.0524 57.1475 18.9099 59.7221C18.0579 61.646 16.8801 63.421 15.4418 64.1328C13.977 66.7164 12.6592 68.7962 11.5876 70.9979C10.3778 73.4865 9.3292 76.063 8.32136 78.6448C7.33831 81.1585 6.52176 83.7422 4.85324 85.8238C4.05972 90.143 2.77024 94.1968 0 97.6626C0.609312 95.9485 1.26645 94.2488 1.81731 92.5168C2.20344 91.3084 2.33097 90.0085 2.77733 88.8288C4.02252 85.5333 5.38639 82.2845 6.67055 79.0034C7.02657 78.098 7.21964 77.1262 7.58629 76.2262C8.29302 74.4852 9.0086 72.7443 9.83578 71.0607C10.9995 68.6994 12.1986 66.3506 13.5111 64.07C14.6678 62.053 15.9732 60.122 17.2609 58.1838C18.1855 56.7907 19.482 55.5697 20.086 54.0546C20.9044 52.0035 23.0387 51.3437 24.0271 49.5006C24.9818 47.7184 26.1703 46.0169 27.5005 44.5001C29.1779 42.587 31.1334 40.9267 32.9152 39.1033C34.4916 37.4861 35.9742 35.7756 37.5382 34.144C38.9481 32.6756 40.1738 31.0907 42.0372 30.0059C43.936 28.8997 45.4469 27.1121 47.1384 25.6365C47.9815 24.9014 48.8176 24.1591 49.7085 23.4886C51.1521 22.4021 52.6187 21.3442 54.1136 20.3348C54.7176 19.926 55.4049 19.6015 56.0974 19.3702C57.8209 18.7964 59.3884 18.0201 60.7788 16.7758C61.6397 16.0048 62.7343 15.3701 63.8307 15.0187C66.0342 14.3105 67.2988 11.9295 69.876 11.8165C70.7953 11.7753 71.7075 10.8716 72.5701 10.2836C73.9251 9.35841 75.3067 8.67709 76.9841 8.41173C78.3568 8.19479 79.6409 7.40768 81.3165 6.73175C82.4891 7.06344 85.0627 6.39826 86.3469 4.75234C87.0625 4.83661 87.7781 4.94956 88.499 4.99618C89.1473 5.03742 89.7991 5.00335 90.5253 5.00335C90.5076 4.73979 90.4934 4.54256 90.4739 4.23597C93.253 3.46501 96.0959 2.67611 99.1549 1.82805C99.0875 2.31214 99.0415 2.64563 98.9458 3.32516C100.249 2.78548 101.394 2.31214 102.536 1.83881C102.499 1.76709 102.458 1.69717 102.421 1.62545C104.162 1.32782 105.905 1.03019 107.882 0.691325C107.889 0.705668 108.048 0.988953 108.305 1.44795C112.253 -0.106534 116.4 0.415212 120.989 0.94413" transform="translate(1.3966086 0.61703455)" id="Fill-204" fill="#FAD8CA" fill-rule="evenodd" stroke="none" />
  </g>
</svg>