<?xml version="1.0" encoding="utf-8"?>
<svg width="161px" height="150px" viewBox="0 0 161 150" version="1.1" xmlns:xlink="http://www.w3.org/1999/xlink" xmlns="http://www.w3.org/2000/svg">
  <g id="Group-209">
    <path d="M18.9594 12.3044C19.3659 21.7067 17.4414 27.2432 13.1837 28.9519C7.21469 25.8126 5.06171 19.8792 2.97683 13.9951C1.88056 10.9051 1.25884 7.63572 0.481126 4.43359C0.221889 3.36172 0.136209 2.24277 0 1.34133C2.17495 -0.533311 4.12582 -0.163316 6.22168 0.76055C10.1871 2.51186 13.2233 5.41351 16.0134 8.64929C16.9976 9.79066 17.9093 10.9971 18.9594 12.3044" id="Fill-76" fill="#282A3B" fill-rule="evenodd" stroke="none" />
    <path d="M0.659837 0.922569C4.16979 -1.28081 8.43144 0.759604 10.651 3.91398C11.0122 7.82291 9.05158 11.109 7.58579 14.4754C2.53488 14.5513 -1.67039 6.01913 0.659837 0.922569Z" transform="translate(150.16687 67.427246)" id="Fill-103" fill="#282A3B" fill-rule="evenodd" stroke="none" />
    <path d="M9.15425 17.9882C6.62452 18.5266 5.50314 16.9316 4.67977 15.3883C3.62682 13.4188 2.90499 11.2541 2.16108 9.12978C1.50989 7.26792 0.98231 5.35895 0.492259 3.44774C0.222951 2.39119 0.147898 1.28305 0 0.313982C1.67103 -0.52049 2.36417 0.488952 3.20078 1.24491C5.92697 3.69225 8.68406 6.09921 11.6751 8.7417C12.4566 11.9764 10.9047 14.9711 9.15425 17.9882" transform="translate(35.38977 131.25635)" id="Fill-106" fill="#282A3B" fill-rule="evenodd" stroke="none" />
  </g>
</svg>