<?xml version="1.0" encoding="utf-8"?>
<svg width="114px" height="328px" viewBox="0 0 114 328" version="1.1" xmlns:xlink="http://www.w3.org/1999/xlink" xmlns="http://www.w3.org/2000/svg">
  <path d="M253.717 327.827C229.251 328.575 204.903 326.817 180.612 324.057C164.122 322.186 147.716 319.732 131.528 315.969C106.433 310.135 82.1561 301.829 58.993 290.276C46.3468 283.969 34.4534 276.433 23.8463 266.907C17.6374 261.331 12.016 255.205 7.56974 248.028C-0.532477 234.956 -2.07869 221.041 2.68166 206.42C5.96342 196.34 11.5773 187.637 18.4068 179.722C26.3843 170.477 35.7817 162.954 45.7863 156.176C59.6346 146.797 74.5227 139.502 90.0329 133.573C108.634 126.461 127.331 119.615 146.015 112.729C155.692 109.161 165.323 105.484 174.711 101.169C185.429 96.2443 195.599 90.3967 204.559 82.5214C209.939 77.7937 214.743 72.4877 219.363 67.0016C226.457 58.5832 233.422 50.0464 240.65 41.7496C250.294 30.6805 261.252 21.1945 273.893 13.8254C288.355 5.39625 303.908 0.904005 320.515 0.133246C333.764 -0.480592 346.814 1.07939 359.78 3.72243C381.647 8.17775 403.014 14.3238 423.488 23.4622C453.892 37.0297 481.585 54.9448 506.224 77.7368C520.746 91.169 533.282 106.384 544.635 122.645C549.963 130.279 554.2 138.545 557.446 147.331C565.632 169.488 564.78 191.263 554.813 212.65C548.253 226.729 539.093 238.847 528.119 249.568C513.079 264.257 495.737 275.425 476.975 284.391C449.169 297.683 420.081 306.915 390.058 313.22C367.429 317.974 344.59 321.215 321.613 323.498C301.461 325.503 281.281 327.11 261.04 327.815C258.602 327.898 256.157 327.827 253.717 327.827" transform="translate(-449.9058 0)" id="Fill-10" fill="#B1D6C9" fill-rule="evenodd" stroke="none" />
</svg>