<?xml version="1.0" encoding="utf-8"?>
<svg width="146px" height="395px" viewBox="0 0 146 395" version="1.1" xmlns:xlink="http://www.w3.org/1999/xlink" xmlns="http://www.w3.org/2000/svg">
  <path d="M308.245 394.542C278.521 395.442 248.941 393.326 219.429 390.004C199.395 387.753 179.463 384.8 159.796 380.271C129.307 373.25 99.8131 363.253 71.6717 349.348C56.3076 341.759 41.8581 332.688 28.9713 321.224C21.428 314.514 14.5985 307.141 9.19663 298.504C-0.646917 282.771 -2.52544 266.024 3.25801 248.427C7.24508 236.296 14.0655 225.822 22.3627 216.296C32.0548 205.17 43.472 196.116 55.6267 187.959C72.4513 176.672 90.5392 167.892 109.383 160.756C131.982 152.196 154.697 143.957 177.397 135.67C189.154 131.376 200.854 126.951 212.26 121.757C225.282 115.831 237.637 108.793 248.523 99.315C255.059 93.6253 260.895 87.2394 266.509 80.6368C275.128 70.5053 283.589 60.2312 292.37 50.2459C304.087 36.9242 317.401 25.5077 332.758 16.6389C350.329 6.49443 369.224 1.08798 389.4 0.160363C405.496 -0.578395 421.351 1.29905 437.104 4.47997C463.67 9.84198 489.63 17.2388 514.503 28.2369C551.442 44.5655 585.088 66.1264 615.022 93.5568C632.664 109.722 647.895 128.034 661.688 147.605C668.161 156.792 673.309 166.74 677.252 177.314C687.198 203.98 686.163 230.186 674.054 255.926C666.083 272.869 654.955 287.454 641.622 300.357C623.35 318.036 602.281 331.476 579.487 342.266C545.705 358.264 510.365 369.375 473.89 376.962C446.396 382.683 418.649 386.584 390.734 389.332C366.252 391.745 341.734 393.68 317.143 394.528C314.18 394.628 311.21 394.542 308.245 394.542" id="Fill-10" fill="#FF72CA" fill-rule="evenodd" stroke="none" />
</svg>