<?xml version="1.0" encoding="utf-8"?>
<svg width="201px" height="456px" viewBox="0 0 201 456" version="1.1" xmlns:xlink="http://www.w3.org/1999/xlink" xmlns="http://www.w3.org/2000/svg">
  <g id="Group-212">
    <path d="M369.14 476.635C333.544 477.722 298.12 475.166 262.778 471.153C238.786 468.433 214.917 464.865 191.365 459.394C154.852 450.912 119.531 438.836 85.8307 422.038C67.4314 412.869 50.1273 401.911 34.6947 388.061C25.6612 379.955 17.4825 371.048 11.0135 360.614C-0.774717 341.608 -3.02435 321.376 3.90163 300.118C8.67637 285.463 16.8441 272.809 26.7806 261.301C38.3873 247.86 52.06 236.923 66.6159 227.067C86.7642 213.432 108.425 202.825 130.992 194.205C158.055 183.864 185.258 173.91 212.442 163.899C226.521 158.712 240.533 153.366 254.192 147.091C269.787 139.932 284.583 131.43 297.62 119.98C305.447 113.106 312.436 105.391 319.159 97.415C329.48 85.1754 339.613 72.7636 350.129 60.7006C364.16 44.6071 380.104 30.8151 398.495 20.101C419.537 7.84573 442.165 1.31435 466.327 0.19373C485.603 -0.698742 504.59 1.56934 523.456 5.41212C555.27 11.8898 586.358 20.8257 616.145 34.1121C660.381 53.8382 700.674 79.8855 736.521 113.023C757.649 132.552 775.889 154.674 792.406 178.317C800.158 189.416 806.323 201.434 811.046 214.208C822.956 246.422 821.717 278.081 807.215 309.177C797.67 329.646 784.343 347.265 768.377 362.853C746.495 384.209 721.264 400.446 693.966 413.482C653.51 432.808 611.189 446.231 567.508 455.397C534.583 462.309 501.355 467.021 467.925 470.341C438.606 473.255 409.244 475.593 379.796 476.617C376.248 476.738 372.691 476.635 369.14 476.635" transform="translate(0 13.489136)" id="Fill-10" fill="#B1D6C9" fill-rule="evenodd" stroke="none" />
    <path d="M0 1.70084C0.784465 1.11404 1.36159 0.686072 2.27858 0C5.24117 2.55236 8.20376 5.10694 11.1663 7.6593C12.6263 12.3802 11.8995 15.6672 8.74454 18.2482C6.8101 17.4761 5.24544 16.2672 4.18952 14.2575C2.14392 10.3727 0.818666 6.26068 0 1.70084" transform="translate(6.8603516 118.8468)" id="Fill-101" fill="#282A3B" fill-rule="evenodd" stroke="none" />
    <path d="M0.660157 0.930382C4.17181 -1.29165 8.43552 0.766037 10.6562 3.94713C11.0176 7.88916 9.05597 11.2031 7.58947 14.598C2.5361 14.6746 -1.6712 6.07011 0.660157 0.930382Z" transform="translate(105.77075 113.63025)" id="Fill-103" fill="#282A3B" fill-rule="evenodd" stroke="none" />
    <path d="M9.15872 18.1405C6.62776 18.6834 5.50583 17.075 4.68206 15.5186C3.62859 13.5324 2.90641 11.3494 2.16214 9.20709C1.51063 7.32946 0.98279 5.40433 0.492499 3.47693C0.22306 2.41144 0.147971 1.29391 0 0.316641C1.67185 -0.524897 2.36532 0.493093 3.20235 1.25545C5.92987 3.72351 8.68831 6.15085 11.6808 8.81573C12.4627 12.0778 10.9101 15.0979 9.15872 18.1405" transform="translate(99.937744 0)" id="Fill-106" fill="#282A3B" fill-rule="evenodd" stroke="none" />
  </g>
</svg>