<?xml version="1.0" encoding="utf-8"?>
<svg width="70px" height="137px" viewBox="0 0 70 137" version="1.1" xmlns:xlink="http://www.w3.org/1999/xlink" xmlns="http://www.w3.org/2000/svg">
  <path d="M72.4818 119.27C69.9943 119.546 67.5179 118.894 64.7411 119.819C66.9152 122.683 69.7467 123.664 72.381 124.815C74.8881 122.542 74.9035 121.584 72.4818 119.27ZM36.9454 108.815C33.6931 106.668 31.5125 103.701 27.3288 103.898C27.4603 104.838 27.3157 105.749 27.6948 106.197C29.7571 108.625 32.0911 110.748 35.3368 112.36C35.8935 111.135 36.3537 110.114 36.9454 108.815ZM21.1464 86.0436C21.2165 86.834 21.1289 87.2797 21.2998 87.5551C22.7945 89.931 24.2519 92.3383 25.9175 94.5865C26.3536 95.1755 27.4713 95.2359 28.0345 95.4487C29.9806 94.1185 29.9499 92.5488 29.6519 90.9051C27.6729 89.313 25.718 87.7342 23.6185 86.0436C23.0158 86.0436 22.2071 86.0436 21.1464 86.0436ZM45.1682 102.854C43.6911 100.785 41.9619 100.268 40.0378 100.373C38.7535 100.442 37.1712 99.7481 36.3932 101.504C37.3312 105.277 40.338 107.628 44.1206 107.16C44.4625 105.756 44.8439 104.189 45.1682 102.854ZM71.0594 136.253C52.8015 135.911 38.3086 131.732 25.6325 122.027C-3.18662 99.9564 -8.44639 58.9434 13.6359 29.1584C19.9125 20.6938 27.6532 14.0095 36.9827 9.3293C48.2145 3.6952 60.0008 -0.0287741 72.6067 0.000336957C77.3405 0.0115335 82.1795 0.620626 86.7774 1.76267C98.1144 4.58196 108.627 9.60026 117.532 17.2856C136.127 33.3347 142.954 53.7012 137.008 78.0134C134.799 87.0423 131.082 95.5673 126.256 103.51C112.964 125.384 93.3192 135.566 71.0594 136.253L71.0594 136.253Z" id="Fill-226" fill="#E7AB4E" fill-rule="evenodd" stroke="none" />
</svg>