<?xml version="1.0" encoding="utf-8"?>
<svg width="98px" height="261px" viewBox="0 0 98 261" version="1.1" xmlns:xlink="http://www.w3.org/1999/xlink" xmlns="http://www.w3.org/2000/svg">
  <defs>
    <path d="M0 0L43.368 0L43.368 50.086L0 50.086L0 0Z" transform="translate(0.8565048 0.59172523)" id="path_1" />
    <clipPath id="mask_1">
      <use xlink:href="#path_1" />
    </clipPath>
  </defs>
  <g id="Group-208" transform="translate(-252.16782 0)">
    <g id="Group-7" transform="translate(252.4956 0)">
      <g id="Group-166" transform="translate(19.02179 83.25635)">
        <path d="M0 0L43.368 0L43.368 50.086L0 50.086L0 0Z" transform="translate(0.8565048 0.59172523)" id="Clip-164" fill="none" fill-rule="evenodd" stroke="none" />
        <g clip-path="url(#mask_1)">
          <path d="M4.45245 9.12959C1.87143 9.01942 -0.0582686 6.89977 0.00134434 4.23588C0.0587494 1.69979 1.84051 -0.0474905 4.32218 0.000983873C7.01359 0.0516616 9.23031 2.29911 9.14641 4.89028C9.06914 7.38892 7.02022 9.24196 4.45245 9.12959" transform="translate(0.8565048 0.59172523)" id="Fill-163" fill="#E7AB4E" fill-rule="evenodd" stroke="none" />
          <path d="M1.52151 0C3.0604 0.508981 4.81347 0.861521 6.34353 1.64592C8.40791 2.70134 9.17184 5.39387 8.30414 7.51352C7.73229 8.91267 6.56653 9.42606 5.16673 9.46792C2.30531 9.55385 0.0974195 7.53776 0.0400144 4.64693C0.00910397 3.20812 -0.308832 1.61067 1.52151 0" transform="translate(35.567772 45.09657)" id="Fill-165" fill="#E7AB4E" fill-rule="evenodd" stroke="none" />
        </g>
      </g>
      <path d="M8.32151 5.54365C8.35168 8.04128 7.08255 9.60085 4.97955 9.65168C2.47578 9.71638 0.0754293 7.19564 0.00216908 4.42075C-0.0667817 1.88846 1.51478 0.0446997 3.79662 0.000800596C6.34564 -0.05003 8.28488 2.32515 8.32151 5.54365" transform="translate(16.644073 44.64453)" id="Fill-167" fill="#E7AB4E" fill-rule="evenodd" stroke="none" />
      <path d="M8.6578 8.33486C5.63841 8.82417 3.15717 7.65075 1.07514 5.81814C-0.931906 4.05122 0.0385336 0.73711 2.60138 0.130014C4.94146 -0.42498 6.61106 0.870761 7.94321 2.61276C9.16949 4.21885 10.3737 5.9314 8.6578 8.33486" transform="translate(29.721558 27.751953)" id="Fill-168" fill="#E7AB4E" fill-rule="evenodd" stroke="none" />
      <path d="M3.43861 0.000202054C6.19988 0.0300523 8.91387 3.52467 8.20905 6.15576C7.87168 7.41373 7.06586 8.18131 5.75292 8.39666C2.95727 8.85934 -0.190795 6.0065 0.00904765 3.19418C0.142276 1.33067 1.5906 -0.0189874 3.43861 0.000202054" transform="translate(84.40921 94.11572)" id="Fill-169" fill="#E7AB4E" fill-rule="evenodd" stroke="none" />
      <path d="M7.13316 7.61036C6.90971 7.96061 6.55556 9.13031 5.83883 9.47175C5.11999 9.81759 3.84041 9.64357 3.15741 9.15895C1.31709 7.85707 0.0796764 5.91197 0.00167908 3.56376C-0.0341575 2.5064 0.507608 1.12522 1.24753 0.422522C2.23831 -0.518086 3.43989 0.299164 4.3885 1.05694C5.82197 2.20241 7.13738 5.0749 7.13316 7.61036" transform="translate(65.38742 66.36377)" id="Fill-170" fill="#E7AB4E" fill-rule="evenodd" stroke="none" />
      <path d="M6.13832 9.64647C2.56642 9.82509 -0.515905 6.25037 0.0724597 2.80787C0.52471 0.174957 2.94184 -0.831812 4.97257 0.766492C7.2448 2.55269 7.87488 6.95325 6.13832 9.64647" transform="translate(76.08719 104.9751)" id="Fill-171" fill="#E7AB4E" fill-rule="evenodd" stroke="none" />
      <path d="M5.32764 8.44629C2.12418 8.22594 0.368371 6.64714 0.0354086 3.75696C-0.119698 2.40065 0.2174 1.21976 1.39207 0.447479C2.60191 -0.346198 3.73728 0.00892398 4.81889 0.787626C7.70801 2.86916 7.90862 5.33576 5.32764 8.44629" transform="translate(22.588379 62.743652)" id="Fill-172" fill="#E7AB4E" fill-rule="evenodd" stroke="none" />
      <path d="M6.29744 8.41349C2.54511 8.81135 -0.668311 5.51746 0.120012 2.46228C0.478544 1.07604 1.62317 0.135828 3.10852 0.0143751C4.67403 -0.117548 6.16828 0.663521 6.63148 2.15237C7.2706 4.21498 7.43761 6.32156 6.29744 8.41349" transform="translate(9.510895 19.305664)" id="Fill-173" fill="#E7AB4E" fill-rule="evenodd" stroke="none" />
      <path d="M7.13221 5.13153C7.10006 7.08048 5.75868 8.42575 3.8316 8.44609C1.60822 8.4687 -0.0294577 6.51298 0.000401785 3.86766C0.0279643 1.57731 1.48648 -0.0551003 3.45721 0.00142364C5.57263 0.0602085 7.17815 2.30308 7.13221 5.13153" transform="translate(58.254242 20.512207)" id="Fill-174" fill="#E7AB4E" fill-rule="evenodd" stroke="none" />
      <path d="M7.13307 4.52267C7.14618 6.13063 5.96363 7.28458 4.34609 7.23833C2.2433 7.18158 0.0377637 5.03553 0.000604118 3.0135C-0.0299979 1.25841 1.10446 0.056116 2.84878 0.00146644C4.97344 -0.0657946 7.11121 2.19165 7.13307 4.52267" transform="translate(45.17679 63.950684)" id="Fill-175" fill="#E7AB4E" fill-rule="evenodd" stroke="none" />
      <path d="M3.0165 0.000911103C5.05252 -0.0493641 7.08854 1.98907 7.13249 4.1212C7.16597 5.86712 5.97532 7.15599 4.26155 7.23598C2.13346 7.33424 0.0932488 5.46035 0.00327047 3.32136C-0.0741528 1.48632 1.23158 0.0489011 3.0165 0.000911103" transform="translate(53.49881 91.70264)" id="Fill-176" fill="#E7AB4E" fill-rule="evenodd" stroke="none" />
      <path d="M7.13317 5.3424C6.49308 6.26683 6.02735 7.51914 5.12342 8.10204C3.94877 8.86026 2.52635 8.28419 1.77384 7.17077C0.982323 6.00954 0.268815 4.65249 0.0416855 3.29544C-0.187738 1.92017 0.534947 0.606386 2.08356 0.155554C3.56563 -0.274785 4.87106 0.191985 5.62127 1.5035C6.23154 2.56682 6.54126 3.79864 7.13317 5.3424" transform="translate(36.854736 49.47119)" id="Fill-177" fill="#E7AB4E" fill-rule="evenodd" stroke="none" />
      <path d="M5.94431 5.20099C5.6921 6.64762 5.25535 7.68957 4.18295 8.22218C3.06544 8.77804 2.11606 8.23613 1.37379 7.29652C0.192714 5.80569 -0.2953 3.97995 0.180411 2.06816C0.383409 1.24716 1.13799 0.165671 1.77774 0.0331013C2.54872 -0.127378 3.78926 0.312195 4.24241 0.993649C5.04415 2.1984 5.40093 3.77994 5.94431 5.20099" transform="translate(72.5206 86.87598)" id="Fill-178" fill="#E7AB4E" fill-rule="evenodd" stroke="none" />
      <path d="M5.94418 4.6367C5.95655 6.17844 5.11695 7.18078 3.76367 7.23756C1.85135 7.31399 0.0772351 5.30711 0.00297004 2.97922C-0.0547917 1.16452 0.733243 0.0333275 2.08033 0.000571014C3.86475 -0.0431042 5.92355 2.42673 5.94418 4.6367" transform="translate(39.232452 107.38867)" id="Fill-179" fill="#E7AB4E" fill-rule="evenodd" stroke="none" />
      <path d="M3.75683 6.03062C1.54872 5.96053 -0.120315 4.39433 0.00680426 2.50832C0.115091 0.872033 1.38629 -0.104922 3.26012 0.00898266C5.2705 0.13384 7.21966 1.93661 7.13021 3.58823C7.05017 5.069 5.63773 6.08976 3.75683 6.03062" transform="translate(90.353546 48.26465)" id="Fill-180" fill="#E7AB4E" fill-rule="evenodd" stroke="none" />
      <path d="M5.94403 3.71535C5.92285 5.26047 5.1709 6.02685 3.66699 6.03303C1.67378 6.04127 -0.0758368 4.39314 0.00253593 2.58432C0.0703177 1.06804 1.33275 -0.0856511 2.82184 0.00499603C4.52485 0.110064 5.96733 1.82618 5.94403 3.71535" transform="translate(27.343842 2.413086)" id="Fill-181" fill="#E7AB4E" fill-rule="evenodd" stroke="none" />
      <path d="M4.34285 7.0973C3.73771 7.39873 2.36174 7.19854 1.99129 6.71304C1.08702 5.53035 0.283986 4.10835 0.0124744 2.67255C-0.12098 1.96615 0.843116 0.730536 1.62544 0.254236C2.61714 -0.348616 3.80443 0.180605 4.38887 1.21144C4.99862 2.29519 5.36447 3.517 5.94431 4.9436C5.4174 5.70292 5.05155 6.74295 4.34285 7.0973Z" transform="translate(64.19858 0)" id="Fill-182" fill="#E7AB4E" fill-rule="evenodd" stroke="none" />
      <path d="M5.94431 5.7216C2.32666 6.68969 0.0116381 5.31788 2.81826e-05 2.75816C-0.00461579 1.44554 0.564271 0.449973 2.0039 0.101208C3.4505 -0.247556 4.67419 0.323149 5.12697 1.53431C5.61227 2.83637 5.67961 4.26313 5.94431 5.7216" transform="translate(49.93222 37.404785)" id="Fill-183" fill="#E7AB4E" fill-rule="evenodd" stroke="none" />
      <path d="M5.94426 3.00969C5.95357 4.61911 4.67786 6.005 3.16703 6.03267C1.57937 6.06035 0.0871648 4.60634 0.00335898 2.95647C-0.073463 1.37259 1.17664 0.0548241 2.80853 0.00160252C4.4893 -0.0537479 5.93495 1.33214 5.94426 3.00969" transform="translate(23.777252 33.785156)" id="Fill-184" fill="#E7AB4E" fill-rule="evenodd" stroke="none" />
      <path d="M4.75496 2.53284C4.72747 3.85945 3.56727 4.90294 2.21075 4.82205C0.9249 4.7452 0.0198991 3.78058 0.000267827 2.46813C-0.0193634 1.06873 1.04269 -0.0374516 2.36976 0.000971427C3.65364 0.0393944 4.78244 1.23657 4.75496 2.53284" transform="translate(55.876526 113.42139)" id="Fill-185" fill="#E7AB4E" fill-rule="evenodd" stroke="none" />
      <path d="M4.56419 4.22202C3.17528 5.24158 1.94069 4.87893 0.850772 3.82208C-0.161979 2.83982 -0.335594 1.10326 0.684391 0.462932C1.30651 0.0712732 2.42777 -0.117303 3.14875 0.07749C4.63171 0.483654 5.04646 1.98605 4.56419 4.22202" transform="translate(85.598114 26.54541)" id="Fill-186" fill="#E7AB4E" fill-rule="evenodd" stroke="none" />
      <path d="M2.95124 4.82645C1.17348 4.66274 0.239957 3.7943 0.0207813 2.47865C-0.0948945 1.78989 0.286633 0.7777 0.810218 0.302551C1.2161 -0.0647913 2.383 -0.102723 2.85991 0.216705C3.33885 0.538129 3.57832 1.48843 3.56615 2.15723C3.55194 3.02767 3.18462 3.88813 2.95124 4.82645" transform="translate(0 9.652832)" id="Fill-187" fill="#E7AB4E" fill-rule="evenodd" stroke="none" />
    </g>
    <path d="M143.845 43.6034C143.118 46.4251 142.309 48.8851 141.869 51.4078C140.02 61.9931 137.055 72.3045 134.308 82.668C132.114 90.9566 129.937 99.2539 127.539 107.486C126.554 110.871 125.005 114.091 123.719 117.388C122.814 119.7 121.27 120.911 118.721 120.369C114.111 117.9 111.708 113.329 108.768 109.32C100.379 97.8719 92.1844 86.2798 83.8412 74.8009C81.5945 71.7121 79.111 68.7942 76.6626 65.8629C75.9792 65.0465 75.0305 64.4584 73.8384 63.4628C72.9454 64.9563 72.1128 66.0609 71.5727 67.2969C67.9374 75.6041 64.3437 83.9289 60.7739 92.2667C55.0697 105.586 49.4092 118.927 43.6919 132.242C42.1 135.95 41.3413 136.591 38.4886 137.165C34.5731 134.906 31.6127 131.497 29.0949 127.824C20.439 115.201 11.9562 102.46 3.48872 89.7055C2.0648 87.5607 1.05067 85.1406 0 83.1445C0.493803 80.8314 2.12536 80.6112 3.53835 80.3807C5.38879 80.0825 7.30148 80.093 8.73192 81.655C11.1312 84.2752 13.627 86.8134 15.8553 89.5733C19.8941 94.5737 23.7662 99.7094 27.7063 104.787C30.2736 108.098 32.8431 111.406 35.4059 114.721C35.6888 115.091 35.919 115.501 36.4233 116.278C37.9315 112.747 39.1404 109.747 40.4803 106.806C44.6785 97.6027 48.94 88.43 53.1425 79.2333C55.5159 74.0412 57.7562 68.79 60.1885 63.6285C61.5853 60.6675 63.1459 57.7698 64.8415 54.9709C65.4793 53.9222 66.5848 52.9181 67.7013 52.4525C69.7374 51.6105 71.9104 50.9821 74.0824 50.6318C77.0767 50.1505 79.5208 51.8919 81.6174 53.6015C84.1913 55.7023 86.5518 58.1748 88.5838 60.8184C97.3186 72.201 105.891 83.7055 114.549 95.1457C115.043 95.8017 115.756 96.2869 116.641 97.1004C117.189 95.2816 117.755 93.5863 118.21 91.8649C121.01 81.2275 123.858 70.6053 126.534 59.9396C127.938 54.3361 128.912 48.6282 130.292 43.0182C131.091 39.7724 132.202 36.5872 133.379 33.4547C134.132 31.4563 135.611 29.9122 137.738 29.3524C140.674 28.5776 143.652 27.9616 145.734 27.4815C153.341 30.0227 157.197 35.494 161.11 40.837C166.717 48.4961 172.096 56.3326 177.765 63.9473C182.92 70.8773 188.327 77.6122 193.875 84.7571C195.303 81.0388 196.864 77.5627 197.981 73.9515C201.12 63.7984 204.129 53.6017 207.093 43.3941C209.599 34.7644 212.614 26.327 216.118 18.0512C216.923 16.1453 218.163 14.9883 220.134 14.5483C222.02 14.1285 223.893 13.6535 225.778 13.2337C226.133 13.1573 226.623 13.0804 226.878 13.2583C229.111 14.8129 232.008 15.2656 233.662 17.829C237.392 23.6143 241.189 29.364 245.132 35.0049C251.531 44.1599 258.049 53.2306 264.561 62.3035C265.576 63.717 266.829 64.9551 268.337 66.7001C269.313 63.4955 270.202 60.7174 271.002 57.9153C275.375 42.592 279.697 27.2535 284.118 11.9433C284.893 9.25823 286.061 6.68653 287.037 4.06035C287.605 2.52622 288.738 1.59042 290.213 1.09926C291.619 0.634856 293.09 -0.0726231 294.491 0.0060389C296.353 0.107264 298.176 0.868686 299.975 1.33439C300.348 4.51845 300.227 7.26285 299.443 10.0296C296.419 20.7054 293.492 31.4073 290.502 42.0919C286.911 54.931 284.272 68.0557 279.155 80.4391C278.231 82.6721 277.089 84.8486 275.807 86.8976C273.628 90.3803 271.191 90.6366 267.86 88.2848C262.385 84.4178 257.85 79.5781 254.009 74.1686C245.621 62.3609 237.485 50.3713 229.282 38.4327C228.077 36.6822 227.057 34.803 225.677 32.53C224.95 34.5592 224.254 36.1623 223.797 37.8306C221.435 46.4598 219.165 55.1151 216.807 63.7487C214.226 73.1955 211.225 82.5092 207.692 91.6483C205.838 96.4411 204.141 101.3 202.106 106.014C200.391 109.994 198.622 112.492 193.471 108.587C189.449 105.533 186.681 101.468 183.731 97.5434C177.932 89.821 172.235 82.0188 166.614 74.1611C161.375 66.8362 156.322 59.376 151.116 52.0267C149.393 49.596 147.465 47.3184 145.587 45.0075C145.204 44.5343 144.628 44.223 143.845 43.6034" transform="matrix(0.9659258 -0.25881904 0.25881904 0.9659258 0 127.67578)" id="Fill-122" fill="#282A3B" fill-rule="evenodd" stroke="none" />
  </g>
</svg>