<?xml version="1.0" encoding="utf-8"?>
<svg width="138px" height="47px" viewBox="0 0 138 47" version="1.1" xmlns:xlink="http://www.w3.org/1999/xlink" xmlns="http://www.w3.org/2000/svg">
  <g id="Logo" transform="translate(0.5 0.5)">
    <g id="Circle" transform="translate(0 10)">
      <path d="M15 30C23.2843 30 30 23.2843 30 15C30 6.71573 23.2843 0 15 0C6.71573 0 0 6.71573 0 15C0 23.2843 6.71573 30 15 30Z" id="Oval" fill="#000000" fill-rule="evenodd" stroke="none" />
      <g id="D" fill="#FFFFFF" transform="translate(9.375 1.9443359)">
        <path d="M6.8 5.50195Q9.7 5.50195 11.65 7.51195Q13.6 9.52195 13.6 12.502Q13.6 15.482 11.65 17.492Q9.7 19.502 6.8 19.502L1.1 19.502L1.1 5.50195L6.8 5.50195ZM6.8 16.042Q8.26 16.042 9.18 15.072Q10.1 14.102 10.1 12.502Q10.1 10.902 9.18 9.93195Q8.26 8.96195 6.8 8.96195L4.78 8.96195L4.78 16.042L6.8 16.042Z" />
      </g>
    </g>
    <g id="deski." transform="translate(42 0)">
      <path d="M4.108 33.16C2.508 31.4 1.708 29.32 1.708 26.952C1.708 24.648 2.476 22.6 4.044 20.808C5.612 19.016 7.692 18.12 10.22 18.12C11.148 18.12 12.14 18.344 13.228 18.824C14.348 19.272 15.18 19.944 15.756 20.872L15.756 9.48L19.564 9.48L19.564 35.528L15.852 35.528L15.852 32.872C15.244 33.864 14.38 34.6 13.196 35.08C12.044 35.56 11.02 35.784 10.124 35.784C7.724 35.784 5.708 34.92 4.108 33.16ZM64.236 35.528L60.428 35.528L60.428 9.48L64.236 9.48L64.236 25.16L64.268 25.16L70.892 18.44L76.076 18.44L68.364 26.184L76.492 35.528L71.468 35.528L64.332 27.176L64.236 27.176L64.236 35.528ZM79.116 14.664C80.108 15.656 81.644 15.656 82.636 14.664C83.628 13.672 83.628 12.136 82.636 11.144C81.644 10.12 80.108 10.12 79.116 11.144C78.124 12.136 78.124 13.672 79.116 14.664ZM40.46 26.92C40.46 27.432 40.428 27.816 40.396 28.104L27.436 28.104C27.468 29.384 27.98 30.44 28.972 31.304Q30.46 32.552 32.428 32.552C34.572 32.552 36.108 31.656 37.036 29.896L39.788 31.72C38.348 34.376 35.564 35.848 32.492 35.848C29.964 35.848 27.82 35.016 26.092 33.32C24.396 31.624 23.532 29.48 23.532 26.952C23.532 24.488 24.364 22.408 25.996 20.68Q28.444 18.088 32.14 18.088C34.732 18.088 36.78 18.888 38.252 20.52C39.724 22.152 40.46 24.264 40.46 26.92ZM49.9 35.816C51.82 35.816 53.388 35.336 54.572 34.344C55.756 33.352 56.364 32.072 56.364 30.504C56.364 27.848 54.316 25.992 50.444 25.128C48.236 24.648 47.276 24.072 47.276 22.952C47.276 22.024 48.492 21.288 49.676 21.288C51.308 21.288 52.492 22.056 53.26 23.592L56.204 21.928C55.02 19.368 52.876 18.088 49.804 18.088C48.14 18.088 46.7 18.568 45.452 19.56C44.204 20.552 43.596 21.8 43.596 23.336C43.596 24.552 44.012 25.576 44.812 26.44C45.74 27.432 47.18 28.104 49.068 28.488C51.404 28.968 52.588 29.736 52.588 30.728C52.588 31.88 51.34 32.616 49.9 32.616C48.076 32.616 46.732 31.688 45.804 29.864L42.828 31.528C44.14 34.376 46.508 35.816 49.9 35.816ZM82.796 18.44L78.988 18.44L78.988 35.528L82.796 35.528L82.796 18.44ZM36.588 25.224C36.46 22.824 34.572 21.352 32.14 21.352C29.804 21.352 27.98 22.888 27.628 25.224L36.588 25.224ZM14.38 23.112C13.42 22.056 12.204 21.544 10.7 21.544C9.196 21.544 7.948 22.056 6.988 23.112C6.06 24.168 5.58 25.448 5.58 26.952C5.58 28.456 6.06 29.736 6.988 30.792C7.948 31.816 9.196 32.328 10.7 32.328C12.204 32.328 13.452 31.816 14.38 30.792Q15.82 29.208 15.82 26.952Q15.82 24.696 14.38 23.112ZM89.996 35.688C88.46 35.688 87.212 34.408 87.212 32.904C87.212 31.336 88.46 30.088 89.996 30.088C91.564 30.088 92.78 31.336 92.78 32.904C92.78 34.44 91.532 35.688 89.996 35.688Z" />
    </g>
  </g>
</svg>