<?xml version="1.0" encoding="utf-8"?>
<svg width="46px" height="46px" viewBox="0 0 46 46" version="1.1" xmlns:xlink="http://www.w3.org/1999/xlink" xmlns="http://www.w3.org/2000/svg">
  <g id="Group-13" transform="translate(0.5 0.5)">
    <path d="M22.5 45C34.9264 45 45 34.9264 45 22.5C45 10.0736 34.9264 0 22.5 0C10.0736 0 0 10.0736 0 22.5C0 34.9264 10.0736 45 22.5 45Z" id="Oval" fill="#FC6E53" fill-rule="evenodd" stroke="none" />
    <g id="D" fill="#FFFFFF" transform="translate(12 0)">
      <path d="M12.88 35.545Q10.78 35.545 8.61 33.69L8.33 35.09L3.29 35.09L8.05 12.83L13.23 12.13L9.03 31.765Q10.01 32.465 11.025 32.465Q13.02 32.465 14.5425 30.155Q16.065 27.845 16.905 24.275Q17.745 20.705 17.745 17.065Q17.745 13.635 16.3975 12.0425Q15.05 10.45 12.635 10.45Q10.01 10.45 7.9275 11.4825Q5.845 12.515 4.655 14.44Q3.465 16.365 3.465 18.955Q3.465 20.25 3.71 20.7575Q3.955 21.265 3.955 21.335Q2.135 21.335 1.1725 20.565Q0.21 19.795 0.21 18.08Q0.21 15.7 1.995 13.565Q3.78 11.43 6.7725 10.135Q9.765 8.84 13.23 8.84Q18.025 8.84 20.3 11.675Q22.575 14.51 22.575 18.92Q22.575 22.91 21.2275 26.7775Q19.88 30.645 17.64 33.095Q15.4 35.545 12.88 35.545Z" />
    </g>
  </g>
</svg>