<?xml version="1.0" encoding="utf-8"?>
<svg width="136px" height="43px" viewBox="0 0 136 43" version="1.1" xmlns:xlink="http://www.w3.org/1999/xlink" xmlns="http://www.w3.org/2000/svg">
  <g id="Logo" transform="translate(0.5 0.5)">
    <g id="Circle" transform="translate(0 8)">
      <path d="M15 30C23.2843 30 30 23.2843 30 15C30 6.71573 23.2843 0 15 0C6.71573 0 0 6.71573 0 15C0 23.2843 6.71573 30 15 30Z" id="Oval" fill="#655C97" fill-rule="evenodd" stroke="none" />
      <g id="D" fill="#FFFFFF" transform="translate(9.375 1.9444427)">
        <path d="M6.8 5.50195Q9.7 5.50195 11.65 7.51195Q13.6 9.52195 13.6 12.502Q13.6 15.482 11.65 17.492Q9.7 19.502 6.8 19.502L1.1 19.502L1.1 5.50195L6.8 5.50195ZM6.8 16.042Q8.26 16.042 9.18 15.072Q10.1 14.102 10.1 12.502Q10.1 10.902 9.18 9.93195Q8.26 8.96195 6.8 8.96195L4.78 8.96195L4.78 16.042L6.8 16.042Z" />
      </g>
    </g>
    <g id="deski." transform="translate(40 0)">
      <path d="M6.98438 31.6797Q8.46094 32.7031 10.5234 32.7031Q12.1016 32.7031 13.2969 32.1094Q14.4922 31.5156 15.3203 30.3594L15.5703 32.375L20.7891 32.375L20.7891 30.4063L18.2422 29.9688L18.2422 8L12.6172 8L12.6172 9.98438L15.1641 10.4219L15.1641 17.3125Q14.3516 16.2656 13.2031 15.7109Q12.0547 15.1563 10.5547 15.1563Q8.47656 15.1563 6.99219 16.2891Q5.50781 17.4219 4.72656 19.4688Q3.94531 21.5156 3.94531 24.2344L3.94531 24.5625Q3.94531 27 4.72656 28.8281Q5.50781 30.6563 6.98438 31.6797ZM55.2734 30.4063L55.2734 32.375L63.4453 32.375L63.4453 30.4063L60.8984 29.9688L60.8984 27.2646L63.5287 24.6214L67.8047 30.1406L67.8516 30.2031L66.1328 30.4063L66.1328 32.375L73.7734 32.375L73.7734 30.4063L71.3359 30.0313L65.5034 22.6371L70.2578 17.8594L72.4297 17.4531L72.4297 15.4688L65.1484 15.4688L65.1484 17.4531L66.9609 17.6563L66.8828 17.75L60.8984 23.7089L60.8984 8L55.2734 8L55.2734 9.98438L57.8203 10.4219L57.8203 29.9688L55.2734 30.4063ZM77.8203 11.2969L77.8203 8L81.0547 8L81.0547 11.2969L77.8203 11.2969ZM26.5391 31.6328Q28.2734 32.7031 30.6172 32.7031Q32.7109 32.7031 34.2031 32.1016Q35.6953 31.5 36.6016 30.625L35.3984 28.625Q34.5391 29.4063 33.3594 29.8516Q32.1797 30.2969 30.6172 30.2969Q29.1953 30.2969 28.1797 29.5781Q27.1641 28.8594 26.625 27.6016Q26.0859 26.3438 26.0547 24.7188L26.1016 24.6406L37.0703 24.6406L37.0703 22.7188Q37.0703 20.4219 36.2891 18.7266Q35.5078 17.0313 33.9688 16.0938Q32.4297 15.1563 30.1484 15.1563Q28.1953 15.1563 26.5469 16.2578Q24.8984 17.3594 23.9063 19.2578Q22.9141 21.1563 22.9141 23.5625L22.9141 24.25Q22.9141 26.75 23.8594 28.6563Q24.8047 30.5625 26.5391 31.6328ZM46.3047 32.7031Q44.6016 32.7031 43.1172 32.3594Q41.6328 32.0156 39.9609 31.2969L39.9297 27.2813L42.2578 27.2813L42.8359 29.7031Q43.7109 30.0625 44.5313 30.2266Q45.3516 30.3906 46.3047 30.3906Q48.1797 30.3906 48.9922 29.6719Q49.8047 28.9531 49.8047 27.8906Q49.8047 26.8906 48.9844 26.1953Q48.1641 25.5 46.0078 25.0156Q42.9453 24.3125 41.5 23.1328Q40.0547 21.9531 40.0547 19.9844Q40.0547 18.6094 40.8516 17.5234Q41.6484 16.4375 43.0703 15.7969Q44.4922 15.1563 46.3828 15.1563Q48.3047 15.1563 49.6719 15.5938Q51.0391 16.0313 52.0547 16.7656L52.2109 20.625L49.8984 20.625L49.3984 18.375Q48.8516 17.9688 48.1016 17.75Q47.3516 17.5313 46.3828 17.5313Q44.9453 17.5313 44.0469 18.2031Q43.1484 18.875 43.1484 19.8906Q43.1484 20.4844 43.4063 20.9219Q43.6641 21.3594 44.3984 21.7109Q45.1328 22.0625 46.5547 22.4063Q50.0859 23.2344 51.4844 24.5156Q52.8828 25.7969 52.8828 27.6719Q52.8828 29.8125 51.2969 31.2578Q49.7109 32.7031 46.3047 32.7031ZM75.4297 32.375L75.4297 30.4063L77.9766 29.9688L77.9766 17.8906L75.4297 17.4531L75.4297 15.4688L81.0547 15.4688L81.0547 29.9688L83.6016 30.4063L83.6016 32.375L75.4297 32.375ZM33.9922 22.2344L26.1953 22.2344L26.1641 22.1563Q26.3359 20.8438 26.8828 19.8125Q27.4297 18.7813 28.2734 18.1797Q29.1172 17.5781 30.1484 17.5781Q31.4297 17.5781 32.2813 18.1328Q33.1328 18.6875 33.5625 19.6484Q33.9922 20.6094 33.9922 21.8281L33.9922 22.2344ZM13.6172 29.5781Q12.6797 30.2031 11.3047 30.2031Q9.11719 30.2031 8.07031 28.6563Q7.02344 27.1094 7.02344 24.5625L7.02344 24.2344Q7.02344 22.2813 7.49219 20.8047Q7.96094 19.3281 8.91406 18.4922Q9.86719 17.6563 11.3359 17.6563Q12.6641 17.6563 13.6172 18.2813Q14.5703 18.9063 15.1641 19.9688L15.1641 27.8125Q14.5547 28.9531 13.6172 29.5781ZM86.8359 29.2188L86.8359 32.375L89.9141 32.375L89.9141 29.2188L86.8359 29.2188Z" />
    </g>
  </g>
</svg>