<?xml version="1.0" encoding="utf-8"?>
<svg width="87px" height="40px" viewbox="0 0 87 40" version="1.1" xmlns:xlink="http://www.w3.org/1999/xlink" xmlns="http://www.w3.org/2000/svg">
  <g id="deski." fill="#212A41">
    <path d="M74.24 13.2831Q73.216 13.2831 72.464 12.5311Q71.712 11.7791 71.712 10.7551Q71.712 9.73112 72.464 8.96312Q73.216 8.19513 74.24 8.19512Q75.296 8.19512 76.048 8.96312Q76.8 9.73112 76.8 10.7551Q76.8 11.7791 76.048 12.5311Q75.296 13.2831 74.24 13.2831ZM18.144 8.80312L14.016 8.80312L14.016 17.0911Q12.192 14.7551 8.832 14.7551Q5.6 14.7551 3.312 17.2031Q1.024 19.6511 1.024 23.2031Q1.024 26.7551 3.312 29.2031Q5.6 31.6511 8.832 31.6511Q12.192 31.6511 14.016 29.3151L14.016 31.2031L18.144 31.2031L18.144 8.80312ZM65.344 31.2031L70.144 31.2031L63.5205 23.1076L69.952 15.2031L65.024 15.2031L59.52 22.2706L59.52 8.80312L55.392 8.80312L55.392 31.2031L59.52 31.2031L59.52 23.9336L65.344 31.2031ZM29.92 27.9071Q26.24 27.9071 25.408 24.8991L37.472 24.8991Q37.632 24.0031 37.632 23.2031Q37.632 19.6191 35.344 17.1871Q33.056 14.7551 29.536 14.7551Q25.824 14.7551 23.456 17.1711Q21.088 19.5871 21.088 23.2031Q21.088 26.8511 23.488 29.2511Q25.888 31.6511 29.856 31.6511Q34.464 31.6511 36.832 28.2271L33.504 26.3071Q32.288 27.9071 29.92 27.9071ZM44.32 19.7471Q44.32 20.3871 45.168 20.7871Q46.016 21.1871 47.232 21.4911Q48.448 21.7951 49.664 22.2591Q50.88 22.7231 51.728 23.8111Q52.576 24.8991 52.576 26.5311Q52.576 28.9951 50.736 30.3231Q48.896 31.6511 46.144 31.6511Q41.216 31.6511 39.424 27.8431L43.008 25.8271Q43.712 27.9071 46.144 27.9071Q48.352 27.9071 48.352 26.5311Q48.352 25.8911 47.504 25.4911Q46.656 25.0911 45.44 24.7711Q44.224 24.4511 43.008 23.9711Q41.792 23.4911 40.944 22.4511Q40.096 21.4111 40.096 19.8431Q40.096 17.4751 41.84 16.1151Q43.584 14.7551 46.176 14.7551Q48.128 14.7551 49.728 15.6351Q51.328 16.5151 52.256 18.1471L48.736 20.0671Q47.968 18.4351 46.176 18.4351Q45.376 18.4351 44.848 18.7871Q44.32 19.1391 44.32 19.7471ZM72.192 15.2031L76.32 15.2031L76.32 31.2031L72.192 31.2031L72.192 15.2031ZM33.504 21.6991L25.344 21.6991Q25.696 20.1631 26.784 19.3151Q27.872 18.4671 29.536 18.4671Q30.944 18.4671 32.048 19.2671Q33.152 20.0671 33.504 21.6991ZM9.6 27.7151Q7.68 27.7151 6.416 26.4511Q5.152 25.1871 5.152 23.2031Q5.152 21.2191 6.416 19.9551Q7.68 18.6911 9.6 18.6911Q11.52 18.6911 12.768 19.9551Q14.016 21.2191 14.016 23.2031Q14.016 25.1871 12.768 26.4511Q11.52 27.7151 9.6 27.7151ZM82.496 31.6191Q83.616 31.6191 84.416 30.8191Q85.216 30.0191 85.216 28.8991Q85.216 27.7791 84.416 26.9791Q83.616 26.1791 82.496 26.1791Q81.376 26.1791 80.576 26.9791Q79.776 27.7791 79.776 28.8991Q79.776 30.0191 80.576 30.8191Q81.376 31.6191 82.496 31.6191Z" />
  </g>
</svg>