<svg width="137" height="34" viewBox="0 0 137 34" fill="none" xmlns="http://www.w3.org/2000/svg">
<g id="Logo" clip-path="url(#clip0)">
<g id="Circle">
<ellipse id="Oval" cx="15" cy="19" rx="15" ry="15" fill="white"/>
<path id="D" d="M16.175 11.9443C18.1083 11.9443 19.7217 12.6177 21.015 13.9643C22.3217 15.2977 22.975 16.9577 22.975 18.9443C22.975 20.931 22.3217 22.5977 21.015 23.9443C19.7217 25.2777 18.1083 25.9443 16.175 25.9443H10.475V11.9443H16.175ZM16.175 22.4843C17.1483 22.4843 17.9417 22.1643 18.555 21.5243C19.1683 20.871 19.475 20.011 19.475 18.9443C19.475 17.8777 19.1683 17.0243 18.555 16.3843C17.9417 15.731 17.1483 15.4043 16.175 15.4043H14.155V22.4843H16.175Z" fill="black"/>
</g>
<path id="deski." d="M43.7041 20.424C43.7041 22.792 44.5041 24.872 46.1041 26.632C47.7041 28.392 49.7201 29.256 52.1201 29.256C53.0161 29.256 54.0401 29.032 55.1921 28.552C56.3761 28.072 57.2401 27.336 57.8481 26.344V29H61.5601V2.952H57.7521V14.344C57.1761 13.416 56.3441 12.744 55.2241 12.296C54.1361 11.816 53.1441 11.592 52.2161 11.592C49.6881 11.592 47.6081 12.488 46.0401 14.28C44.4721 16.072 43.7041 18.12 43.7041 20.424ZM52.6961 15.016C54.2001 15.016 55.4161 15.528 56.3761 16.584C57.3361 17.64 57.8161 18.92 57.8161 20.424C57.8161 21.928 57.3361 23.208 56.3761 24.264C55.4481 25.288 54.2001 25.8 52.6961 25.8C51.1921 25.8 49.9441 25.288 48.9841 24.264C48.0561 23.208 47.5761 21.928 47.5761 20.424C47.5761 18.92 48.0561 17.64 48.9841 16.584C49.9441 15.528 51.1921 15.016 52.6961 15.016ZM82.3814 21.576C82.4134 21.288 82.4454 20.904 82.4454 20.392C82.4454 17.736 81.7094 15.624 80.2374 13.992C78.7654 12.36 76.7174 11.56 74.1254 11.56C71.6614 11.56 69.6134 12.424 67.9814 14.152C66.3494 15.88 65.5174 17.96 65.5174 20.424C65.5174 22.952 66.3814 25.096 68.0774 26.792C69.8054 28.488 71.9494 29.32 74.4774 29.32C77.5494 29.32 80.3334 27.848 81.7734 25.192L79.0214 23.368C78.0934 25.128 76.5574 26.024 74.4134 26.024C73.1014 26.024 71.9494 25.608 70.9574 24.776C69.9654 23.912 69.4534 22.856 69.4214 21.576H82.3814ZM74.1254 14.824C76.5574 14.824 78.4454 16.296 78.5734 18.696H69.6134C69.9654 16.36 71.7894 14.824 74.1254 14.824ZM91.8929 29.288C93.8129 29.288 95.3809 28.808 96.5649 27.816C97.7489 26.824 98.3569 25.544 98.3569 23.976C98.3569 21.32 96.3089 19.464 92.4369 18.6C90.2289 18.12 89.2689 17.544 89.2689 16.424C89.2689 15.496 90.4849 14.76 91.6689 14.76C93.3009 14.76 94.4849 15.528 95.2529 17.064L98.1969 15.4C97.0129 12.84 94.8689 11.56 91.7969 11.56C90.1329 11.56 88.6929 12.04 87.4449 13.032C86.1969 14.024 85.5889 15.272 85.5889 16.808C85.5889 18.024 86.0049 19.048 86.8049 19.912C87.7329 20.904 89.1729 21.576 91.0609 21.96C93.3969 22.44 94.5809 23.208 94.5809 24.2C94.5809 25.352 93.3329 26.088 91.8929 26.088C90.0689 26.088 88.7249 25.16 87.7969 23.336L84.8209 25C86.1329 27.848 88.5009 29.288 91.8929 29.288ZM102.419 29H106.227V20.648H106.323L113.459 29H118.483L110.355 19.656L118.067 11.912H112.883L106.259 18.632H106.227V2.952H102.419V29ZM121.11 8.136C122.102 9.128 123.638 9.128 124.63 8.136C125.622 7.144 125.622 5.608 124.63 4.616C123.638 3.592 122.102 3.592 121.11 4.616C120.118 5.608 120.118 7.144 121.11 8.136ZM124.79 11.912H120.982V29H124.79V11.912ZM129.216 26.376C129.216 27.88 130.464 29.16 132 29.16C133.536 29.16 134.784 27.912 134.784 26.376C134.784 24.808 133.568 23.56 132 23.56C130.464 23.56 129.216 24.808 129.216 26.376Z" fill="white"/>
</g>
<defs>
<clipPath id="clip0">
<rect width="137" height="34" fill="white"/>
</clipPath>
</defs>
</svg>
