<?xml version="1.0" encoding="utf-8"?>
<svg width="119px" height="38px" viewBox="0 0 119 38" version="1.1" xmlns:xlink="http://www.w3.org/1999/xlink" xmlns="http://www.w3.org/2000/svg">
  <g id="Logo" transform="translate(0.5 0.5)">
    <g id="Group-13" transform="translate(0 8)">
      <path d="M12 24C18.6274 24 24 18.6274 24 12C24 5.37258 18.6274 0 12 0C5.37258 0 0 5.37258 0 12C0 18.6274 5.37258 24 12 24Z" id="Oval" fill="#FC6E53" fill-rule="evenodd" stroke="none" />
      <g id="D" fill="#FFFFFF" transform="translate(7.5 2)">
        <path d="M5.888 16.192Q4.928 16.192 3.936 15.344L3.808 15.984L1.504 15.984L3.68 5.808L6.048 5.488L4.128 14.464Q4.576 14.784 5.04 14.784Q5.952 14.784 6.648 13.728Q7.344 12.672 7.728 11.04Q8.112 9.408 8.112 7.744Q8.112 6.176 7.496 5.448Q6.88 4.72 5.776 4.72Q4.576 4.72 3.624 5.192Q2.672 5.664 2.128 6.544Q1.584 7.424 1.584 8.608Q1.584 9.2 1.696 9.432Q1.808 9.664 1.808 9.696Q0.976 9.696 0.536 9.344Q0.096 8.992 0.096 8.208Q0.096 7.12 0.912 6.144Q1.728 5.168 3.096 4.576Q4.464 3.984 6.048 3.984Q8.24 3.984 9.28 5.28Q10.32 6.576 10.32 8.592Q10.32 10.416 9.704 12.184Q9.088 13.952 8.064 15.072Q7.04 16.192 5.888 16.192Z" />
      </g>
    </g>
    <g id="deski." transform="translate(35.5 0)">
      <path d="M70.08 12.6829C71.55 12.6829 72.78 11.4529 72.78 9.98293C72.78 8.51293 71.55 7.28293 70.08 7.28293C68.61 7.28293 67.38 8.51293 67.38 9.98293C67.38 11.4529 68.61 12.6829 70.08 12.6829ZM12.54 15.4129L12.54 8.00293L17.04 8.00293L17.04 29.0029L12.54 29.0029L12.54 27.5929C11.55 28.7329 10.08 29.4229 8.07 29.4229C4.14 29.4229 0.9 25.9729 0.9 21.5029C0.9 17.0329 4.14 13.5829 8.07 13.5829C10.08 13.5829 11.55 14.2729 12.54 15.4129ZM60.57 21.5029L66.18 29.0029L61.08 29.0029L56.28 22.3729L56.28 29.0029L51.78 29.0029L51.78 8.00293L56.28 8.00293L56.28 20.5729L60.78 14.0029L66.03 14.0029L60.57 21.5029ZM35.01 23.3029L24.36 23.3029C24.93 24.8629 26.31 25.4029 27.96 25.4029C29.19 25.4029 30.24 24.9229 30.84 24.2629L34.44 26.3329C32.97 28.3729 30.75 29.4229 27.9 29.4229C22.77 29.4229 19.59 25.9729 19.59 21.5029C19.59 17.0329 22.83 13.5829 27.57 13.5829C31.95 13.5829 35.19 16.9729 35.19 21.5029Q35.19 22.4479 35.01 23.3029ZM42 18.3829C42 17.8429 42.48 17.5429 43.26 17.5429C44.25 17.5429 44.85 18.0829 45.27 18.8629L49.11 16.7929C47.85 14.6629 45.69 13.5829 43.26 13.5829C40.14 13.5829 37.38 15.2329 37.38 18.5029C37.38 23.6929 44.76 22.8229 44.76 24.4729C44.76 25.0729 44.22 25.4029 43.14 25.4029C41.82 25.4029 40.98 24.7729 40.59 23.6329L36.69 25.8529C37.86 28.2829 40.14 29.4229 43.14 29.4229C46.38 29.4229 49.38 27.9529 49.38 24.5029C49.38 18.9529 42 20.0929 42 18.3829ZM27.54 17.5729C25.83 17.5729 24.69 18.4129 24.27 19.9429L30.72 19.9429C30.24 18.2029 28.89 17.5729 27.54 17.5729ZM5.4 21.5029C5.4 23.7529 6.9 25.1629 8.97 25.1629C11.04 25.1629 12.54 23.7529 12.54 21.5029C12.54 19.2529 11.04 17.8429 8.97 17.8429C6.9 17.8429 5.4 19.2529 5.4 21.5029ZM67.83 29.0029L72.33 29.0029L72.33 14.0029L67.83 14.0029L67.83 29.0029ZM81.03 26.5729C81.03 28.1329 79.74 29.4229 78.18 29.4229C76.62 29.4229 75.33 28.1329 75.33 26.5729C75.33 25.0129 76.62 23.7229 78.18 23.7229C79.74 23.7229 81.03 25.0129 81.03 26.5729Z" />
    </g>
  </g>
</svg>