<?xml version="1.0" encoding="utf-8"?>
<svg width="110px" height="49px" viewBox="0 0 110 49" version="1.1" xmlns:xlink="http://www.w3.org/1999/xlink" xmlns="http://www.w3.org/2000/svg">
  <g id="deski." fill="#2C2C2C">
    <path d="M93.44 16.7439C95.4 16.7439 97.04 15.1039 97.04 13.1439C97.04 11.1839 95.4 9.54391 93.44 9.54391C91.48 9.54391 89.84 11.1839 89.84 13.1439C89.84 15.1039 91.48 16.7439 93.44 16.7439ZM16.72 20.3839L16.72 10.5039L22.72 10.5039L22.72 38.5039L16.72 38.5039L16.72 36.6239C15.4 38.1439 13.44 39.0639 10.76 39.0639C5.52 39.0639 1.2 34.4639 1.2 28.5039C1.2 22.5439 5.52 17.9439 10.76 17.9439C13.44 17.9439 15.4 18.8639 16.72 20.3839ZM80.76 28.5039L88.24 38.5039L81.44 38.5039L75.04 29.6639L75.04 38.5039L69.04 38.5039L69.04 10.5039L75.04 10.5039L75.04 27.2639L81.04 18.5039L88.04 18.5039L80.76 28.5039ZM46.68 30.9039L32.48 30.9039C33.24 32.9839 35.08 33.7039 37.28 33.7039C38.92 33.7039 40.32 33.0639 41.12 32.1839L45.92 34.9439C43.96 37.6639 41 39.0639 37.2 39.0639C30.36 39.0639 26.12 34.4639 26.12 28.5039C26.12 22.5439 30.44 17.9439 36.76 17.9439C42.6 17.9439 46.92 22.4639 46.92 28.5039Q46.92 29.7639 46.68 30.9039ZM56 24.3439C56 23.6239 56.64 23.2239 57.68 23.2239C59 23.2239 59.8 23.9439 60.36 24.9839L65.48 22.2239C63.8 19.3839 60.92 17.9439 57.68 17.9439C53.52 17.9439 49.84 20.1439 49.84 24.5039C49.84 31.4239 59.68 30.2639 59.68 32.4639C59.68 33.2639 58.96 33.7039 57.52 33.7039C55.76 33.7039 54.64 32.8639 54.12 31.3439L48.92 34.3039C50.48 37.5439 53.52 39.0639 57.52 39.0639C61.84 39.0639 65.84 37.1039 65.84 32.5039C65.84 25.1039 56 26.6239 56 24.3439ZM36.72 23.2639C34.44 23.2639 32.92 24.3839 32.36 26.4239L40.96 26.4239C40.32 24.1039 38.52 23.2639 36.72 23.2639ZM7.2 28.5039C7.2 31.5039 9.2 33.3839 11.96 33.3839C14.72 33.3839 16.72 31.5039 16.72 28.5039C16.72 25.5039 14.72 23.6239 11.96 23.6239C9.2 23.6239 7.2 25.5039 7.2 28.5039ZM90.44 38.5039L96.44 38.5039L96.44 18.5039L90.44 18.5039L90.44 38.5039ZM108.04 35.2639C108.04 37.3439 106.32 39.0639 104.24 39.0639C102.16 39.0639 100.44 37.3439 100.44 35.2639C100.44 33.1839 102.16 31.4639 104.24 31.4639C106.32 31.4639 108.04 33.1839 108.04 35.2639Z" />
  </g>
</svg>