<svg width="140" height="76" viewBox="0 0 140 76" fill="none" xmlns="http://www.w3.org/2000/svg">
<path opacity="0.4" d="M19.06 57.56C24.38 57.56 28.72 55.67 32.08 51.89C35.44 48.04 37.12 43.49 37.12 38.24C37.12 32.99 35.44 28.44 32.01 24.66C28.65 20.81 24.31 18.92 19.06 18.92C14.93 18.92 11.29 20.04 8.28 22.35C5.27 24.66 3.17 27.6 2.12 31.17V0.0199993H0.65V57H2.12V45.31C3.17 48.88 5.27 51.82 8.28 54.13C11.29 56.44 14.93 57.56 19.06 57.56ZM35.58 38.38C35.58 43.42 34.04 47.62 30.96 51.05C27.88 54.48 23.89 56.16 18.92 56.16C14.02 56.16 9.96 54.41 6.74 50.84C3.59 47.27 1.98 43.14 1.98 38.38V38.17C1.98 33.48 3.52 29.28 6.67 25.71C9.82 22.14 13.95 20.32 18.92 20.32C23.82 20.32 27.81 22.07 30.89 25.57C34.04 29.07 35.58 33.34 35.58 38.31V38.38ZM46.2145 6.67C46.2145 9.26 50.0645 9.26 50.0645 6.67C50.2045 4.15 46.1445 4.15 46.2145 6.67ZM47.4045 19.62V57H48.8745V19.62H47.4045ZM62.0367 19.62V57H63.5067V35.79C63.5067 31.52 64.9067 27.88 67.7067 24.94C70.5767 21.93 73.9367 20.46 77.8567 20.46C86.4667 20.46 91.5767 26.06 91.5767 35.3V57H93.0467V35.16C93.0467 25.08 87.4467 18.99 77.9967 18.99C74.1467 18.99 70.9967 20.11 68.4067 22.35C65.8867 24.52 64.2767 27.04 63.5067 29.77V19.62H62.0367ZM137.987 19.62V31.17C136.937 27.6 134.837 24.66 131.827 22.35C128.817 20.04 125.177 18.92 121.047 18.92C115.797 18.92 111.457 20.81 108.027 24.66C104.667 28.51 102.987 33.06 102.987 38.38C102.987 43.63 104.667 48.11 108.027 51.89C111.387 55.67 115.727 57.56 121.047 57.56C125.177 57.56 128.817 56.44 131.827 54.13C134.837 51.82 136.937 48.88 137.987 45.31V56.65C137.987 68.2 131.477 74.29 121.047 74.29C112.927 74.29 107.957 70.86 104.387 63.58L103.127 64.28C106.697 71.84 112.157 75.69 121.117 75.69C126.507 75.69 130.847 74.08 134.277 70.86C137.707 67.64 139.457 62.88 139.457 56.51V19.62H137.987ZM138.127 38.38C138.127 43.14 136.517 47.27 133.297 50.84C130.147 54.41 126.087 56.16 121.187 56.16C116.287 56.16 112.297 54.48 109.147 51.05C106.067 47.62 104.527 43.35 104.527 38.38V38.31C104.527 33.34 106.067 29.07 109.147 25.57C112.297 22.07 116.287 20.32 121.187 20.32C126.087 20.32 130.147 22.14 133.297 25.71C136.517 29.28 138.127 33.48 138.127 38.17V38.38Z" fill="url(#paint0_linear)"/>
<defs>
<linearGradient id="paint0_linear" x1="136" y1="-3" x2="-6" y2="57" gradientUnits="userSpaceOnUse">
<stop stop-color="white"/>
<stop offset="1" stop-color="white" stop-opacity="0.24"/>
</linearGradient>
</defs>
</svg>
