<svg width="146" height="37" viewBox="0 0 146 37" fill="none" xmlns="http://www.w3.org/2000/svg">
<path opacity="0.45" d="M25.46 0.764998H0.08V2.43H11.96V36H13.805V2.43H25.46V0.764998ZM24.2113 11.97L32.7163 36H34.5163L42.2563 14.4L49.9063 36H51.7063L60.2113 11.97H58.4563L50.8063 33.885L43.1113 11.97H41.3563L33.6163 33.885L26.1463 11.97H24.2113ZM65.4492 4.905C66.1692 5.625 67.2492 5.625 67.9242 4.95C68.6442 4.23 68.6442 3.06 67.9242 2.385C67.2492 1.665 66.1692 1.665 65.4492 2.385C64.7742 3.105 64.7742 4.185 65.4492 4.905ZM65.8092 11.97V36H67.6092V11.97H65.8092ZM85.6753 13.59V11.97H79.2403V5.085H77.4853V11.97H72.9403V13.59H77.4853V29.655C77.4853 34.02 79.5103 36.18 83.6053 36.18C84.1903 36.18 84.9103 36.09 85.6753 35.91V34.29C85.0003 34.425 84.3253 34.515 83.7403 34.515C80.7253 34.515 79.2403 32.85 79.2403 29.475V13.59H85.6753ZM101.188 13.59V11.97H94.753V5.085H92.998V11.97H88.453V13.59H92.998V29.655C92.998 34.02 95.023 36.18 99.118 36.18C99.703 36.18 100.423 36.09 101.188 35.91V34.29C100.513 34.425 99.838 34.515 99.253 34.515C96.238 34.515 94.753 32.85 94.753 29.475V13.59H101.188ZM127.379 23.895C127.379 20.43 126.479 17.505 124.634 15.12C122.789 12.735 120.044 11.565 116.354 11.565C113.114 11.565 110.369 12.78 108.119 15.255C105.914 17.73 104.789 20.565 104.789 23.85V23.94C104.789 27.36 105.914 30.285 108.164 32.76C110.459 35.19 113.294 36.405 116.714 36.405C121.079 36.405 124.859 34.2 126.704 30.78L125.174 29.79C123.554 32.805 120.449 34.74 116.804 34.74C113.879 34.74 111.449 33.705 109.559 31.635C107.669 29.565 106.724 27.135 106.679 24.3H127.379V23.895ZM106.679 22.68C106.814 20.205 107.849 18 109.694 16.11C111.584 14.175 113.789 13.23 116.264 13.23C122.834 13.23 125.309 18.36 125.534 22.68H106.679ZM144.678 11.655C142.698 11.655 140.853 12.285 139.188 13.545C137.523 14.76 136.353 16.335 135.723 18.225V11.97H133.968V36H135.723V23.895C135.723 20.97 136.533 18.54 138.108 16.515C139.683 14.49 141.933 13.455 144.768 13.455H145.128V11.7C145.038 11.655 144.903 11.655 144.678 11.655Z" fill="url(#paint0_linear)"/>
<defs>
<linearGradient id="paint0_linear" x1="13" y1="7" x2="132" y2="47" gradientUnits="userSpaceOnUse">
<stop stop-color="white"/>
<stop offset="1" stop-color="white" stop-opacity="0.22"/>
</linearGradient>
</defs>
</svg>
