<svg width="142" height="54" viewBox="0 0 142 54" fill="none" xmlns="http://www.w3.org/2000/svg">
<path opacity="0.4" d="M51.275 52.35L43.865 45.85C48.48 40.975 50.82 34.865 50.82 27.52C50.82 20.24 48.48 14.13 43.735 9.125C39.055 4.12 33.075 1.585 25.795 1.585C18.58 1.585 12.6 4.12 7.855 9.125C3.175 14.13 0.835 20.305 0.835 27.585C0.835 34.865 3.175 41.04 7.855 46.045C12.6 51.05 18.58 53.52 25.795 53.52C32.555 53.52 38.275 51.31 42.89 46.89L50.365 53.39L51.275 52.35ZM25.86 52.22C19.1 52.22 13.445 49.815 8.96 45.005C4.475 40.195 2.265 34.345 2.265 27.455C2.265 20.63 4.475 14.78 8.895 10.035C13.315 5.29 18.905 2.885 25.73 2.885C32.555 2.885 38.145 5.29 42.63 10.1C47.115 14.91 49.39 20.76 49.39 27.65C49.39 34.475 47.18 40.195 42.825 44.94L31.32 34.865L30.345 35.905L41.85 45.915C37.495 50.14 32.165 52.22 25.86 52.22ZM89.1502 53V18.29H87.7852V37.985C87.7852 42.015 86.4852 45.395 83.8202 48.19C81.2202 50.92 78.1002 52.285 74.4602 52.285C66.5952 52.285 61.7202 47.02 61.7202 38.44V18.29H60.3552V38.57C60.3552 47.93 65.5552 53.585 74.3302 53.585C77.9052 53.585 80.8302 52.545 83.1702 50.53C85.5752 48.45 87.0702 46.11 87.7852 43.575V53H89.1502ZM100.265 6.265C100.265 8.67 103.84 8.67 103.84 6.265C103.97 3.925 100.2 3.925 100.265 6.265ZM101.37 18.29V53H102.735V18.29H101.37ZM116.322 53V0.0899993H114.957V53H116.322ZM116.322 34.02L139.137 53H141.217L118.467 34.085L140.307 18.29H138.032L116.322 34.02Z" fill="url(#paint0_linear)"/>
<defs>
<linearGradient id="paint0_linear" x1="-3" y1="16" x2="137" y2="73" gradientUnits="userSpaceOnUse">
<stop stop-color="white"/>
<stop offset="0.99042" stop-color="white" stop-opacity="0.29"/>
</linearGradient>
</defs>
</svg>
