<svg width="162" height="50" viewBox="0 0 162 50" fill="none" xmlns="http://www.w3.org/2000/svg">
<path opacity="0.45" d="M16 20.575V22.285H32.245V22.42C32.245 26.38 30.85 29.575 28.06 32.05C25.27 34.48 21.895 35.695 17.98 35.695C13.435 35.695 9.7 34.12 6.82 31.015C3.985 27.865 2.545 23.95 2.545 19.27C2.545 14.77 3.985 10.945 6.865 7.795C9.745 4.645 13.435 3.07 17.98 3.07C21.76 3.07 25.135 4.375 27.295 6.355C29.5 8.335 30.985 10.45 31.84 12.79L33.46 12.025C32.47 9.235 30.625 6.76 27.97 4.6C25.315 2.44 21.985 1.36 18.025 1.36C12.94 1.36 8.755 3.115 5.515 6.58C2.275 10.045 0.655 14.32 0.655 19.405C0.655 24.535 2.275 28.81 5.47 32.23C8.71 35.65 12.85 37.36 17.89 37.36C22.705 37.36 26.575 35.92 29.59 33.04C32.605 30.16 34.09 26.56 34.09 22.285V20.575H16ZM51.2111 37.405C54.7661 37.405 57.6911 36.19 60.0311 33.805C62.3711 31.375 63.5411 28.405 63.5411 24.895C63.5411 21.43 62.3711 18.505 59.9861 16.12C57.6461 13.735 54.7211 12.565 51.2561 12.565C47.7461 12.565 44.8211 13.78 42.4361 16.165C40.0961 18.55 38.9261 21.52 38.9261 25.075C38.9261 28.54 40.0961 31.465 42.4811 33.85C44.8661 36.235 47.7461 37.405 51.2111 37.405ZM51.1661 14.23C54.1811 14.23 56.6561 15.265 58.6811 17.38C60.7061 19.45 61.6961 22.015 61.6961 25.03C61.6961 28.045 60.7061 30.565 58.7261 32.635C56.7461 34.705 54.2711 35.74 51.2561 35.74C48.2411 35.74 45.7661 34.705 43.7861 32.59C41.8061 30.475 40.8161 27.955 40.8161 24.94C40.8161 21.925 41.8061 19.405 43.7411 17.335C45.7211 15.265 48.1961 14.23 51.1661 14.23ZM80.6984 37.405C84.2534 37.405 87.1784 36.19 89.5184 33.805C91.8584 31.375 93.0284 28.405 93.0284 24.895C93.0284 21.43 91.8584 18.505 89.4734 16.12C87.1334 13.735 84.2084 12.565 80.7434 12.565C77.2334 12.565 74.3084 13.78 71.9234 16.165C69.5834 18.55 68.4134 21.52 68.4134 25.075C68.4134 28.54 69.5834 31.465 71.9684 33.85C74.3534 36.235 77.2334 37.405 80.6984 37.405ZM80.6534 14.23C83.6684 14.23 86.1434 15.265 88.1684 17.38C90.1934 19.45 91.1834 22.015 91.1834 25.03C91.1834 28.045 90.1934 30.565 88.2134 32.635C86.2334 34.705 83.7584 35.74 80.7434 35.74C77.7284 35.74 75.2534 34.705 73.2734 32.59C71.2934 30.475 70.3034 27.955 70.3034 24.94C70.3034 21.925 71.2934 19.405 73.2284 17.335C75.2084 15.265 77.6834 14.23 80.6534 14.23ZM119.636 12.97V19.27C117.971 15.265 114.101 12.565 109.556 12.565C106.136 12.565 103.346 13.735 101.186 16.12C99.0257 18.505 97.9457 21.385 97.9457 24.805C97.9457 28.225 99.0257 31.15 101.141 33.535C103.256 35.92 106.091 37.09 109.556 37.09C114.101 37.09 117.971 34.255 119.636 30.25V37C119.636 43.795 115.721 47.305 109.556 47.305C106.676 47.305 104.426 46.585 102.851 45.19C101.276 43.885 100.466 42.67 99.5207 40.735L97.9457 41.635C100.286 46.54 103.841 49.015 109.601 49.015C113.066 49.015 115.901 48.025 118.106 46C120.311 44.02 121.391 41.005 121.391 36.91V12.97H119.636ZM119.726 24.85C119.726 27.73 118.781 30.205 116.846 32.275C114.956 34.345 112.526 35.38 109.601 35.38C106.676 35.38 104.336 34.39 102.491 32.365C100.691 30.34 99.7907 27.82 99.7907 24.805V24.76C99.7907 21.745 100.691 19.225 102.491 17.245C104.336 15.265 106.676 14.275 109.601 14.275C112.571 14.275 115.001 15.31 116.891 17.38C118.781 19.45 119.726 21.925 119.726 24.76V24.85ZM131.736 0.37H129.936V37H131.736V0.37ZM161.052 24.895C161.052 21.43 160.152 18.505 158.307 16.12C156.462 13.735 153.717 12.565 150.027 12.565C146.787 12.565 144.042 13.78 141.792 16.255C139.587 18.73 138.462 21.565 138.462 24.85V24.94C138.462 28.36 139.587 31.285 141.837 33.76C144.132 36.19 146.967 37.405 150.387 37.405C154.752 37.405 158.532 35.2 160.377 31.78L158.847 30.79C157.227 33.805 154.122 35.74 150.477 35.74C147.552 35.74 145.122 34.705 143.232 32.635C141.342 30.565 140.397 28.135 140.352 25.3H161.052V24.895ZM140.352 23.68C140.487 21.205 141.522 19 143.367 17.11C145.257 15.175 147.462 14.23 149.937 14.23C156.507 14.23 158.982 19.36 159.207 23.68H140.352Z" fill="url(#paint0_linear)"/>
<defs>
<linearGradient id="paint0_linear" x1="12" y1="9" x2="155" y2="42" gradientUnits="userSpaceOnUse">
<stop stop-color="white"/>
<stop offset="1" stop-color="white" stop-opacity="0.24"/>
</linearGradient>
</defs>
</svg>
