<svg width="361" height="170" viewBox="0 0 361 170" fill="none" xmlns="http://www.w3.org/2000/svg">
<g filter="url(#filter0_d_830_446)">
<rect x="50" y="20" width="261" height="70" rx="10" fill="white"/>
</g>
<path d="M88.915 44.905L87.565 43.765C88.375 42.7 88.78 41.485 88.78 40.105C88.78 38.395 88.195 36.97 87.025 35.815C85.87 34.66 84.445 34.09 82.765 34.09C81.1 34.09 79.675 34.675 78.49 35.845C77.305 37.015 76.72 38.455 76.72 40.15C76.72 41.875 77.305 43.3 78.46 44.44C79.615 45.565 81.04 46.135 82.72 46.135C84.055 46.135 85.24 45.76 86.305 44.995L87.745 46.255L88.915 44.905ZM82.75 44.425C81.595 44.425 80.635 44.005 79.84 43.165C79.045 42.325 78.655 41.305 78.655 40.105C78.655 38.905 79.045 37.885 79.84 37.06C80.635 36.22 81.595 35.8 82.75 35.8C83.89 35.8 84.85 36.22 85.645 37.06C86.44 37.885 86.845 38.905 86.845 40.105C86.845 40.99 86.62 41.8 86.155 42.535L83.935 40.57L82.75 41.92L84.925 43.795C84.25 44.215 83.515 44.425 82.75 44.425ZM90.1452 37.99V42.91C90.1452 44.83 91.2102 46.165 93.1452 46.165C94.1652 46.165 94.9752 45.745 95.5902 44.92V46H97.3302V37.99H95.5452V42.445C95.5452 43.66 94.8252 44.47 93.7002 44.47C92.5152 44.47 91.9302 43.675 91.9302 42.475V37.99H90.1452ZM106.592 42.52C106.607 42.385 106.622 42.205 106.622 41.965C106.622 40.72 106.277 39.73 105.587 38.965C104.897 38.2 103.937 37.825 102.722 37.825C101.567 37.825 100.607 38.23 99.8423 39.04C99.0773 39.85 98.6873 40.825 98.6873 41.98C98.6873 43.165 99.0923 44.17 99.8873 44.965C100.697 45.76 101.702 46.15 102.887 46.15C104.327 46.15 105.632 45.46 106.307 44.215L105.017 43.36C104.582 44.185 103.862 44.605 102.857 44.605C102.242 44.605 101.702 44.41 101.237 44.02C100.772 43.615 100.532 43.12 100.517 42.52H106.592ZM102.722 39.355C103.862 39.355 104.747 40.045 104.807 41.17H100.607C100.772 40.075 101.627 39.355 102.722 39.355ZM110.551 46.135C111.451 46.135 112.186 45.91 112.741 45.445C113.296 44.98 113.581 44.38 113.581 43.645C113.581 42.4 112.621 41.53 110.806 41.125C109.771 40.9 109.321 40.63 109.321 40.105C109.321 39.67 109.891 39.325 110.446 39.325C111.211 39.325 111.766 39.685 112.126 40.405L113.506 39.625C112.951 38.425 111.946 37.825 110.506 37.825C109.726 37.825 109.051 38.05 108.466 38.515C107.881 38.98 107.596 39.565 107.596 40.285C107.596 40.855 107.791 41.335 108.166 41.74C108.601 42.205 109.276 42.52 110.161 42.7C111.256 42.925 111.811 43.285 111.811 43.75C111.811 44.29 111.226 44.635 110.551 44.635C109.696 44.635 109.066 44.2 108.631 43.345L107.236 44.125C107.851 45.46 108.961 46.135 110.551 46.135ZM119.233 39.595V37.99H117.268V35.515H115.483V37.99H114.013V39.595H115.483V43.42C115.483 45.16 116.503 46.09 118.258 46.09C118.603 46.09 118.933 46.03 119.218 45.925V44.41C119.023 44.455 118.828 44.47 118.648 44.47C117.733 44.47 117.268 44.095 117.268 43.135V39.595H119.233ZM120.668 36.22C121.133 36.685 121.853 36.685 122.318 36.22C122.783 35.755 122.783 35.035 122.318 34.57C121.853 34.09 121.133 34.09 120.668 34.57C120.203 35.035 120.203 35.755 120.668 36.22ZM122.393 37.99H120.608V46H122.393V37.99ZM127.973 37.825C126.803 37.825 125.798 38.23 124.973 39.025C124.148 39.82 123.728 40.81 123.728 41.98C123.728 43.15 124.133 44.14 124.958 44.935C125.783 45.73 126.788 46.135 127.958 46.135C129.143 46.135 130.133 45.73 130.943 44.935C131.768 44.125 132.173 43.135 132.173 41.95C132.173 40.78 131.768 39.805 130.943 39.01C130.118 38.215 129.128 37.825 127.973 37.825ZM126.218 40.18C126.668 39.685 127.253 39.445 127.958 39.445C128.663 39.445 129.248 39.685 129.683 40.18C130.133 40.675 130.358 41.275 130.358 41.98C130.358 42.685 130.133 43.285 129.698 43.78C129.263 44.275 128.678 44.515 127.973 44.515C127.268 44.515 126.683 44.26 126.233 43.765C125.783 43.255 125.558 42.655 125.558 41.95C125.558 41.245 125.783 40.66 126.218 40.18ZM140.724 46V41.065C140.724 39.145 139.689 37.825 137.724 37.825C136.704 37.825 135.894 38.245 135.279 39.07V37.99H133.539V46H135.324V41.545C135.324 40.33 136.044 39.52 137.169 39.52C138.354 39.52 138.939 40.315 138.939 41.515V46H140.724Z" fill="black"/>
<path d="M78.865 63.63H85.555V69H86.785V57.255H85.555V62.445H78.865V57.255H77.635V69H78.865V63.63ZM92.7819 69.135C93.9519 69.135 94.9419 68.73 95.7369 67.935C96.5319 67.14 96.9369 66.15 96.9369 64.965C96.9369 63.81 96.5319 62.85 95.7369 62.055C94.9419 61.26 93.9669 60.855 92.8119 60.855C91.6269 60.855 90.6369 61.26 89.8419 62.055C89.0469 62.85 88.6569 63.84 88.6569 65.025C88.6569 66.165 89.0469 67.14 89.8419 67.935C90.6369 68.73 91.6269 69.135 92.7819 69.135ZM92.8119 68.1C91.9569 68.1 91.2369 67.8 90.6819 67.185C90.1269 66.57 89.8569 65.82 89.8569 64.965C89.8569 64.11 90.1269 63.375 90.6819 62.775C91.2369 62.175 91.9269 61.875 92.7819 61.875C93.6369 61.875 94.3419 62.19 94.8969 62.805C95.4519 63.42 95.7369 64.17 95.7369 65.025C95.7369 65.88 95.4519 66.6 94.8969 67.2C94.3419 67.8 93.6519 68.1 92.8119 68.1ZM100.238 69H101.528L103.658 62.49H103.673L105.788 69H107.093L109.793 60.99H108.578L106.463 67.65H106.448L104.258 60.99H103.088L100.913 67.635H100.898L98.7977 60.99H97.5527L100.238 69ZM115.295 64.95C115.295 64.095 115.565 63.375 116.105 62.79C116.66 62.19 117.35 61.89 118.19 61.89C119.51 61.89 120.335 62.64 120.695 63.645L121.715 63.195C121.25 61.86 119.99 60.855 118.19 60.855C117.05 60.855 116.075 61.26 115.28 62.055C114.485 62.85 114.095 63.84 114.095 64.995C114.095 66.18 114.485 67.17 115.265 67.965C116.06 68.745 117.02 69.135 118.175 69.135C119.99 69.135 121.25 68.13 121.745 66.75L120.725 66.3C120.26 67.5 119.405 68.1 118.19 68.1C117.335 68.1 116.645 67.785 116.105 67.17C115.565 66.555 115.295 65.805 115.295 64.95ZM125.784 64.38C124.944 64.38 124.209 64.575 123.564 64.95C122.934 65.325 122.619 65.895 122.619 66.69V66.78C122.619 67.455 122.859 68.025 123.354 68.475C123.849 68.91 124.509 69.135 125.304 69.135C126.444 69.135 127.344 68.625 128.004 67.59H128.019V69H129.159V63.825C129.159 63.33 129.084 62.895 128.919 62.505C128.439 61.41 127.464 60.855 125.994 60.855C124.404 60.855 123.309 61.545 122.709 62.925L123.669 63.465C124.164 62.415 124.929 61.89 125.964 61.89C127.329 61.89 128.004 62.535 128.004 63.84V64.38H125.784ZM128.004 65.625C128.004 66.36 127.764 66.945 127.299 67.41C126.834 67.875 126.234 68.1 125.514 68.1C124.509 68.1 123.789 67.575 123.789 66.69C123.834 65.64 124.854 65.325 125.769 65.34H128.004V65.625ZM138.145 69V64.05C138.145 62.13 137.035 60.84 135.115 60.84C133.9 60.84 132.985 61.38 132.355 62.46V60.99H131.2V69H132.37V64.44C132.37 63.72 132.595 63.12 133.045 62.64C133.495 62.145 134.065 61.905 134.755 61.905C136.195 61.905 136.975 62.85 136.975 64.335V69H138.145ZM146.155 68.46L144.085 72.945H145.345L150.835 60.99H149.575L146.8 67.185L143.86 60.99H142.51L146.155 68.46ZM155.183 69.135C156.353 69.135 157.343 68.73 158.138 67.935C158.933 67.14 159.338 66.15 159.338 64.965C159.338 63.81 158.933 62.85 158.138 62.055C157.343 61.26 156.368 60.855 155.213 60.855C154.028 60.855 153.038 61.26 152.243 62.055C151.448 62.85 151.058 63.84 151.058 65.025C151.058 66.165 151.448 67.14 152.243 67.935C153.038 68.73 154.028 69.135 155.183 69.135ZM155.213 68.1C154.358 68.1 153.638 67.8 153.083 67.185C152.528 66.57 152.258 65.82 152.258 64.965C152.258 64.11 152.528 63.375 153.083 62.775C153.638 62.175 154.328 61.875 155.183 61.875C156.038 61.875 156.743 62.19 157.298 62.805C157.853 63.42 158.138 64.17 158.138 65.025C158.138 65.88 157.853 66.6 157.298 67.2C156.743 67.8 156.053 68.1 155.213 68.1ZM160.809 60.99V65.94C160.809 67.86 161.919 69.15 163.839 69.15C165.054 69.15 165.969 68.61 166.584 67.53V69H167.724V60.99H166.569V65.565C166.569 66.285 166.344 66.885 165.894 67.365C165.444 67.845 164.874 68.085 164.184 68.085C162.744 68.085 161.964 67.14 161.964 65.655V60.99H160.809ZM172.996 64.98C172.996 66.12 173.341 67.095 174.031 67.905C174.736 68.715 175.636 69.12 176.746 69.12C178.081 69.12 179.131 68.505 179.866 67.29V69H181.006V56.79H179.851V62.67C179.026 61.455 177.991 60.855 176.746 60.855C175.651 60.855 174.751 61.275 174.046 62.1C173.341 62.925 172.996 63.885 172.996 64.98ZM176.986 68.085C176.131 68.085 175.456 67.785 174.946 67.2C174.436 66.6 174.181 65.865 174.181 65.01C174.181 64.125 174.436 63.375 174.946 62.79C175.456 62.19 176.131 61.89 176.986 61.89C177.796 61.89 178.471 62.205 179.026 62.82C179.581 63.435 179.866 64.14 179.866 64.965C179.866 65.82 179.596 66.555 179.041 67.17C178.501 67.785 177.811 68.085 176.986 68.085ZM190.239 65.355C190.254 65.28 190.254 65.145 190.254 64.965C190.254 63.75 189.924 62.775 189.264 62.01C188.604 61.245 187.674 60.855 186.474 60.855C185.379 60.855 184.449 61.26 183.699 62.085C182.949 62.91 182.574 63.87 182.574 64.98C182.574 66.135 182.964 67.125 183.744 67.935C184.524 68.73 185.484 69.135 186.639 69.135C188.079 69.135 189.354 68.385 190.029 67.065L189.159 66.495C188.694 67.455 187.749 68.1 186.624 68.1C185.844 68.1 185.184 67.845 184.644 67.32C184.104 66.795 183.804 66.135 183.759 65.355H190.239ZM183.774 64.365C183.879 63.675 184.179 63.09 184.689 62.61C185.199 62.115 185.799 61.875 186.474 61.875C187.974 61.875 188.904 62.865 189.069 64.365H183.774ZM190.737 60.99V62.01H192.222V69H193.392V62.01H197.082V69H198.252V60.99H193.392V59.475C193.392 58.23 194.007 57.78 194.727 57.78C195.072 57.78 195.357 57.81 195.567 57.885V56.895C195.267 56.79 194.967 56.745 194.682 56.745C193.197 56.745 192.222 57.705 192.222 59.505V60.99H190.737ZM196.797 58.125C196.797 58.605 197.187 58.995 197.667 58.995C198.162 58.995 198.552 58.605 198.552 58.125C198.552 57.63 198.162 57.24 197.667 57.24C197.187 57.24 196.797 57.63 196.797 58.125ZM207.356 69V64.05C207.356 62.13 206.246 60.84 204.326 60.84C203.111 60.84 202.196 61.38 201.566 62.46V60.99H200.411V69H201.581V64.44C201.581 63.72 201.806 63.12 202.256 62.64C202.706 62.145 203.276 61.905 203.966 61.905C205.406 61.905 206.186 62.85 206.186 64.335V69H207.356ZM216.468 65.355C216.483 65.28 216.483 65.145 216.483 64.965C216.483 63.75 216.153 62.775 215.493 62.01C214.833 61.245 213.903 60.855 212.703 60.855C211.608 60.855 210.678 61.26 209.928 62.085C209.178 62.91 208.803 63.87 208.803 64.98C208.803 66.135 209.193 67.125 209.973 67.935C210.753 68.73 211.713 69.135 212.868 69.135C214.308 69.135 215.583 68.385 216.258 67.065L215.388 66.495C214.923 67.455 213.978 68.1 212.853 68.1C212.073 68.1 211.413 67.845 210.873 67.32C210.333 66.795 210.033 66.135 209.988 65.355H216.468ZM210.003 64.365C210.108 63.675 210.408 63.09 210.918 62.61C211.428 62.115 212.028 61.875 212.703 61.875C214.203 61.875 215.133 62.865 215.298 64.365H210.003ZM228.634 69V64.05C228.634 62.13 227.524 60.84 225.604 60.84C224.419 60.84 223.504 61.365 222.859 62.43V56.79H221.689V69H222.859V64.44C222.859 63.72 223.084 63.12 223.534 62.64C223.984 62.145 224.554 61.905 225.244 61.905C226.684 61.905 227.464 62.85 227.464 64.335V69H228.634ZM233.277 64.38C232.437 64.38 231.702 64.575 231.057 64.95C230.427 65.325 230.112 65.895 230.112 66.69V66.78C230.112 67.455 230.352 68.025 230.847 68.475C231.342 68.91 232.002 69.135 232.797 69.135C233.937 69.135 234.837 68.625 235.497 67.59H235.512V69H236.652V63.825C236.652 63.33 236.577 62.895 236.412 62.505C235.932 61.41 234.957 60.855 233.487 60.855C231.897 60.855 230.802 61.545 230.202 62.925L231.162 63.465C231.657 62.415 232.422 61.89 233.457 61.89C234.822 61.89 235.497 62.535 235.497 63.84V64.38H233.277ZM235.497 65.625C235.497 66.36 235.257 66.945 234.792 67.41C234.327 67.875 233.727 68.1 233.007 68.1C232.002 68.1 231.282 67.575 231.282 66.69C231.327 65.64 232.347 65.325 233.262 65.34H235.497V65.625ZM246.717 64.98C246.717 63.885 246.357 62.925 245.652 62.1C244.947 61.275 244.047 60.855 242.952 60.855C241.677 60.855 240.642 61.485 239.847 62.73V60.99H238.692V72.945H239.862V67.35C240.612 68.535 241.647 69.12 242.952 69.12C244.047 69.12 244.947 68.715 245.652 67.89C246.357 67.065 246.717 66.105 246.717 64.98ZM242.712 68.085C241.887 68.085 241.197 67.785 240.657 67.17C240.117 66.555 239.847 65.82 239.847 64.965C239.847 64.14 240.117 63.435 240.672 62.82C241.227 62.205 241.902 61.89 242.712 61.89C243.567 61.89 244.242 62.19 244.752 62.805C245.262 63.405 245.517 64.14 245.517 65.01C245.517 65.895 245.262 66.63 244.752 67.215C244.257 67.8 243.567 68.085 242.712 68.085ZM256.31 64.98C256.31 63.885 255.95 62.925 255.245 62.1C254.54 61.275 253.64 60.855 252.545 60.855C251.27 60.855 250.235 61.485 249.44 62.73V60.99H248.285V72.945H249.455V67.35C250.205 68.535 251.24 69.12 252.545 69.12C253.64 69.12 254.54 68.715 255.245 67.89C255.95 67.065 256.31 66.105 256.31 64.98ZM252.305 68.085C251.48 68.085 250.79 67.785 250.25 67.17C249.71 66.555 249.44 65.82 249.44 64.965C249.44 64.14 249.71 63.435 250.265 62.82C250.82 62.205 251.495 61.89 252.305 61.89C253.16 61.89 253.835 62.19 254.345 62.805C254.855 63.405 255.11 64.14 255.11 65.01C255.11 65.895 254.855 66.63 254.345 67.215C253.85 67.8 253.16 68.085 252.305 68.085ZM257.593 58.125C257.593 58.605 257.983 58.995 258.463 58.995C258.958 58.995 259.348 58.605 259.348 58.125C259.348 57.63 258.958 57.24 258.463 57.24C257.983 57.24 257.593 57.63 257.593 58.125ZM259.063 60.99H257.878V69H259.063V60.99ZM268.146 69V64.05C268.146 62.13 267.036 60.84 265.116 60.84C263.901 60.84 262.986 61.38 262.356 62.46V60.99H261.201V69H262.371V64.44C262.371 63.72 262.596 63.12 263.046 62.64C263.496 62.145 264.066 61.905 264.756 61.905C266.196 61.905 266.976 62.85 266.976 64.335V69H268.146ZM277.258 65.355C277.273 65.28 277.273 65.145 277.273 64.965C277.273 63.75 276.943 62.775 276.283 62.01C275.623 61.245 274.693 60.855 273.493 60.855C272.398 60.855 271.468 61.26 270.718 62.085C269.968 62.91 269.593 63.87 269.593 64.98C269.593 66.135 269.983 67.125 270.763 67.935C271.543 68.73 272.503 69.135 273.658 69.135C275.098 69.135 276.373 68.385 277.048 67.065L276.178 66.495C275.713 67.455 274.768 68.1 273.643 68.1C272.863 68.1 272.203 67.845 271.663 67.32C271.123 66.795 270.823 66.135 270.778 65.355H277.258ZM270.793 64.365C270.898 63.675 271.198 63.09 271.708 62.61C272.218 62.115 272.818 61.875 273.493 61.875C274.993 61.875 275.923 62.865 276.088 64.365H270.793ZM284.1 66.72C284.1 66.225 283.905 65.775 283.53 65.4C283.095 64.95 282.39 64.62 281.43 64.41C279.945 64.095 279.555 63.81 279.555 63.15C279.555 62.805 279.72 62.52 280.035 62.265C280.35 62.01 280.74 61.89 281.175 61.89C282 61.89 282.63 62.34 283.05 63.24L284.01 62.715C283.47 61.47 282.525 60.855 281.175 60.855C280.455 60.855 279.81 61.08 279.24 61.53C278.67 61.98 278.385 62.55 278.385 63.24C278.385 63.705 278.535 64.095 278.82 64.44C279.255 64.935 279.81 65.19 280.905 65.43C282.36 65.775 282.915 66.12 282.915 66.795C282.915 67.59 282.12 68.1 281.205 68.1C280.26 68.1 279.54 67.575 279.045 66.54L278.085 67.065C278.7 68.445 279.75 69.135 281.22 69.135C282.045 69.135 282.735 68.91 283.275 68.46C283.83 67.995 284.1 67.425 284.1 66.72ZM288.207 58.275C289.407 58.275 290.142 59.07 290.142 60.09C290.142 60.87 289.872 61.32 288.957 62.145L288.537 62.505C287.592 63.33 287.187 64.095 287.187 65.16V65.895H288.342V65.295C288.342 64.83 288.432 64.455 288.597 64.17C288.777 63.885 289.092 63.54 289.557 63.165C290.247 62.58 290.712 62.085 290.967 61.68C291.252 61.185 291.402 60.66 291.402 60.075C291.402 59.22 291.102 58.515 290.502 57.96C289.902 57.405 289.137 57.12 288.207 57.12C286.662 57.12 285.402 57.945 284.877 59.445L285.957 60C286.362 58.845 287.112 58.275 288.207 58.275ZM286.887 68.25C286.887 68.745 287.292 69.135 287.772 69.135C288.267 69.135 288.642 68.745 288.642 68.25C288.642 67.77 288.267 67.38 287.772 67.38C287.292 67.38 286.887 67.77 286.887 68.25Z" fill="black" fill-opacity="0.7"/>
<defs>
<filter id="filter0_d_830_446" x="0" y="0" width="361" height="170" filterUnits="userSpaceOnUse" color-interpolation-filters="sRGB">
<feFlood flood-opacity="0" result="BackgroundImageFix"/>
<feColorMatrix in="SourceAlpha" type="matrix" values="0 0 0 0 0 0 0 0 0 0 0 0 0 0 0 0 0 0 127 0" result="hardAlpha"/>
<feOffset dy="30"/>
<feGaussianBlur stdDeviation="25"/>
<feComposite in2="hardAlpha" operator="out"/>
<feColorMatrix type="matrix" values="0 0 0 0 0.374544 0 0 0 0 0.305122 0 0 0 0 0.770833 0 0 0 0.19 0"/>
<feBlend mode="normal" in2="BackgroundImageFix" result="effect1_dropShadow_830_446"/>
<feBlend mode="normal" in="SourceGraphic" in2="effect1_dropShadow_830_446" result="shape"/>
</filter>
</defs>
</svg>
