<svg width="604" height="190" viewBox="0 0 604 190" fill="none" xmlns="http://www.w3.org/2000/svg">
<g filter="url(#filter0_d_810_535)">
<rect x="40" y="20" width="524" height="110" rx="10" fill="white"/>
</g>
<circle cx="113" cy="76" r="23" fill="#DC5F78"/>
<circle cx="176" cy="76" r="22.5" stroke="#DEDEDE"/>
<circle cx="239" cy="76" r="23" fill="#A9C274"/>
<circle cx="302" cy="76" r="23" fill="#BC9DDD"/>
<mask id="path-6-inside-1_810_535" fill="white">
<path d="M352 20C352.552 20 353 20.4477 353 21V129C353 129.552 352.552 130 352 130V20Z"/>
</mask>
<path d="M352 21V129H354V21H352ZM353 130V20H351V130H353ZM352 129V131C353.105 131 354 130.105 354 129H352ZM352 21V21H354C354 19.8954 353.105 19 352 19V21Z" fill="#EEEEEE" mask="url(#path-6-inside-1_810_535)"/>
<path d="M407.224 95.32C404.387 95.32 401.859 94.168 399.64 91.864C397.421 89.56 396.312 86.8507 396.312 83.736C396.312 80.3013 397.336 77.4853 399.384 75.288C401.432 73.0693 403.971 71.96 407 71.96C409.453 71.96 411.501 72.6427 413.144 74.008C414.808 75.3733 415.64 76.6533 415.64 77.848C415.64 78.1467 415.555 78.392 415.384 78.584C415.213 78.7547 414.979 78.84 414.68 78.84C414.36 78.84 414.051 78.6373 413.752 78.232C413.453 77.8267 413.133 77.3467 412.792 76.792C412.472 76.216 412.077 75.64 411.608 75.064C411.139 74.488 410.456 73.9973 409.56 73.592C408.664 73.1867 407.608 72.984 406.392 72.984C404.152 72.984 402.232 73.9227 400.632 75.8C399.032 77.6773 398.232 79.9813 398.232 82.712C398.232 85.848 399.192 88.504 401.112 90.68C403.053 92.856 405.283 93.944 407.8 93.944C410.381 93.944 412.397 93.336 413.848 92.12V86.296C413.848 85.9547 413.656 85.6987 413.272 85.528C412.888 85.3573 412.504 85.24 412.12 85.176C411.736 85.0907 411.544 84.9947 411.544 84.888V84.76C411.544 84.504 411.757 84.376 412.184 84.376L417.08 84.408C417.464 84.408 417.656 84.5253 417.656 84.76V84.888C417.656 84.9947 417.485 85.0907 417.144 85.176C416.824 85.24 416.493 85.3573 416.152 85.528C415.832 85.6987 415.672 85.9653 415.672 86.328V91.704C415.672 92.1733 415.459 92.5893 415.032 92.952C413.112 94.5307 410.509 95.32 407.224 95.32ZM427.435 95.288C425.131 95.288 423.211 94.4773 421.675 92.856C420.16 91.2347 419.403 89.2933 419.403 87.032C419.403 84.856 420.128 83.032 421.579 81.56C423.029 80.088 424.853 79.352 427.051 79.352C429.291 79.352 431.147 80.1307 432.619 81.688C434.112 83.2453 434.859 85.176 434.859 87.48C434.859 89.72 434.165 91.5867 432.779 93.08C431.392 94.552 429.611 95.288 427.435 95.288ZM427.755 94.456C429.227 94.456 430.464 93.8587 431.467 92.664C432.469 91.448 432.971 89.9227 432.971 88.088C432.971 85.8267 432.384 83.9493 431.211 82.456C430.037 80.9413 428.555 80.184 426.763 80.184C425.184 80.184 423.872 80.7813 422.827 81.976C421.803 83.1493 421.291 84.6533 421.291 86.488C421.291 88.664 421.899 90.5413 423.115 92.12C424.331 93.6773 425.877 94.456 427.755 94.456ZM444.447 79.32C445.343 79.32 446.047 79.544 446.559 79.992C447.071 80.4187 447.327 80.9413 447.327 81.56C447.327 82.2213 447.028 82.552 446.431 82.552C446.175 82.552 445.961 82.4453 445.791 82.232C445.62 82.0187 445.492 81.7947 445.407 81.56C445.321 81.304 445.129 81.0693 444.831 80.856C444.553 80.6427 444.18 80.536 443.711 80.536C442.751 80.536 441.972 81.0053 441.375 81.944C440.777 82.8613 440.479 84.024 440.479 85.432V93.176C440.479 93.56 440.692 93.8587 441.119 94.072C441.545 94.2853 441.759 94.456 441.759 94.584V94.68C441.759 94.8933 441.545 95 441.119 95H438.143C437.737 95 437.535 94.8933 437.535 94.68V94.584C437.535 94.456 437.727 94.2853 438.111 94.072C438.495 93.8587 438.687 93.56 438.687 93.176V82.36C438.687 82.104 438.623 81.88 438.495 81.688C438.367 81.496 438.228 81.368 438.079 81.304C437.951 81.2187 437.823 81.1333 437.695 81.048C437.567 80.9413 437.503 80.8347 437.503 80.728V80.632C437.503 80.4827 437.641 80.344 437.919 80.216L439.647 79.416C440.116 79.2027 440.351 79.3307 440.351 79.8V82.488C440.692 81.464 441.215 80.6853 441.919 80.152C442.644 79.5973 443.487 79.32 444.447 79.32ZM462.709 93.176C462.709 93.56 462.901 93.88 463.285 94.136C463.669 94.3707 463.861 94.5413 463.861 94.648V94.744C463.861 94.9147 463.733 95 463.477 95H461.397C461.12 95 460.981 94.8613 460.981 94.584L460.917 92.408C460.384 93.3467 459.637 94.072 458.677 94.584C457.738 95.0747 456.736 95.32 455.669 95.32C453.664 95.32 451.936 94.5627 450.485 93.048C449.056 91.512 448.341 89.5813 448.341 87.256C448.341 84.952 449.034 83.0533 450.421 81.56C451.829 80.0667 453.621 79.32 455.797 79.32C456.842 79.32 457.813 79.5547 458.709 80.024C459.626 80.4933 460.352 81.1227 460.885 81.912V73.912C460.885 73.6133 460.821 73.368 460.693 73.176C460.565 72.984 460.426 72.856 460.277 72.792C460.128 72.7067 459.989 72.6213 459.861 72.536C459.733 72.4507 459.669 72.3547 459.669 72.248V72.184C459.669 71.992 459.808 71.8533 460.085 71.768L461.877 71.096C462.432 70.8827 462.709 71.0107 462.709 71.48V93.176ZM456.181 94.456C457.333 94.456 458.4 93.9973 459.381 93.08C460.384 92.1413 460.885 90.8827 460.885 89.304V84.824C460.885 83.7147 460.362 82.6693 459.317 81.688C458.293 80.6853 457.066 80.184 455.637 80.184C454.08 80.184 452.778 80.8027 451.733 82.04C450.709 83.256 450.186 84.8027 450.165 86.68C450.144 88.8987 450.698 90.744 451.829 92.216C452.96 93.688 454.41 94.4347 456.181 94.456ZM468.487 76.216C467.996 76.216 467.591 76.0773 467.271 75.8C466.972 75.5013 466.823 75.1173 466.823 74.648C466.823 74.1573 466.972 73.7627 467.271 73.464C467.591 73.1653 467.996 73.016 468.487 73.016C468.956 73.016 469.329 73.1653 469.607 73.464C469.905 73.7627 470.055 74.1573 470.055 74.648C470.055 75.1173 469.905 75.5013 469.607 75.8C469.329 76.0773 468.956 76.216 468.487 76.216ZM467.174 95C466.769 95 466.567 94.8827 466.567 94.648V94.52C466.567 94.392 466.663 94.2853 466.855 94.2C467.047 94.0933 467.239 93.9653 467.431 93.816C467.623 93.6453 467.719 93.4213 467.719 93.144V82.424C467.719 82.104 467.623 81.8267 467.431 81.592C467.26 81.3573 467.079 81.176 466.887 81.048C466.695 80.92 466.599 80.8133 466.599 80.728V80.632C466.599 80.5467 466.727 80.4293 466.983 80.28L468.711 79.416C469.287 79.16 469.575 79.288 469.575 79.8V93.144C469.575 93.4213 469.671 93.6453 469.863 93.816C470.076 93.9653 470.279 94.0933 470.471 94.2C470.663 94.2853 470.759 94.392 470.759 94.52V94.648C470.759 94.8827 470.556 95 470.151 95H467.174ZM478.846 95.288C477.694 95.288 476.787 94.9147 476.126 94.168C475.464 93.4213 475.134 92.312 475.134 90.84V80.632H472.67C472.414 80.632 472.286 80.504 472.286 80.248V80.024C472.286 79.768 472.414 79.64 472.67 79.64H474.014C475.208 79.64 475.859 78.648 475.966 76.664C476.008 76.2587 476.158 76.056 476.414 76.056H476.606C476.862 76.056 476.99 76.2587 476.99 76.664L477.054 79.64H481.822C482.078 79.64 482.206 79.768 482.206 80.024V80.248C482.206 80.504 482.078 80.632 481.822 80.632H477.054V90.84C477.054 91.8213 477.246 92.568 477.63 93.08C478.014 93.592 478.547 93.848 479.23 93.848C479.955 93.848 480.531 93.656 480.958 93.272C481.384 92.888 481.619 92.376 481.662 91.736C481.726 91.5013 481.886 91.384 482.142 91.384C482.419 91.384 482.558 91.5227 482.558 91.8C482.558 92.76 482.216 93.5813 481.534 94.264C480.851 94.9467 479.955 95.288 478.846 95.288ZM496.76 92.728C496.803 93.2827 496.984 93.6667 497.304 93.88C497.624 94.0933 497.923 94.232 498.2 94.296C498.499 94.3387 498.648 94.456 498.648 94.648C498.648 95.0107 498.125 95.192 497.08 95.192C496.397 95.192 495.885 95.032 495.544 94.712C495.224 94.392 495.053 93.7627 495.032 92.824C494.221 94.488 492.621 95.32 490.232 95.32C488.44 95.32 487 94.8933 485.912 94.04C484.845 93.1653 484.312 91.992 484.312 90.52C484.291 89.0267 484.824 87.864 485.912 87.032C487.021 86.2 488.451 85.784 490.2 85.784C492.035 85.784 493.432 86.2853 494.392 87.288L494.296 86.2C494.104 84.1947 493.656 82.6907 492.952 81.688C492.248 80.664 491.203 80.152 489.816 80.152C488.984 80.152 488.28 80.3333 487.704 80.696C487.149 81.0587 486.776 81.4533 486.584 81.88C486.413 82.3067 486.211 82.7013 485.976 83.064C485.763 83.4267 485.528 83.608 485.272 83.608C484.675 83.608 484.376 83.32 484.376 82.744C484.376 81.9333 484.867 81.1653 485.848 80.44C486.851 79.6933 488.173 79.32 489.816 79.32C491.693 79.32 493.176 79.9173 494.264 81.112C495.352 82.3067 495.992 83.992 496.184 86.168L496.76 92.728ZM490.584 94.456C491.821 94.456 492.824 94.104 493.592 93.4C494.36 92.696 494.733 91.8107 494.712 90.744L494.616 89.784C494.595 88.9307 494.2 88.1947 493.432 87.576C492.685 86.9573 491.704 86.648 490.488 86.648C489.208 86.648 488.173 86.9787 487.384 87.64C486.595 88.28 486.2 89.1333 486.2 90.2C486.2 91.4373 486.595 92.4613 487.384 93.272C488.195 94.0613 489.261 94.456 490.584 94.456Z" fill="black"/>
<path d="M403.12 55.128C404.336 55.128 405.312 54.792 406.048 54.104C406.784 53.416 407.152 52.584 407.152 51.624C407.152 50.84 406.864 50.136 406.288 49.512C405.664 48.824 404.608 48.296 403.136 47.928C401.232 47.432 400.464 46.824 400.464 45.688C400.464 45.064 400.72 44.552 401.232 44.152C401.744 43.752 402.352 43.56 403.056 43.56C404.432 43.56 405.392 44.232 405.92 45.56L407.04 44.936C406.448 43.352 405.072 42.328 403.088 42.328C402 42.328 401.072 42.648 400.304 43.272C399.536 43.896 399.152 44.712 399.152 45.752C399.152 47.496 400.336 48.6 402.896 49.224C404.816 49.688 405.808 50.44 405.808 51.72C405.808 52.36 405.552 52.888 405.024 53.288C404.512 53.688 403.872 53.896 403.12 53.896C401.504 53.896 400.56 53.032 399.92 51.48L398.784 52.072C399.552 54.104 400.992 55.128 403.12 55.128ZM417.007 51.112C417.023 51.032 417.023 50.888 417.023 50.696C417.023 49.4 416.671 48.36 415.967 47.544C415.263 46.728 414.271 46.312 412.991 46.312C411.823 46.312 410.831 46.744 410.031 47.624C409.231 48.504 408.831 49.528 408.831 50.712C408.831 51.944 409.247 53 410.079 53.864C410.911 54.712 411.935 55.144 413.167 55.144C414.703 55.144 416.063 54.344 416.783 52.936L415.855 52.328C415.359 53.352 414.351 54.04 413.151 54.04C412.319 54.04 411.615 53.768 411.039 53.208C410.463 52.648 410.143 51.944 410.095 51.112H417.007ZM410.111 50.056C410.223 49.32 410.543 48.696 411.087 48.184C411.631 47.656 412.271 47.4 412.991 47.4C414.591 47.4 415.583 48.456 415.759 50.056H410.111ZM420.438 41.96H419.174V55H420.438V41.96ZM430.804 51.112C430.82 51.032 430.82 50.888 430.82 50.696C430.82 49.4 430.468 48.36 429.764 47.544C429.06 46.728 428.068 46.312 426.788 46.312C425.62 46.312 424.628 46.744 423.828 47.624C423.028 48.504 422.628 49.528 422.628 50.712C422.628 51.944 423.044 53 423.876 53.864C424.708 54.712 425.732 55.144 426.964 55.144C428.5 55.144 429.86 54.344 430.58 52.936L429.652 52.328C429.156 53.352 428.148 54.04 426.948 54.04C426.116 54.04 425.412 53.768 424.836 53.208C424.26 52.648 423.94 51.944 423.892 51.112H430.804ZM423.908 50.056C424.02 49.32 424.34 48.696 424.884 48.184C425.428 47.656 426.068 47.4 426.788 47.4C428.388 47.4 429.38 48.456 429.556 50.056H423.908ZM433.627 50.68C433.627 49.768 433.914 49 434.491 48.376C435.083 47.736 435.819 47.416 436.715 47.416C438.123 47.416 439.003 48.216 439.387 49.288L440.475 48.808C439.979 47.384 438.635 46.312 436.715 46.312C435.499 46.312 434.459 46.744 433.611 47.592C432.763 48.44 432.347 49.496 432.347 50.728C432.347 51.992 432.763 53.048 433.595 53.896C434.443 54.728 435.467 55.144 436.699 55.144C438.635 55.144 439.979 54.072 440.507 52.6L439.419 52.12C438.923 53.4 438.011 54.04 436.715 54.04C435.803 54.04 435.067 53.704 434.491 53.048C433.914 52.392 433.627 51.592 433.627 50.68ZM445.463 55.064C445.831 55.064 446.167 55.016 446.439 54.936V53.896C446.263 53.944 446.007 53.96 445.671 53.96C444.743 53.96 444.279 53.56 444.279 52.76V47.56H446.439V46.456H444.279V43.992H443.047V46.456H441.463V47.56H443.047V52.792C443.047 54.312 443.847 55.064 445.463 55.064ZM460.569 48.2H454.665V43.704H461.113V42.472H453.353V55H454.665V49.416H460.569V48.2ZM466.778 55.144C468.026 55.144 469.082 54.712 469.93 53.864C470.778 53.016 471.21 51.96 471.21 50.696C471.21 49.464 470.778 48.44 469.93 47.592C469.082 46.744 468.042 46.312 466.81 46.312C465.546 46.312 464.49 46.744 463.642 47.592C462.794 48.44 462.378 49.496 462.378 50.76C462.378 51.976 462.794 53.016 463.642 53.864C464.49 54.712 465.546 55.144 466.778 55.144ZM466.81 54.04C465.898 54.04 465.13 53.72 464.538 53.064C463.946 52.408 463.658 51.608 463.658 50.696C463.658 49.784 463.946 49 464.538 48.36C465.13 47.72 465.866 47.4 466.778 47.4C467.69 47.4 468.442 47.736 469.034 48.392C469.626 49.048 469.93 49.848 469.93 50.76C469.93 51.672 469.626 52.44 469.034 53.08C468.442 53.72 467.706 54.04 466.81 54.04ZM480.816 55V49.72C480.816 47.672 479.632 46.296 477.584 46.296C476.288 46.296 475.312 46.872 474.64 48.024V46.456H473.408V55H474.656V50.136C474.656 49.368 474.896 48.728 475.376 48.216C475.856 47.688 476.464 47.432 477.2 47.432C478.736 47.432 479.568 48.44 479.568 50.024V55H480.816ZM486.431 55.064C486.799 55.064 487.135 55.016 487.407 54.936V53.896C487.231 53.944 486.975 53.96 486.639 53.96C485.711 53.96 485.247 53.56 485.247 52.76V47.56H487.407V46.456H485.247V43.992H484.015V46.456H482.431V47.56H484.015V52.792C484.015 54.312 484.815 55.064 486.431 55.064Z" fill="#D5D5D5"/>
<defs>
<filter id="filter0_d_810_535" x="0" y="0" width="604" height="190" filterUnits="userSpaceOnUse" color-interpolation-filters="sRGB">
<feFlood flood-opacity="0" result="BackgroundImageFix"/>
<feColorMatrix in="SourceAlpha" type="matrix" values="0 0 0 0 0 0 0 0 0 0 0 0 0 0 0 0 0 0 127 0" result="hardAlpha"/>
<feOffset dy="20"/>
<feGaussianBlur stdDeviation="20"/>
<feComposite in2="hardAlpha" operator="out"/>
<feColorMatrix type="matrix" values="0 0 0 0 0 0 0 0 0 0.237667 0 0 0 0 0.516667 0 0 0 0.03 0"/>
<feBlend mode="normal" in2="BackgroundImageFix" result="effect1_dropShadow_810_535"/>
<feBlend mode="normal" in="SourceGraphic" in2="effect1_dropShadow_810_535" result="shape"/>
</filter>
</defs>
</svg>
