<svg width="389" height="184" viewBox="0 0 389 184" fill="none" xmlns="http://www.w3.org/2000/svg">
<g filter="url(#filter0_d_830_448)">
<rect x="60" y="30" width="269" height="64" rx="10" fill="white"/>
</g>
<path d="M102.667 48.1279C102.772 47.8055 103.228 47.8054 103.333 48.1279L105.974 56.2566C106.195 56.9364 106.828 57.3967 107.543 57.3967L116.09 57.3967C116.429 57.3967 116.57 57.8306 116.296 58.0299L109.381 63.0537C108.803 63.4738 108.561 64.2186 108.782 64.8984L111.423 73.0271C111.528 73.3496 111.159 73.6177 110.885 73.4184L103.97 68.3946C103.392 67.9745 102.608 67.9745 102.03 68.3946L95.1155 73.4184C94.8412 73.6177 94.4721 73.3496 94.5769 73.0271L97.2181 64.8984C97.439 64.2186 97.197 63.4738 96.6187 63.0537L89.704 58.0299C89.4297 57.8306 89.5707 57.3967 89.9097 57.3967L98.4567 57.3967C99.1715 57.3967 99.8051 56.9364 100.026 56.2566L102.667 48.1279Z" stroke="#FCB858" stroke-width="1.3"/>
<path d="M148.667 48.1279C148.772 47.8055 149.228 47.8054 149.333 48.1279L151.974 56.2566C152.195 56.9364 152.828 57.3967 153.543 57.3967L162.09 57.3967C162.429 57.3967 162.57 57.8306 162.296 58.0299L155.381 63.0537C154.803 63.4738 154.561 64.2186 154.782 64.8984L157.423 73.0271C157.528 73.3496 157.159 73.6177 156.885 73.4184L149.97 68.3946C149.392 67.9745 148.608 67.9745 148.03 68.3946L141.115 73.4184C140.841 73.6177 140.472 73.3496 140.577 73.0271L143.218 64.8984C143.439 64.2186 143.197 63.4738 142.619 63.0537L135.704 58.0299C135.43 57.8306 135.571 57.3967 135.91 57.3967L144.457 57.3967C145.172 57.3967 145.805 56.9364 146.026 56.2566L148.667 48.1279Z" stroke="#FCB858" stroke-width="1.3"/>
<path d="M196.667 48.1279C196.772 47.8055 197.228 47.8054 197.333 48.1279L199.974 56.2566C200.195 56.9364 200.828 57.3967 201.543 57.3967L210.09 57.3967C210.429 57.3967 210.57 57.8306 210.296 58.0299L203.381 63.0537C202.803 63.4738 202.561 64.2186 202.782 64.8984L205.423 73.0271C205.528 73.3496 205.159 73.6177 204.885 73.4184L197.97 68.3946C197.392 67.9745 196.608 67.9745 196.03 68.3946L189.115 73.4184C188.841 73.6177 188.472 73.3496 188.577 73.0271L191.218 64.8984C191.439 64.2186 191.197 63.4738 190.619 63.0537L183.704 58.0299C183.43 57.8306 183.571 57.3967 183.91 57.3967L192.457 57.3967C193.172 57.3967 193.805 56.9364 194.026 56.2566L196.667 48.1279Z" stroke="#FCB858" stroke-width="1.3"/>
<path d="M241.667 48.1279C241.772 47.8055 242.228 47.8054 242.333 48.1279L244.974 56.2566C245.195 56.9364 245.828 57.3967 246.543 57.3967L255.09 57.3967C255.429 57.3967 255.57 57.8306 255.296 58.0299L248.381 63.0537C247.803 63.4738 247.561 64.2186 247.782 64.8984L250.423 73.0271C250.528 73.3496 250.159 73.6177 249.885 73.4184L242.97 68.3946C242.392 67.9745 241.608 67.9745 241.03 68.3946L234.115 73.4184C233.841 73.6177 233.472 73.3496 233.577 73.0271L236.218 64.8984C236.439 64.2186 236.197 63.4738 235.619 63.0537L228.704 58.0299C228.43 57.8306 228.571 57.3967 228.91 57.3967L237.457 57.3967C238.172 57.3967 238.805 56.9364 239.026 56.2566L241.667 48.1279Z" stroke="#FCB858" stroke-width="1.3"/>
<path d="M289.667 48.1279C289.772 47.8055 290.228 47.8054 290.333 48.1279L292.974 56.2566C293.195 56.9364 293.828 57.3967 294.543 57.3967L303.09 57.3967C303.429 57.3967 303.57 57.8306 303.296 58.0299L296.381 63.0537C295.803 63.4738 295.561 64.2186 295.782 64.8984L298.423 73.0271C298.528 73.3496 298.159 73.6177 297.885 73.4184L290.97 68.3946C290.392 67.9745 289.608 67.9745 289.03 68.3946L282.115 73.4184C281.841 73.6177 281.472 73.3496 281.577 73.0271L284.218 64.8984C284.439 64.2186 284.197 63.4738 283.619 63.0537L276.704 58.0299C276.43 57.8306 276.571 57.3967 276.91 57.3967L285.457 57.3967C286.172 57.3967 286.805 56.9364 287.026 56.2566L289.667 48.1279Z" stroke="#FCB858" stroke-width="1.3"/>
<defs>
<filter id="filter0_d_830_448" x="0" y="0" width="389" height="184" filterUnits="userSpaceOnUse" color-interpolation-filters="sRGB">
<feFlood flood-opacity="0" result="BackgroundImageFix"/>
<feColorMatrix in="SourceAlpha" type="matrix" values="0 0 0 0 0 0 0 0 0 0 0 0 0 0 0 0 0 0 127 0" result="hardAlpha"/>
<feOffset dy="30"/>
<feGaussianBlur stdDeviation="30"/>
<feComposite in2="hardAlpha" operator="out"/>
<feColorMatrix type="matrix" values="0 0 0 0 0 0 0 0 0 0.237667 0 0 0 0 0.516667 0 0 0 0.13 0"/>
<feBlend mode="normal" in2="BackgroundImageFix" result="effect1_dropShadow_830_448"/>
<feBlend mode="normal" in="SourceGraphic" in2="effect1_dropShadow_830_448" result="shape"/>
</filter>
</defs>
</svg>
