<svg width="333" height="297" viewBox="0 0 333 297" fill="none" xmlns="http://www.w3.org/2000/svg">
<g filter="url(#filter0_d_677_6940)">
<rect x="60" y="30" width="213" height="177" rx="10" fill="white"/>
</g>
<path d="M148.749 74H157.289L158.989 78H160.729L153.969 62.34H152.109L145.349 78H147.029L148.749 74ZM149.369 72.5L153.009 64.04L156.649 72.5H149.369ZM161.797 72.64C161.797 74.16 162.257 75.46 163.177 76.54C164.117 77.62 165.317 78.16 166.797 78.16C168.577 78.16 169.977 77.34 170.957 75.72V78H172.477V61.72H170.937V69.56C169.837 67.94 168.457 67.14 166.797 67.14C165.337 67.14 164.137 67.7 163.197 68.8C162.257 69.9 161.797 71.18 161.797 72.64ZM167.117 76.78C165.977 76.78 165.077 76.38 164.397 75.6C163.717 74.8 163.377 73.82 163.377 72.68C163.377 71.5 163.717 70.5 164.397 69.72C165.077 68.92 165.977 68.52 167.117 68.52C168.197 68.52 169.097 68.94 169.837 69.76C170.577 70.58 170.957 71.52 170.957 72.62C170.957 73.76 170.597 74.74 169.857 75.56C169.137 76.38 168.217 76.78 167.117 76.78ZM175.254 72.64C175.254 74.16 175.714 75.46 176.634 76.54C177.574 77.62 178.774 78.16 180.254 78.16C182.034 78.16 183.434 77.34 184.414 75.72V78H185.934V61.72H184.394V69.56C183.294 67.94 181.914 67.14 180.254 67.14C178.794 67.14 177.594 67.7 176.654 68.8C175.714 69.9 175.254 71.18 175.254 72.64ZM180.574 76.78C179.434 76.78 178.534 76.38 177.854 75.6C177.174 74.8 176.834 73.82 176.834 72.68C176.834 71.5 177.174 70.5 177.854 69.72C178.534 68.92 179.434 68.52 180.574 68.52C181.654 68.52 182.554 68.94 183.294 69.76C184.034 70.58 184.414 71.52 184.414 72.62C184.414 73.76 184.054 74.74 183.314 75.56C182.594 76.38 181.674 76.78 180.574 76.78ZM105.141 91.34H103.521V104.42L94.2812 91.34H92.3812V107H94.0012V93.66L103.381 107H105.141V91.34ZM118.53 102.14C118.55 102.04 118.55 101.86 118.55 101.62C118.55 100 118.11 98.7 117.23 97.68C116.35 96.66 115.11 96.14 113.51 96.14C112.05 96.14 110.81 96.68 109.81 97.78C108.81 98.88 108.31 100.16 108.31 101.64C108.31 103.18 108.83 104.5 109.87 105.58C110.91 106.64 112.19 107.18 113.73 107.18C115.65 107.18 117.35 106.18 118.25 104.42L117.09 103.66C116.47 104.94 115.21 105.8 113.71 105.8C112.67 105.8 111.79 105.46 111.07 104.76C110.35 104.06 109.95 103.18 109.89 102.14H118.53ZM109.91 100.82C110.05 99.9 110.45 99.12 111.13 98.48C111.81 97.82 112.61 97.5 113.51 97.5C115.51 97.5 116.75 98.82 116.97 100.82H109.91ZM123.305 107H125.025L127.865 98.32H127.885L130.705 107H132.445L136.045 96.32H134.425L131.605 105.2H131.585L128.665 96.32H127.105L124.205 105.18H124.185L121.385 96.32H119.725L123.305 107ZM159.035 106.14L157.055 104.44C158.315 102.94 158.955 101.18 158.955 99.12C158.955 96.88 158.195 95 156.695 93.48C155.195 91.94 153.335 91.18 151.095 91.18C148.835 91.18 146.955 91.96 145.455 93.5C143.955 95.04 143.215 96.96 143.215 99.22C143.215 101.46 143.955 103.34 145.455 104.88C146.955 106.4 148.815 107.16 151.055 107.16C152.895 107.16 154.515 106.62 155.915 105.54L157.955 107.38L159.035 106.14ZM144.915 99.12C144.915 97.34 145.495 95.84 146.655 94.6C147.815 93.34 149.275 92.72 151.055 92.72C152.835 92.72 154.315 93.36 155.495 94.62C156.675 95.88 157.255 97.42 157.255 99.22C157.255 100.8 156.795 102.2 155.855 103.38L152.815 100.64L151.715 101.86L154.715 104.48C153.675 105.24 152.475 105.62 151.095 105.62C149.315 105.62 147.835 104.98 146.655 103.72C145.495 102.46 144.915 100.92 144.915 99.12ZM161.724 96.32V102.92C161.724 105.48 163.204 107.2 165.764 107.2C167.384 107.2 168.604 106.48 169.424 105.04V107H170.944V96.32H169.404V102.42C169.404 103.38 169.104 104.18 168.504 104.82C167.904 105.46 167.144 105.78 166.224 105.78C164.304 105.78 163.264 104.52 163.264 102.54V96.32H161.724ZM183.921 102.14C183.941 102.04 183.941 101.86 183.941 101.62C183.941 100 183.501 98.7 182.621 97.68C181.741 96.66 180.501 96.14 178.901 96.14C177.441 96.14 176.201 96.68 175.201 97.78C174.201 98.88 173.701 100.16 173.701 101.64C173.701 103.18 174.221 104.5 175.261 105.58C176.301 106.64 177.581 107.18 179.121 107.18C181.041 107.18 182.741 106.18 183.641 104.42L182.481 103.66C181.861 104.94 180.601 105.8 179.101 105.8C178.061 105.8 177.181 105.46 176.461 104.76C175.741 104.06 175.341 103.18 175.281 102.14H183.921ZM175.301 100.82C175.441 99.9 175.841 99.12 176.521 98.48C177.201 97.82 178.001 97.5 178.901 97.5C180.901 97.5 182.141 98.82 182.361 100.82H175.301ZM193.709 103.96C193.709 103.3 193.449 102.7 192.949 102.2C192.369 101.6 191.429 101.16 190.149 100.88C188.169 100.46 187.649 100.08 187.649 99.2C187.649 98.74 187.869 98.36 188.289 98.02C188.709 97.68 189.229 97.52 189.809 97.52C190.909 97.52 191.749 98.12 192.309 99.32L193.589 98.62C192.869 96.96 191.609 96.14 189.809 96.14C188.849 96.14 187.989 96.44 187.229 97.04C186.469 97.64 186.089 98.4 186.089 99.32C186.089 99.94 186.289 100.46 186.669 100.92C187.249 101.58 187.989 101.92 189.449 102.24C191.389 102.7 192.129 103.16 192.129 104.06C192.129 105.12 191.069 105.8 189.849 105.8C188.589 105.8 187.629 105.1 186.969 103.72L185.689 104.42C186.509 106.26 187.909 107.18 189.869 107.18C190.969 107.18 191.889 106.88 192.609 106.28C193.349 105.66 193.709 104.9 193.709 103.96ZM200.096 107.08C200.556 107.08 200.976 107.02 201.316 106.92V105.62C201.096 105.68 200.776 105.7 200.356 105.7C199.196 105.7 198.616 105.2 198.616 104.2V97.7H201.316V96.32H198.616V93.24H197.076V96.32H195.096V97.7H197.076V104.24C197.076 106.14 198.076 107.08 200.096 107.08ZM203.573 92.5C203.573 93.14 204.093 93.66 204.733 93.66C205.393 93.66 205.913 93.14 205.913 92.5C205.913 91.84 205.393 91.32 204.733 91.32C204.093 91.32 203.573 91.84 203.573 92.5ZM205.533 96.32H203.953V107H205.533V96.32ZM213.771 107.18C215.331 107.18 216.651 106.64 217.711 105.58C218.771 104.52 219.311 103.2 219.311 101.62C219.311 100.08 218.771 98.8 217.711 97.74C216.651 96.68 215.351 96.14 213.811 96.14C212.231 96.14 210.911 96.68 209.851 97.74C208.791 98.8 208.271 100.12 208.271 101.7C208.271 103.22 208.791 104.52 209.851 105.58C210.911 106.64 212.231 107.18 213.771 107.18ZM213.811 105.8C212.671 105.8 211.711 105.4 210.971 104.58C210.231 103.76 209.871 102.76 209.871 101.62C209.871 100.48 210.231 99.5 210.971 98.7C211.711 97.9 212.631 97.5 213.771 97.5C214.911 97.5 215.851 97.92 216.591 98.74C217.331 99.56 217.711 100.56 217.711 101.7C217.711 102.84 217.331 103.8 216.591 104.6C215.851 105.4 214.931 105.8 213.811 105.8ZM231.319 107V100.4C231.319 97.84 229.839 96.12 227.279 96.12C225.659 96.12 224.439 96.84 223.599 98.28V96.32H222.059V107H223.619V100.92C223.619 99.96 223.919 99.16 224.519 98.52C225.119 97.86 225.879 97.54 226.799 97.54C228.719 97.54 229.759 98.8 229.759 100.78V107H231.319ZM241.776 103.96C241.776 103.3 241.516 102.7 241.016 102.2C240.436 101.6 239.496 101.16 238.216 100.88C236.236 100.46 235.716 100.08 235.716 99.2C235.716 98.74 235.936 98.36 236.356 98.02C236.776 97.68 237.296 97.52 237.876 97.52C238.976 97.52 239.816 98.12 240.376 99.32L241.656 98.62C240.936 96.96 239.676 96.14 237.876 96.14C236.916 96.14 236.056 96.44 235.296 97.04C234.536 97.64 234.156 98.4 234.156 99.32C234.156 99.94 234.356 100.46 234.736 100.92C235.316 101.58 236.056 101.92 237.516 102.24C239.456 102.7 240.196 103.16 240.196 104.06C240.196 105.12 239.136 105.8 237.916 105.8C236.656 105.8 235.696 105.1 235.036 103.72L233.756 104.42C234.576 106.26 235.976 107.18 237.936 107.18C239.036 107.18 239.956 106.88 240.676 106.28C241.416 105.66 241.776 104.9 241.776 103.96Z" fill="black"/>
<circle cx="167" cy="151" r="24" fill="#161616"/>
<path d="M167.228 158.478H169.778V151.44H176.85V148.924H169.778V141.954H167.228V148.924H160.156V151.44H167.228V158.478Z" fill="white"/>
<defs>
<filter id="filter0_d_677_6940" x="0" y="0" width="333" height="297" filterUnits="userSpaceOnUse" color-interpolation-filters="sRGB">
<feFlood flood-opacity="0" result="BackgroundImageFix"/>
<feColorMatrix in="SourceAlpha" type="matrix" values="0 0 0 0 0 0 0 0 0 0 0 0 0 0 0 0 0 0 127 0" result="hardAlpha"/>
<feOffset dy="30"/>
<feGaussianBlur stdDeviation="30"/>
<feComposite in2="hardAlpha" operator="out"/>
<feColorMatrix type="matrix" values="0 0 0 0 0.0522048 0 0 0 0 0.19299 0 0 0 0 0.404167 0 0 0 0.06 0"/>
<feBlend mode="normal" in2="BackgroundImageFix" result="effect1_dropShadow_677_6940"/>
<feBlend mode="normal" in="SourceGraphic" in2="effect1_dropShadow_677_6940" result="shape"/>
</filter>
</defs>
</svg>
