<svg width="500" height="541" viewBox="0 0 500 541" fill="none" xmlns="http://www.w3.org/2000/svg">
<rect width="499.076" height="540" rx="15" fill="#765EFF"/>
<path d="M0 276H500V531C500 536.523 495.523 541 490 541H9.99999C4.47714 541 0 536.523 0 531V276Z" fill="#FFE8FF"/>
<path d="M46 169H456" stroke="white" stroke-width="1.5"/>
<path d="M49.438 81.906H47.962V96H56.116V94.614H49.438V81.906ZM66.3632 91.626C66.3812 91.536 66.3812 91.374 66.3812 91.158C66.3812 89.7 65.9852 88.53 65.1932 87.612C64.4012 86.694 63.2852 86.226 61.8452 86.226C60.5312 86.226 59.4152 86.712 58.5152 87.702C57.6152 88.692 57.1652 89.844 57.1652 91.176C57.1652 92.562 57.6332 93.75 58.5692 94.722C59.5052 95.676 60.6572 96.162 62.0432 96.162C63.7712 96.162 65.3012 95.262 66.1112 93.678L65.0672 92.994C64.5092 94.146 63.3752 94.92 62.0252 94.92C61.0892 94.92 60.2972 94.614 59.6492 93.984C59.0012 93.354 58.6412 92.562 58.5872 91.626H66.3632ZM58.6052 90.438C58.7312 89.61 59.0912 88.908 59.7032 88.332C60.3152 87.738 61.0352 87.45 61.8452 87.45C63.6452 87.45 64.7612 88.638 64.9592 90.438H58.6052ZM71.991 96.072C72.405 96.072 72.783 96.018 73.089 95.928V94.758C72.891 94.812 72.603 94.83 72.225 94.83C71.181 94.83 70.659 94.38 70.659 93.48V87.63H73.089V86.388H70.659V83.616H69.273V86.388H67.491V87.63H69.273V93.516C69.273 95.226 70.173 96.072 71.991 96.072ZM75.9309 87C77.2089 86.082 77.8569 84.966 77.8569 83.652V83.58C77.8569 82.518 77.2809 81.816 76.4349 81.816C75.7329 81.816 75.1749 82.374 75.1749 83.094C75.1749 83.814 75.6609 84.282 76.3629 84.282C76.5069 84.282 76.6509 84.246 76.7949 84.192C76.6869 84.93 76.1649 85.65 75.2289 86.352L75.9309 87ZM86.0888 93.264C86.0888 92.67 85.8548 92.13 85.4048 91.68C84.8828 91.14 84.0368 90.744 82.8848 90.492C81.1028 90.114 80.6348 89.772 80.6348 88.98C80.6348 88.566 80.8328 88.224 81.2108 87.918C81.5888 87.612 82.0568 87.468 82.5788 87.468C83.5688 87.468 84.3248 88.008 84.8288 89.088L85.9808 88.458C85.3328 86.964 84.1988 86.226 82.5788 86.226C81.7148 86.226 80.9408 86.496 80.2568 87.036C79.5728 87.576 79.2308 88.26 79.2308 89.088C79.2308 89.646 79.4108 90.114 79.7528 90.528C80.2748 91.122 80.9408 91.428 82.2548 91.716C84.0008 92.13 84.6668 92.544 84.6668 93.354C84.6668 94.308 83.7128 94.92 82.6148 94.92C81.4808 94.92 80.6168 94.29 80.0228 93.048L78.8708 93.678C79.6088 95.334 80.8688 96.162 82.6328 96.162C83.6228 96.162 84.4508 95.892 85.0988 95.352C85.7648 94.794 86.0888 94.11 86.0888 93.264ZM101.163 96.09C101.163 98.448 99.7411 99.582 97.7251 99.582C96.6631 99.582 95.8171 99.258 95.2591 98.682C94.7011 98.106 94.4311 97.71 94.1251 97.044L92.9911 97.71C93.9091 99.78 95.4931 100.806 97.7431 100.806C100.713 100.806 102.567 99.078 102.567 96.036V86.388H101.181V88.404C100.209 86.946 98.9671 86.226 97.4371 86.226C96.1231 86.226 95.0431 86.712 94.1971 87.702C93.3511 88.692 92.9371 89.826 92.9371 91.14C92.9371 92.49 93.3511 93.66 94.1791 94.614C95.0071 95.568 96.0871 96.036 97.4371 96.036C99.0391 96.036 100.281 95.316 101.163 93.858V96.09ZM97.7251 94.812C96.6991 94.812 95.8891 94.47 95.2771 93.768C94.6831 93.066 94.3771 92.202 94.3771 91.176C94.3771 90.114 94.6831 89.232 95.2771 88.53C95.8711 87.828 96.6991 87.468 97.7251 87.468C98.6971 87.468 99.5071 87.828 100.173 88.566C100.839 89.304 101.181 90.15 101.181 91.122C101.181 92.13 100.857 92.994 100.191 93.732C99.5431 94.452 98.7151 94.812 97.7251 94.812ZM114.228 91.626C114.246 91.536 114.246 91.374 114.246 91.158C114.246 89.7 113.85 88.53 113.058 87.612C112.266 86.694 111.15 86.226 109.71 86.226C108.396 86.226 107.28 86.712 106.38 87.702C105.48 88.692 105.03 89.844 105.03 91.176C105.03 92.562 105.498 93.75 106.434 94.722C107.37 95.676 108.522 96.162 109.908 96.162C111.636 96.162 113.166 95.262 113.976 93.678L112.932 92.994C112.374 94.146 111.24 94.92 109.89 94.92C108.954 94.92 108.162 94.614 107.514 93.984C106.866 93.354 106.506 92.562 106.452 91.626H114.228ZM106.47 90.438C106.596 89.61 106.956 88.908 107.568 88.332C108.18 87.738 108.9 87.45 109.71 87.45C111.51 87.45 112.626 88.638 112.824 90.438H106.47ZM119.856 96.072C120.27 96.072 120.648 96.018 120.954 95.928V94.758C120.756 94.812 120.468 94.83 120.09 94.83C119.046 94.83 118.524 94.38 118.524 93.48V87.63H120.954V86.388H118.524V83.616H117.138V86.388H115.356V87.63H117.138V93.516C117.138 95.226 118.038 96.072 119.856 96.072ZM134.727 93.264C134.727 92.67 134.493 92.13 134.043 91.68C133.521 91.14 132.675 90.744 131.523 90.492C129.741 90.114 129.273 89.772 129.273 88.98C129.273 88.566 129.471 88.224 129.849 87.918C130.227 87.612 130.695 87.468 131.217 87.468C132.207 87.468 132.963 88.008 133.467 89.088L134.619 88.458C133.971 86.964 132.837 86.226 131.217 86.226C130.353 86.226 129.579 86.496 128.895 87.036C128.211 87.576 127.869 88.26 127.869 89.088C127.869 89.646 128.049 90.114 128.391 90.528C128.913 91.122 129.579 91.428 130.893 91.716C132.639 92.13 133.305 92.544 133.305 93.354C133.305 94.308 132.351 94.92 131.253 94.92C130.119 94.92 129.255 94.29 128.661 93.048L127.509 93.678C128.247 95.334 129.507 96.162 131.271 96.162C132.261 96.162 133.089 95.892 133.737 95.352C134.403 94.794 134.727 94.11 134.727 93.264ZM140.475 96.072C140.889 96.072 141.267 96.018 141.573 95.928V94.758C141.375 94.812 141.087 94.83 140.709 94.83C139.665 94.83 139.143 94.38 139.143 93.48V87.63H141.573V86.388H139.143V83.616H137.757V86.388H135.975V87.63H137.757V93.516C137.757 95.226 138.657 96.072 140.475 96.072ZM147.079 90.456C146.071 90.456 145.189 90.69 144.415 91.14C143.659 91.59 143.281 92.274 143.281 93.228V93.336C143.281 94.146 143.569 94.83 144.163 95.37C144.757 95.892 145.549 96.162 146.503 96.162C147.871 96.162 148.951 95.55 149.743 94.308H149.761V96H151.129V89.79C151.129 89.196 151.039 88.674 150.841 88.206C150.265 86.892 149.095 86.226 147.331 86.226C145.423 86.226 144.109 87.054 143.389 88.71L144.541 89.358C145.135 88.098 146.053 87.468 147.295 87.468C148.933 87.468 149.743 88.242 149.743 89.808V90.456H147.079ZM149.743 91.95C149.743 92.832 149.455 93.534 148.897 94.092C148.339 94.65 147.619 94.92 146.755 94.92C145.549 94.92 144.685 94.29 144.685 93.228C144.739 91.968 145.963 91.59 147.061 91.608H149.743V91.95ZM154.178 86.388V96H155.582V91.302C155.582 90.312 155.816 89.484 156.302 88.782C156.788 88.08 157.544 87.72 158.588 87.72C158.714 87.72 158.894 87.738 159.128 87.756V86.262C159.056 86.244 158.894 86.244 158.66 86.244C157.436 86.244 156.23 86.91 155.564 88.296V86.388H154.178ZM164.382 96.072C164.796 96.072 165.174 96.018 165.48 95.928V94.758C165.282 94.812 164.994 94.83 164.616 94.83C163.572 94.83 163.05 94.38 163.05 93.48V87.63H165.48V86.388H163.05V83.616H161.664V86.388H159.882V87.63H161.664V93.516C161.664 95.226 162.564 96.072 164.382 96.072ZM176.156 91.626C176.174 91.536 176.174 91.374 176.174 91.158C176.174 89.7 175.778 88.53 174.986 87.612C174.194 86.694 173.078 86.226 171.638 86.226C170.324 86.226 169.208 86.712 168.308 87.702C167.408 88.692 166.958 89.844 166.958 91.176C166.958 92.562 167.426 93.75 168.362 94.722C169.298 95.676 170.45 96.162 171.836 96.162C173.564 96.162 175.094 95.262 175.904 93.678L174.86 92.994C174.302 94.146 173.168 94.92 171.818 94.92C170.882 94.92 170.09 94.614 169.442 93.984C168.794 93.354 168.434 92.562 168.38 91.626H176.156ZM168.398 90.438C168.524 89.61 168.884 88.908 169.496 88.332C170.108 87.738 170.828 87.45 171.638 87.45C173.438 87.45 174.554 88.638 174.752 90.438H168.398ZM177.91 91.176C177.91 92.544 178.324 93.714 179.152 94.686C179.998 95.658 181.078 96.144 182.41 96.144C184.012 96.144 185.272 95.406 186.154 93.948V96H187.522V81.348H186.136V88.404C185.146 86.946 183.904 86.226 182.41 86.226C181.096 86.226 180.016 86.73 179.17 87.72C178.324 88.71 177.91 89.862 177.91 91.176ZM182.698 94.902C181.672 94.902 180.862 94.542 180.25 93.84C179.638 93.12 179.332 92.238 179.332 91.212C179.332 90.15 179.638 89.25 180.25 88.548C180.862 87.828 181.672 87.468 182.698 87.468C183.67 87.468 184.48 87.846 185.146 88.584C185.812 89.322 186.154 90.168 186.154 91.158C186.154 92.184 185.83 93.066 185.164 93.804C184.516 94.542 183.688 94.902 182.698 94.902ZM191.641 93.57C190.921 93.57 190.345 94.146 190.345 94.866C190.345 95.586 190.921 96.162 191.641 96.162C192.343 96.162 192.919 95.586 192.919 94.866C192.919 94.146 192.343 93.57 191.641 93.57ZM196.668 93.57C195.948 93.57 195.372 94.146 195.372 94.866C195.372 95.586 195.948 96.162 196.668 96.162C197.37 96.162 197.946 95.586 197.946 94.866C197.946 94.146 197.37 93.57 196.668 93.57ZM201.696 93.57C200.976 93.57 200.4 94.146 200.4 94.866C200.4 95.586 200.976 96.162 201.696 96.162C202.398 96.162 202.974 95.586 202.974 94.866C202.974 94.146 202.398 93.57 201.696 93.57ZM206.723 93.57C206.003 93.57 205.427 94.146 205.427 94.866C205.427 95.586 206.003 96.162 206.723 96.162C207.425 96.162 208.001 95.586 208.001 94.866C208.001 94.146 207.425 93.57 206.723 93.57ZM209.734 81.906L214.144 96H215.764L219.544 83.904L223.306 96H224.962L229.39 81.906H227.896L224.188 93.93H224.152L220.408 81.906H218.734L215.008 93.858H214.972L211.282 81.906H209.734ZM239.803 96V90.06C239.803 87.756 238.471 86.208 236.167 86.208C234.745 86.208 233.647 86.838 232.873 88.116V81.348H231.469V96H232.873V90.528C232.873 89.664 233.143 88.944 233.683 88.368C234.223 87.774 234.907 87.486 235.735 87.486C237.463 87.486 238.399 88.62 238.399 90.402V96H239.803ZM245.974 90.456C244.966 90.456 244.084 90.69 243.31 91.14C242.554 91.59 242.176 92.274 242.176 93.228V93.336C242.176 94.146 242.464 94.83 243.058 95.37C243.652 95.892 244.444 96.162 245.398 96.162C246.766 96.162 247.846 95.55 248.638 94.308H248.656V96H250.024V89.79C250.024 89.196 249.934 88.674 249.736 88.206C249.16 86.892 247.99 86.226 246.226 86.226C244.318 86.226 243.004 87.054 242.284 88.71L243.436 89.358C244.03 88.098 244.948 87.468 246.19 87.468C247.828 87.468 248.638 88.242 248.638 89.808V90.456H245.974ZM248.638 91.95C248.638 92.832 248.35 93.534 247.792 94.092C247.234 94.65 246.514 94.92 245.65 94.92C244.444 94.92 243.58 94.29 243.58 93.228C243.634 91.968 244.858 91.59 245.956 91.608H248.638V91.95ZM256.35 96.072C256.764 96.072 257.142 96.018 257.448 95.928V94.758C257.25 94.812 256.962 94.83 256.584 94.83C255.54 94.83 255.018 94.38 255.018 93.48V87.63H257.448V86.388H255.018V83.616H253.632V86.388H251.85V87.63H253.632V93.516C253.632 95.226 254.532 96.072 256.35 96.072ZM260.29 87C261.568 86.082 262.216 84.966 262.216 83.652V83.58C262.216 82.518 261.64 81.816 260.794 81.816C260.092 81.816 259.534 82.374 259.534 83.094C259.534 83.814 260.02 84.282 260.722 84.282C260.866 84.282 261.01 84.246 261.154 84.192C261.046 84.93 260.524 85.65 259.588 86.352L260.29 87ZM270.448 93.264C270.448 92.67 270.214 92.13 269.764 91.68C269.242 91.14 268.396 90.744 267.244 90.492C265.462 90.114 264.994 89.772 264.994 88.98C264.994 88.566 265.192 88.224 265.57 87.918C265.948 87.612 266.416 87.468 266.938 87.468C267.928 87.468 268.684 88.008 269.188 89.088L270.34 88.458C269.692 86.964 268.558 86.226 266.938 86.226C266.074 86.226 265.3 86.496 264.616 87.036C263.932 87.576 263.59 88.26 263.59 89.088C263.59 89.646 263.77 90.114 264.112 90.528C264.634 91.122 265.3 91.428 266.614 91.716C268.36 92.13 269.026 92.544 269.026 93.354C269.026 94.308 268.072 94.92 266.974 94.92C265.84 94.92 264.976 94.29 264.382 93.048L263.23 93.678C263.968 95.334 265.228 96.162 266.992 96.162C267.982 96.162 268.81 95.892 269.458 95.352C270.124 94.794 270.448 94.11 270.448 93.264ZM280.727 95.352L278.243 100.734H279.755L286.343 86.388H284.831L281.501 93.822L277.973 86.388H276.353L280.727 95.352ZM292.16 96.162C293.564 96.162 294.752 95.676 295.706 94.722C296.66 93.768 297.146 92.58 297.146 91.158C297.146 89.772 296.66 88.62 295.706 87.666C294.752 86.712 293.582 86.226 292.196 86.226C290.774 86.226 289.586 86.712 288.632 87.666C287.678 88.62 287.21 89.808 287.21 91.23C287.21 92.598 287.678 93.768 288.632 94.722C289.586 95.676 290.774 96.162 292.16 96.162ZM292.196 94.92C291.17 94.92 290.306 94.56 289.64 93.822C288.974 93.084 288.65 92.184 288.65 91.158C288.65 90.132 288.974 89.25 289.64 88.53C290.306 87.81 291.134 87.45 292.16 87.45C293.186 87.45 294.032 87.828 294.698 88.566C295.364 89.304 295.706 90.204 295.706 91.23C295.706 92.256 295.364 93.12 294.698 93.84C294.032 94.56 293.204 94.92 292.196 94.92ZM299.511 86.388V92.328C299.511 94.632 300.843 96.18 303.147 96.18C304.605 96.18 305.703 95.532 306.441 94.236V96H307.809V86.388H306.423V91.878C306.423 92.742 306.153 93.462 305.613 94.038C305.073 94.614 304.389 94.902 303.561 94.902C301.833 94.902 300.897 93.768 300.897 91.986V86.388H299.511ZM310.992 86.388V96H312.396V91.302C312.396 90.312 312.63 89.484 313.116 88.782C313.602 88.08 314.358 87.72 315.402 87.72C315.528 87.72 315.708 87.738 315.942 87.756V86.262C315.87 86.244 315.708 86.244 315.474 86.244C314.25 86.244 313.044 86.91 312.378 88.296V86.388H310.992ZM330.647 96V90.06C330.647 87.756 329.315 86.208 327.011 86.208C325.553 86.208 324.455 86.856 323.699 88.152V86.388H322.313V96H323.717V90.528C323.717 89.664 323.987 88.944 324.527 88.368C325.067 87.774 325.751 87.486 326.579 87.486C328.307 87.486 329.243 88.62 329.243 90.402V96H330.647ZM336.818 90.456C335.81 90.456 334.928 90.69 334.154 91.14C333.398 91.59 333.02 92.274 333.02 93.228V93.336C333.02 94.146 333.308 94.83 333.902 95.37C334.496 95.892 335.288 96.162 336.242 96.162C337.61 96.162 338.69 95.55 339.482 94.308H339.5V96H340.868V89.79C340.868 89.196 340.778 88.674 340.58 88.206C340.004 86.892 338.834 86.226 337.07 86.226C335.162 86.226 333.848 87.054 333.128 88.71L334.28 89.358C334.874 88.098 335.792 87.468 337.034 87.468C338.672 87.468 339.482 88.242 339.482 89.808V90.456H336.818ZM339.482 91.95C339.482 92.832 339.194 93.534 338.636 94.092C338.078 94.65 337.358 94.92 336.494 94.92C335.288 94.92 334.424 94.29 334.424 93.228C334.478 91.968 335.702 91.59 336.8 91.608H339.482V91.95ZM351.854 96V90.474C351.854 89.628 352.088 88.926 352.574 88.368C353.06 87.792 353.708 87.504 354.518 87.504C356.192 87.504 357.002 88.674 357.002 90.402V96H358.406V90.06C358.406 87.756 357.11 86.226 354.86 86.226C353.438 86.226 352.304 86.856 351.476 88.134C350.882 86.856 349.856 86.208 348.398 86.208C347.03 86.208 346.112 86.82 345.302 88.062V86.388H343.916V96H345.32V90.528C345.32 89.7 345.554 88.98 346.04 88.386C346.526 87.792 347.174 87.486 347.984 87.486C349.64 87.486 350.468 88.692 350.468 90.366V96H351.854ZM369.955 91.626C369.973 91.536 369.973 91.374 369.973 91.158C369.973 89.7 369.577 88.53 368.785 87.612C367.993 86.694 366.877 86.226 365.437 86.226C364.123 86.226 363.007 86.712 362.107 87.702C361.207 88.692 360.757 89.844 360.757 91.176C360.757 92.562 361.225 93.75 362.161 94.722C363.097 95.676 364.249 96.162 365.635 96.162C367.363 96.162 368.893 95.262 369.703 93.678L368.659 92.994C368.101 94.146 366.967 94.92 365.617 94.92C364.681 94.92 363.889 94.614 363.241 93.984C362.593 93.354 362.233 92.562 362.179 91.626H369.955ZM362.197 90.438C362.323 89.61 362.683 88.908 363.295 88.332C363.907 87.738 364.627 87.45 365.437 87.45C367.237 87.45 368.353 88.638 368.551 90.438H362.197ZM374.942 83.13C376.382 83.13 377.264 84.084 377.264 85.308C377.264 86.244 376.94 86.784 375.842 87.774L375.338 88.206C374.204 89.196 373.718 90.114 373.718 91.392V92.274H375.104V91.554C375.104 90.996 375.212 90.546 375.41 90.204C375.626 89.862 376.004 89.448 376.562 88.998C377.39 88.296 377.948 87.702 378.254 87.216C378.596 86.622 378.776 85.992 378.776 85.29C378.776 84.264 378.416 83.418 377.696 82.752C376.976 82.086 376.058 81.744 374.942 81.744C373.088 81.744 371.576 82.734 370.946 84.534L372.242 85.2C372.728 83.814 373.628 83.13 374.942 83.13ZM373.358 95.1C373.358 95.694 373.844 96.162 374.42 96.162C375.014 96.162 375.464 95.694 375.464 95.1C375.464 94.524 375.014 94.056 374.42 94.056C373.844 94.056 373.358 94.524 373.358 95.1Z" fill="white" fill-opacity="0.4"/>
<path d="M51.12 227.128C52.336 227.128 53.312 226.792 54.048 226.104C54.784 225.416 55.152 224.584 55.152 223.624C55.152 222.84 54.864 222.136 54.288 221.512C53.664 220.824 52.608 220.296 51.136 219.928C49.232 219.432 48.464 218.824 48.464 217.688C48.464 217.064 48.72 216.552 49.232 216.152C49.744 215.752 50.352 215.56 51.056 215.56C52.432 215.56 53.392 216.232 53.92 217.56L55.04 216.936C54.448 215.352 53.072 214.328 51.088 214.328C50 214.328 49.072 214.648 48.304 215.272C47.536 215.896 47.152 216.712 47.152 217.752C47.152 219.496 48.336 220.6 50.896 221.224C52.816 221.688 53.808 222.44 53.808 223.72C53.808 224.36 53.552 224.888 53.024 225.288C52.512 225.688 51.872 225.896 51.12 225.896C49.504 225.896 48.56 225.032 47.92 223.48L46.784 224.072C47.552 226.104 48.992 227.128 51.12 227.128ZM58.1109 222.68C58.1109 221.768 58.3989 221 58.9749 220.376C59.5669 219.736 60.3029 219.416 61.1989 219.416C62.6069 219.416 63.4869 220.216 63.8709 221.288L64.9589 220.808C64.4629 219.384 63.1189 218.312 61.1989 218.312C59.9829 218.312 58.9429 218.744 58.0949 219.592C57.2469 220.44 56.8309 221.496 56.8309 222.728C56.8309 223.992 57.2469 225.048 58.0789 225.896C58.9269 226.728 59.9509 227.144 61.1829 227.144C63.1189 227.144 64.4629 226.072 64.9909 224.6L63.9029 224.12C63.4069 225.4 62.4949 226.04 61.1989 226.04C60.2869 226.04 59.5509 225.704 58.9749 225.048C58.3989 224.392 58.1109 223.592 58.1109 222.68ZM67.0486 218.456V227H68.2966V222.824C68.2966 221.944 68.5046 221.208 68.9366 220.584C69.3686 219.96 70.0406 219.64 70.9686 219.64C71.0806 219.64 71.2406 219.656 71.4486 219.672V218.344C71.3846 218.328 71.2406 218.328 71.0326 218.328C69.9446 218.328 68.8726 218.92 68.2806 220.152V218.456H67.0486ZM76.6059 227.144C77.8539 227.144 78.9099 226.712 79.7579 225.864C80.6059 225.016 81.0379 223.96 81.0379 222.696C81.0379 221.464 80.6059 220.44 79.7579 219.592C78.9099 218.744 77.8699 218.312 76.6379 218.312C75.3739 218.312 74.3179 218.744 73.4699 219.592C72.6219 220.44 72.2059 221.496 72.2059 222.76C72.2059 223.976 72.6219 225.016 73.4699 225.864C74.3179 226.712 75.3739 227.144 76.6059 227.144ZM76.6379 226.04C75.7259 226.04 74.9579 225.72 74.3659 225.064C73.7739 224.408 73.4859 223.608 73.4859 222.696C73.4859 221.784 73.7739 221 74.3659 220.36C74.9579 219.72 75.6939 219.4 76.6059 219.4C77.5179 219.4 78.2699 219.736 78.8619 220.392C79.4539 221.048 79.7579 221.848 79.7579 222.76C79.7579 223.672 79.4539 224.44 78.8619 225.08C78.2699 225.72 77.5339 226.04 76.6379 226.04ZM84.5001 213.96H83.2361V227H84.5001V213.96ZM88.5783 213.96H87.3143V227H88.5783V213.96Z" fill="white" fill-opacity="0.4"/>
<path d="M53.02 320.66L57.64 327H59.64L54.8 320.38C56.04 320.22 57.06 319.76 57.88 318.98C58.7 318.2 59.1 317.18 59.1 315.9C59.1 314.6 58.64 313.5 57.7 312.64C56.78 311.78 55.42 311.34 53.6 311.34H48.18V327H49.82V320.66H53.02ZM49.82 312.88H53.5C56.24 312.88 57.44 314.2 57.44 315.96C57.44 316.84 57.1 317.6 56.44 318.22C55.78 318.84 54.78 319.16 53.46 319.16H49.82V312.88ZM65.6345 320.84C64.5145 320.84 63.5345 321.1 62.6745 321.6C61.8345 322.1 61.4145 322.86 61.4145 323.92V324.04C61.4145 324.94 61.7345 325.7 62.3945 326.3C63.0545 326.88 63.9345 327.18 64.9945 327.18C66.5145 327.18 67.7145 326.5 68.5945 325.12H68.6145V327H70.1345V320.1C70.1345 319.44 70.0345 318.86 69.8145 318.34C69.1745 316.88 67.8745 316.14 65.9145 316.14C63.7945 316.14 62.3345 317.06 61.5345 318.9L62.8145 319.62C63.4745 318.22 64.4945 317.52 65.8745 317.52C67.6945 317.52 68.5945 318.38 68.5945 320.12V320.84H65.6345ZM68.5945 322.5C68.5945 323.48 68.2745 324.26 67.6545 324.88C67.0345 325.5 66.2345 325.8 65.2745 325.8C63.9345 325.8 62.9745 325.1 62.9745 323.92C63.0345 322.52 64.3945 322.1 65.6145 322.12H68.5945V322.5ZM77.1641 327.08C77.6241 327.08 78.0441 327.02 78.3841 326.92V325.62C78.1641 325.68 77.8441 325.7 77.4241 325.7C76.2641 325.7 75.6841 325.2 75.6841 324.2V317.7H78.3841V316.32H75.6841V313.24H74.1441V316.32H72.1641V317.7H74.1441V324.24C74.1441 326.14 75.1441 327.08 77.1641 327.08ZM90.2469 322.14C90.2669 322.04 90.2669 321.86 90.2669 321.62C90.2669 320 89.8269 318.7 88.9469 317.68C88.0669 316.66 86.8269 316.14 85.2269 316.14C83.7669 316.14 82.5269 316.68 81.5269 317.78C80.5269 318.88 80.0269 320.16 80.0269 321.64C80.0269 323.18 80.5469 324.5 81.5869 325.58C82.6269 326.64 83.9069 327.18 85.4469 327.18C87.3669 327.18 89.0669 326.18 89.9669 324.42L88.8069 323.66C88.1869 324.94 86.9269 325.8 85.4269 325.8C84.3869 325.8 83.5069 325.46 82.7869 324.76C82.0669 324.06 81.6669 323.18 81.6069 322.14H90.2469ZM81.6269 320.82C81.7669 319.9 82.1669 319.12 82.8469 318.48C83.5269 317.82 84.3269 317.5 85.2269 317.5C87.2269 317.5 88.4669 318.82 88.6869 320.82H81.6269ZM113.601 319.12C113.601 316.88 112.841 315 111.341 313.48C109.841 311.94 107.981 311.18 105.761 311.18C103.501 311.18 101.621 311.96 100.121 313.5C98.6213 315.04 97.8613 316.96 97.8613 319.22C97.8613 321.46 98.6013 323.34 100.101 324.88C101.601 326.4 103.481 327.16 105.701 327.16C107.961 327.16 109.841 326.38 111.341 324.84C112.841 323.3 113.601 321.38 113.601 319.12ZM111.901 319.22C111.901 321 111.321 322.5 110.161 323.76C109.001 325 107.541 325.62 105.761 325.62C103.981 325.62 102.501 324.98 101.321 323.72C100.141 322.46 99.5613 320.92 99.5613 319.12C99.5613 317.34 100.141 315.84 101.301 314.6C102.461 313.34 103.921 312.72 105.701 312.72C107.481 312.72 108.961 313.36 110.141 314.62C111.321 315.88 111.901 317.42 111.901 319.22ZM116.312 316.32V322.92C116.312 325.48 117.792 327.2 120.352 327.2C121.972 327.2 123.192 326.48 124.012 325.04V327H125.532V316.32H123.992V322.42C123.992 323.38 123.692 324.18 123.092 324.82C122.492 325.46 121.732 325.78 120.812 325.78C118.892 325.78 117.852 324.52 117.852 322.54V316.32H116.312ZM129.069 316.32V327H130.629V321.78C130.629 320.68 130.889 319.76 131.429 318.98C131.969 318.2 132.809 317.8 133.969 317.8C134.109 317.8 134.309 317.82 134.569 317.84V316.18C134.489 316.16 134.309 316.16 134.049 316.16C132.689 316.16 131.349 316.9 130.609 318.44V316.32H129.069ZM143.707 327V320.88H147.027C148.847 320.88 150.267 320.42 151.287 319.52C152.307 318.6 152.807 317.44 152.807 316.04C152.807 314.72 152.347 313.6 151.407 312.7C150.467 311.8 149.107 311.34 147.307 311.34H142.067V327H143.707ZM143.707 312.88H147.167C148.587 312.88 149.587 313.2 150.207 313.82C150.827 314.44 151.127 315.2 151.127 316.1C151.127 316.98 150.787 317.74 150.107 318.4C149.427 319.04 148.427 319.36 147.087 319.36H143.707V312.88ZM155.26 316.32V327H156.82V321.78C156.82 320.68 157.08 319.76 157.62 318.98C158.16 318.2 159 317.8 160.16 317.8C160.3 317.8 160.5 317.82 160.76 317.84V316.18C160.68 316.16 160.5 316.16 160.24 316.16C158.88 316.16 157.54 316.9 156.8 318.44V316.32H155.26ZM167.207 327.18C168.767 327.18 170.087 326.64 171.147 325.58C172.207 324.52 172.747 323.2 172.747 321.62C172.747 320.08 172.207 318.8 171.147 317.74C170.087 316.68 168.787 316.14 167.247 316.14C165.667 316.14 164.347 316.68 163.287 317.74C162.227 318.8 161.707 320.12 161.707 321.7C161.707 323.22 162.227 324.52 163.287 325.58C164.347 326.64 165.667 327.18 167.207 327.18ZM167.247 325.8C166.107 325.8 165.147 325.4 164.407 324.58C163.667 323.76 163.307 322.76 163.307 321.62C163.307 320.48 163.667 319.5 164.407 318.7C165.147 317.9 166.067 317.5 167.207 317.5C168.347 317.5 169.287 317.92 170.027 318.74C170.767 319.56 171.147 320.56 171.147 321.7C171.147 322.84 170.767 323.8 170.027 324.6C169.287 325.4 168.367 325.8 167.247 325.8ZM174.734 321.64C174.734 323.16 175.194 324.46 176.114 325.54C177.054 326.62 178.254 327.16 179.734 327.16C181.514 327.16 182.914 326.34 183.894 324.72V327H185.414V310.72H183.874V318.56C182.774 316.94 181.394 316.14 179.734 316.14C178.274 316.14 177.074 316.7 176.134 317.8C175.194 318.9 174.734 320.18 174.734 321.64ZM180.054 325.78C178.914 325.78 178.014 325.38 177.334 324.6C176.654 323.8 176.314 322.82 176.314 321.68C176.314 320.5 176.654 319.5 177.334 318.72C178.014 317.92 178.914 317.52 180.054 317.52C181.134 317.52 182.034 317.94 182.774 318.76C183.514 319.58 183.894 320.52 183.894 321.62C183.894 322.76 183.534 323.74 182.794 324.56C182.074 325.38 181.154 325.78 180.054 325.78ZM188.831 316.32V322.92C188.831 325.48 190.311 327.2 192.871 327.2C194.491 327.2 195.711 326.48 196.531 325.04V327H198.051V316.32H196.511V322.42C196.511 323.38 196.211 324.18 195.611 324.82C195.011 325.46 194.251 325.78 193.331 325.78C191.411 325.78 190.371 324.52 190.371 322.54V316.32H188.831ZM202.408 321.6C202.408 320.46 202.768 319.5 203.488 318.72C204.228 317.92 205.148 317.52 206.268 317.52C208.028 317.52 209.128 318.52 209.608 319.86L210.968 319.26C210.348 317.48 208.668 316.14 206.268 316.14C204.748 316.14 203.448 316.68 202.388 317.74C201.328 318.8 200.808 320.12 200.808 321.66C200.808 323.24 201.328 324.56 202.368 325.62C203.428 326.66 204.708 327.18 206.248 327.18C208.668 327.18 210.348 325.84 211.008 324L209.648 323.4C209.028 325 207.888 325.8 206.268 325.8C205.128 325.8 204.208 325.38 203.488 324.56C202.768 323.74 202.408 322.74 202.408 321.6ZM217.203 327.08C217.663 327.08 218.083 327.02 218.423 326.92V325.62C218.203 325.68 217.883 325.7 217.463 325.7C216.303 325.7 215.723 325.2 215.723 324.2V317.7H218.423V316.32H215.723V313.24H214.183V316.32H212.203V317.7H214.183V324.24C214.183 326.14 215.183 327.08 217.203 327.08Z" fill="black"/>
<path d="M50.924 146H53.248V126.232H60.556V124.076H43.588V126.232H50.924V146ZM64.7318 144.992L60.8678 153.364H63.2198L73.4678 131.048H71.1158L65.9358 142.612L60.4478 131.048H57.9278L64.7318 144.992ZM90.4088 138.496C90.4088 136.452 89.7368 134.66 88.4208 133.12C87.1048 131.58 85.4248 130.796 83.3808 130.796C81.0008 130.796 79.0688 131.972 77.5848 134.296V131.048H75.4288V153.364H77.6128V142.92C79.0128 145.132 80.9448 146.224 83.3808 146.224C85.4248 146.224 87.1048 145.468 88.4208 143.928C89.7368 142.388 90.4088 140.596 90.4088 138.496ZM82.9328 144.292C81.3928 144.292 80.1048 143.732 79.0968 142.584C78.0888 141.436 77.5848 140.064 77.5848 138.468C77.5848 136.928 78.0888 135.612 79.1248 134.464C80.1608 133.316 81.4208 132.728 82.9328 132.728C84.5288 132.728 85.7888 133.288 86.7408 134.436C87.6928 135.556 88.1688 136.928 88.1688 138.552C88.1688 140.204 87.6928 141.576 86.7408 142.668C85.8168 143.76 84.5288 144.292 82.9328 144.292ZM106.485 139.196C106.513 139.056 106.513 138.804 106.513 138.468C106.513 136.2 105.897 134.38 104.665 132.952C103.433 131.524 101.697 130.796 99.4567 130.796C97.4127 130.796 95.6767 131.552 94.2767 133.092C92.8767 134.632 92.1767 136.424 92.1767 138.496C92.1767 140.652 92.9047 142.5 94.3607 144.012C95.8167 145.496 97.6087 146.252 99.7647 146.252C102.453 146.252 104.833 144.852 106.093 142.388L104.469 141.324C103.601 143.116 101.837 144.32 99.7367 144.32C98.2807 144.32 97.0487 143.844 96.0407 142.864C95.0327 141.884 94.4727 140.652 94.3887 139.196H106.485ZM94.4167 137.348C94.6127 136.06 95.1727 134.968 96.1247 134.072C97.0767 133.148 98.1967 132.7 99.4567 132.7C102.257 132.7 103.993 134.548 104.301 137.348H94.4167ZM120.369 144.992L116.505 153.364H118.857L129.105 131.048H126.753L121.573 142.612L116.085 131.048H113.565L120.369 144.992ZM137.154 146.252C139.338 146.252 141.186 145.496 142.67 144.012C144.154 142.528 144.91 140.68 144.91 138.468C144.91 136.312 144.154 134.52 142.67 133.036C141.186 131.552 139.366 130.796 137.21 130.796C134.998 130.796 133.15 131.552 131.666 133.036C130.182 134.52 129.454 136.368 129.454 138.58C129.454 140.708 130.182 142.528 131.666 144.012C133.15 145.496 134.998 146.252 137.154 146.252ZM137.21 144.32C135.614 144.32 134.27 143.76 133.234 142.612C132.198 141.464 131.694 140.064 131.694 138.468C131.694 136.872 132.198 135.5 133.234 134.38C134.27 133.26 135.558 132.7 137.154 132.7C138.75 132.7 140.066 133.288 141.102 134.436C142.138 135.584 142.67 136.984 142.67 138.58C142.67 140.176 142.138 141.52 141.102 142.64C140.066 143.76 138.778 144.32 137.21 144.32ZM147.589 131.048V140.288C147.589 143.872 149.661 146.28 153.245 146.28C155.513 146.28 157.221 145.272 158.369 143.256V146H160.497V131.048H158.341V139.588C158.341 140.932 157.921 142.052 157.081 142.948C156.241 143.844 155.177 144.292 153.889 144.292C151.201 144.292 149.745 142.528 149.745 139.756V131.048H147.589ZM164.448 131.048V146H166.632V138.692C166.632 137.152 166.996 135.864 167.752 134.772C168.508 133.68 169.684 133.12 171.308 133.12C171.504 133.12 171.784 133.148 172.148 133.176V130.852C172.036 130.824 171.784 130.824 171.42 130.824C169.516 130.824 167.64 131.86 166.604 134.016V131.048H164.448ZM193.022 146V136.76C193.022 133.176 190.95 130.768 187.366 130.768C185.098 130.768 183.39 131.776 182.214 133.792V131.048H180.058V146H182.242V137.488C182.242 136.144 182.662 135.024 183.502 134.128C184.342 133.204 185.406 132.756 186.694 132.756C189.382 132.756 190.838 134.52 190.838 137.292V146H193.022ZM201.621 137.376C200.053 137.376 198.681 137.74 197.477 138.44C196.301 139.14 195.713 140.204 195.713 141.688V141.856C195.713 143.116 196.161 144.18 197.085 145.02C198.009 145.832 199.241 146.252 200.725 146.252C202.853 146.252 204.533 145.3 205.765 143.368H205.793V146H207.921V136.34C207.921 135.416 207.781 134.604 207.473 133.876C206.577 131.832 204.757 130.796 202.013 130.796C199.045 130.796 197.001 132.084 195.881 134.66L197.673 135.668C198.597 133.708 200.025 132.728 201.957 132.728C204.505 132.728 205.765 133.932 205.765 136.368V137.376H201.621ZM205.765 139.7C205.765 141.072 205.317 142.164 204.449 143.032C203.581 143.9 202.461 144.32 201.117 144.32C199.241 144.32 197.897 143.34 197.897 141.688C197.981 139.728 199.885 139.14 201.593 139.168H205.765V139.7ZM224.011 146V137.404C224.011 136.088 224.375 134.996 225.131 134.128C225.887 133.232 226.895 132.784 228.155 132.784C230.759 132.784 232.019 134.604 232.019 137.292V146H234.203V136.76C234.203 133.176 232.187 130.796 228.687 130.796C226.475 130.796 224.711 131.776 223.423 133.764C222.499 131.776 220.903 130.768 218.635 130.768C216.507 130.768 215.079 131.72 213.819 133.652V131.048H211.663V146H213.847V137.488C213.847 136.2 214.211 135.08 214.967 134.156C215.723 133.232 216.731 132.756 217.991 132.756C220.567 132.756 221.855 134.632 221.855 137.236V146H224.011ZM251.168 139.196C251.196 139.056 251.196 138.804 251.196 138.468C251.196 136.2 250.58 134.38 249.348 132.952C248.116 131.524 246.38 130.796 244.14 130.796C242.096 130.796 240.36 131.552 238.96 133.092C237.56 134.632 236.86 136.424 236.86 138.496C236.86 140.652 237.588 142.5 239.044 144.012C240.5 145.496 242.292 146.252 244.448 146.252C247.136 146.252 249.516 144.852 250.776 142.388L249.152 141.324C248.284 143.116 246.52 144.32 244.42 144.32C242.964 144.32 241.732 143.844 240.724 142.864C239.716 141.884 239.156 140.652 239.072 139.196H251.168ZM239.1 137.348C239.296 136.06 239.856 134.968 240.808 134.072C241.76 133.148 242.88 132.7 244.14 132.7C246.94 132.7 248.676 134.548 248.984 137.348H239.1ZM273.744 146V136.76C273.744 133.176 271.672 130.768 268.088 130.768C265.876 130.768 264.168 131.748 262.964 133.736V123.208H260.78V146H262.964V137.488C262.964 136.144 263.384 135.024 264.224 134.128C265.064 133.204 266.128 132.756 267.416 132.756C270.104 132.756 271.56 134.52 271.56 137.292V146H273.744ZM290.688 139.196C290.716 139.056 290.716 138.804 290.716 138.468C290.716 136.2 290.1 134.38 288.868 132.952C287.636 131.524 285.9 130.796 283.66 130.796C281.616 130.796 279.88 131.552 278.48 133.092C277.08 134.632 276.38 136.424 276.38 138.496C276.38 140.652 277.108 142.5 278.564 144.012C280.02 145.496 281.812 146.252 283.968 146.252C286.656 146.252 289.036 144.852 290.296 142.388L288.672 141.324C287.804 143.116 286.04 144.32 283.94 144.32C282.484 144.32 281.252 143.844 280.244 142.864C279.236 141.884 278.676 140.652 278.592 139.196H290.688ZM278.62 137.348C278.816 136.06 279.376 134.968 280.328 134.072C281.28 133.148 282.4 132.7 283.66 132.7C286.46 132.7 288.196 134.548 288.504 137.348H278.62ZM293.48 131.048V146H295.664V138.692C295.664 137.152 296.028 135.864 296.784 134.772C297.54 133.68 298.716 133.12 300.34 133.12C300.536 133.12 300.816 133.148 301.18 133.176V130.852C301.068 130.824 300.816 130.824 300.452 130.824C298.548 130.824 296.672 131.86 295.636 134.016V131.048H293.48ZM315.813 139.196C315.841 139.056 315.841 138.804 315.841 138.468C315.841 136.2 315.225 134.38 313.993 132.952C312.761 131.524 311.025 130.796 308.785 130.796C306.741 130.796 305.005 131.552 303.605 133.092C302.205 134.632 301.505 136.424 301.505 138.496C301.505 140.652 302.233 142.5 303.689 144.012C305.145 145.496 306.937 146.252 309.093 146.252C311.781 146.252 314.161 144.852 315.421 142.388L313.797 141.324C312.929 143.116 311.165 144.32 309.065 144.32C307.609 144.32 306.377 143.844 305.369 142.864C304.361 141.884 303.801 140.652 303.717 139.196H315.813ZM303.745 137.348C303.941 136.06 304.501 134.968 305.453 134.072C306.405 133.148 307.525 132.7 308.785 132.7C311.585 132.7 313.321 134.548 313.629 137.348H303.745ZM320.061 142.22C318.941 142.22 318.045 143.116 318.045 144.236C318.045 145.356 318.941 146.252 320.061 146.252C321.153 146.252 322.049 145.356 322.049 144.236C322.049 143.116 321.153 142.22 320.061 142.22ZM326.881 142.22C325.761 142.22 324.865 143.116 324.865 144.236C324.865 145.356 325.761 146.252 326.881 146.252C327.973 146.252 328.869 145.356 328.869 144.236C328.869 143.116 327.973 142.22 326.881 142.22ZM333.701 142.22C332.581 142.22 331.685 143.116 331.685 144.236C331.685 145.356 332.581 146.252 333.701 146.252C334.793 146.252 335.689 145.356 335.689 144.236C335.689 143.116 334.793 142.22 333.701 142.22Z" fill="#E5EAF0"/>
<rect x="369" y="472" width="103" height="40" rx="5" fill="black"/>
<path d="M421 472V512" stroke="white" stroke-opacity="0.16"/>
<path d="M401 489L395.635 495L389.857 489" stroke="white" stroke-width="1.7" stroke-linecap="round"/>
<path d="M443 495L448.365 489L454.143 495" stroke="white" stroke-width="1.7" stroke-linecap="round"/>
</svg>
