<svg width="812" height="689" viewBox="0 0 812 689" fill="none" xmlns="http://www.w3.org/2000/svg">
<g opacity="0.2">
<g opacity="0.801921" filter="url(#filter0_d_806_453)">
<path fill-rule="evenodd" clip-rule="evenodd" d="M118.699 30.0601C118.699 24.5372 123.176 20.0601 128.699 20.0601H934.959C940.482 20.0601 944.959 24.5372 944.959 30.0601V401.1C944.959 406.623 940.482 411.1 934.959 411.1H128.699C123.176 411.1 118.699 406.623 118.699 401.1V30.0601Z" fill="white"/>
<path d="M128.699 20.4367H934.959C940.274 20.4367 944.583 24.7452 944.583 30.0601V401.1C944.583 406.415 940.274 410.723 934.959 410.723H128.699C123.384 410.723 119.076 406.415 119.076 401.1V30.0601C119.076 24.7452 123.384 20.4367 128.699 20.4367Z" stroke="#F2F2F2" stroke-width="0.753261"/>
</g>
<mask id="mask0_806_453" style="mask-type:alpha" maskUnits="userSpaceOnUse" x="118" y="20" width="827" height="392">
<path d="M128.699 20.4367H934.959C940.274 20.4367 944.583 24.7452 944.583 30.0601V401.1C944.583 406.415 940.274 410.723 934.959 410.723H128.699C123.384 410.723 119.076 406.415 119.076 401.1V30.0601C119.076 24.7452 123.384 20.4367 128.699 20.4367Z" fill="white" stroke="white" stroke-width="0.753261"/>
</mask>
<g mask="url(#mask0_806_453)">
</g>
</g>
<g opacity="0.5">
<g filter="url(#filter1_d_806_453)">
<path fill-rule="evenodd" clip-rule="evenodd" d="M78.2793 53.5601C78.2793 48.0372 82.7565 43.5601 88.2793 43.5601H975.379C980.902 43.5601 985.379 48.0372 985.379 53.5601V489.46C985.379 494.983 980.902 499.46 975.379 499.46H88.2793C82.7564 499.46 78.2793 494.983 78.2793 489.46V53.5601Z" fill="white"/>
<path d="M88.2793 43.9709H975.379C980.675 43.9709 984.968 48.2641 984.968 53.5601V489.46C984.968 494.756 980.675 499.049 975.379 499.049H88.2793C82.9833 499.049 78.6902 494.756 78.6902 489.46V53.5601C78.6902 48.2641 82.9834 43.9709 88.2793 43.9709Z" stroke="#F1F1F1" stroke-width="0.821739"/>
</g>
<mask id="mask1_806_453" style="mask-type:alpha" maskUnits="userSpaceOnUse" x="78" y="43" width="908" height="457">
<path d="M88.2793 43.9709H975.379C980.675 43.9709 984.968 48.2641 984.968 53.5601V489.46C984.968 494.756 980.675 499.049 975.379 499.049H88.2793C82.9833 499.049 78.6902 494.756 78.6902 489.46V53.5601C78.6902 48.2641 82.9834 43.9709 88.2793 43.9709Z" fill="white" stroke="white" stroke-width="0.821739"/>
</mask>
<g mask="url(#mask1_806_453)">
</g>
</g>
<g filter="url(#filter2_d_806_453)">
<path fill-rule="evenodd" clip-rule="evenodd" d="M51.8764 79.7314C51.4145 73.9149 56.0101 68.9399 61.845 68.9399H1003.58C1009.45 68.9399 1014.06 73.9841 1013.54 79.8376L975.86 497.878C975.395 503.032 971.075 506.98 965.9 506.98H95.037C89.8211 506.98 85.4812 502.971 85.0684 497.771L51.8764 79.7314Z" fill="black" fill-opacity="0.01"/>
</g>
<mask id="mask2_806_453" style="mask-type:alpha" maskUnits="userSpaceOnUse" x="51" y="68" width="963" height="439">
<path fill-rule="evenodd" clip-rule="evenodd" d="M51.8764 79.7314C51.4145 73.9149 56.0101 68.9399 61.845 68.9399H1003.58C1009.45 68.9399 1014.06 73.9841 1013.54 79.8376L975.86 497.878C975.395 503.032 971.075 506.98 965.9 506.98H95.037C89.8211 506.98 85.4812 502.971 85.0684 497.771L51.8764 79.7314Z" fill="white"/>
</mask>
<g mask="url(#mask2_806_453)">
</g>
<g filter="url(#filter3_d_806_453)">
<rect x="20" y="68" width="1024.6" height="610.06" rx="10" fill="white"/>
</g>
<path d="M143.382 584.492L141.534 585.143C141.436 584.499 141.121 583.918 140.589 583.4C140.057 582.868 139.322 582.602 138.384 582.602C137.558 582.602 136.872 582.84 136.326 583.316C135.78 583.792 135.507 584.38 135.507 585.08C135.507 585.626 135.668 586.088 135.99 586.466C136.326 586.844 136.802 587.103 137.418 587.243L139.644 587.726C140.876 587.992 141.828 588.496 142.5 589.238C143.172 589.966 143.508 590.855 143.508 591.905C143.508 593.109 143.032 594.145 142.08 595.013C141.128 595.881 139.889 596.315 138.363 596.315C136.697 596.315 135.388 595.881 134.436 595.013C133.498 594.131 132.952 593.088 132.798 591.884L134.772 591.254C134.856 592.15 135.206 592.906 135.822 593.522C136.438 594.138 137.278 594.446 138.342 594.446C139.322 594.446 140.078 594.222 140.61 593.774C141.142 593.326 141.408 592.759 141.408 592.073C141.408 591.513 141.219 591.03 140.841 590.624C140.463 590.204 139.91 589.917 139.182 589.763L137.061 589.301C135.955 589.063 135.073 588.594 134.415 587.894C133.757 587.194 133.428 586.305 133.428 585.227C133.428 584.051 133.904 583.022 134.856 582.14C135.822 581.244 136.984 580.796 138.342 580.796C139.868 580.796 141.037 581.167 141.849 581.909C142.661 582.651 143.172 583.512 143.382 584.492ZM150.165 587.411C149.311 587.411 148.583 587.719 147.981 588.335C147.393 588.951 147.099 589.819 147.099 590.939C147.099 592.045 147.393 592.913 147.981 593.543C148.583 594.173 149.318 594.488 150.186 594.488C151.026 594.488 151.663 594.278 152.097 593.858C152.545 593.438 152.846 592.955 153 592.409L154.743 593.165C154.463 594.005 153.931 594.74 153.147 595.37C152.377 596 151.39 596.315 150.186 596.315C148.716 596.315 147.498 595.804 146.532 594.782C145.566 593.76 145.083 592.479 145.083 590.939C145.083 589.371 145.566 588.09 146.532 587.096C147.498 586.088 148.709 585.584 150.165 585.584C151.397 585.584 152.391 585.899 153.147 586.529C153.917 587.159 154.421 587.915 154.659 588.797L152.874 589.553C152.72 588.965 152.426 588.461 151.992 588.041C151.558 587.621 150.949 587.411 150.165 587.411ZM162.666 585.794V587.894C162.372 587.852 162.085 587.831 161.805 587.831C159.957 587.831 159.033 588.867 159.033 590.939V596H157.059V585.899H158.991V587.663C159.607 586.375 160.615 585.731 162.015 585.731C162.239 585.731 162.456 585.752 162.666 585.794ZM166.746 593.606C167.362 594.236 168.111 594.551 168.993 594.551C169.875 594.551 170.617 594.236 171.219 593.606C171.835 592.962 172.143 592.073 172.143 590.939C172.143 589.819 171.835 588.944 171.219 588.314C170.617 587.67 169.875 587.348 168.993 587.348C168.111 587.348 167.362 587.67 166.746 588.314C166.144 588.944 165.843 589.819 165.843 590.939C165.843 592.073 166.144 592.962 166.746 593.606ZM165.276 587.117C166.256 586.095 167.495 585.584 168.993 585.584C170.491 585.584 171.723 586.095 172.689 587.117C173.669 588.125 174.159 589.399 174.159 590.939C174.159 592.493 173.676 593.781 172.71 594.803C171.744 595.811 170.505 596.315 168.993 596.315C167.481 596.315 166.242 595.811 165.276 594.803C164.31 593.781 163.827 592.493 163.827 590.939C163.827 589.399 164.31 588.125 165.276 587.117ZM178.659 596H176.685V580.796H178.659V596ZM183.991 596H182.017V580.796H183.991V596Z" fill="#E0E0E0"/>
<rect x="654" y="562" width="103" height="40" rx="5" fill="#FFCB8C"/>
<path d="M706 562V602" stroke="#FCBF74"/>
<path d="M686 579L680.635 585L674.857 579" stroke="black" stroke-width="1.7" stroke-linecap="round"/>
<path d="M728 585L733.365 579L739.143 585" stroke="black" stroke-width="1.7" stroke-linecap="round"/>
<path d="M136 432H759" stroke="black" stroke-width="1.5"/>
<path d="M136.584 281.208H134.616V300H145.488V298.152H136.584V281.208ZM159.151 294.168C159.175 294.048 159.175 293.832 159.175 293.544C159.175 291.6 158.647 290.04 157.591 288.816C156.535 287.592 155.047 286.968 153.127 286.968C151.375 286.968 149.887 287.616 148.687 288.936C147.487 290.256 146.887 291.792 146.887 293.568C146.887 295.416 147.511 297 148.759 298.296C150.007 299.568 151.543 300.216 153.391 300.216C155.695 300.216 157.735 299.016 158.815 296.904L157.423 295.992C156.679 297.528 155.167 298.56 153.367 298.56C152.119 298.56 151.063 298.152 150.199 297.312C149.335 296.472 148.855 295.416 148.783 294.168H159.151ZM148.807 292.584C148.975 291.48 149.455 290.544 150.271 289.776C151.087 288.984 152.047 288.6 153.127 288.6C155.527 288.6 157.015 290.184 157.279 292.584H148.807ZM166.655 300.096C167.207 300.096 167.711 300.024 168.119 299.904V298.344C167.855 298.416 167.471 298.44 166.967 298.44C165.575 298.44 164.879 297.84 164.879 296.64V288.84H168.119V287.184H164.879V283.488H163.031V287.184H160.655V288.84H163.031V296.688C163.031 298.968 164.231 300.096 166.655 300.096ZM171.908 288C173.612 286.776 174.476 285.288 174.476 283.536V283.44C174.476 282.024 173.708 281.088 172.58 281.088C171.644 281.088 170.9 281.832 170.9 282.792C170.9 283.752 171.548 284.376 172.484 284.376C172.676 284.376 172.868 284.328 173.06 284.256C172.916 285.24 172.22 286.2 170.972 287.136L171.908 288ZM185.452 296.352C185.452 295.56 185.14 294.84 184.54 294.24C183.844 293.52 182.716 292.992 181.18 292.656C178.804 292.152 178.18 291.696 178.18 290.64C178.18 290.088 178.444 289.632 178.948 289.224C179.452 288.816 180.076 288.624 180.772 288.624C182.092 288.624 183.1 289.344 183.772 290.784L185.308 289.944C184.444 287.952 182.932 286.968 180.772 286.968C179.62 286.968 178.588 287.328 177.676 288.048C176.764 288.768 176.308 289.68 176.308 290.784C176.308 291.528 176.548 292.152 177.004 292.704C177.7 293.496 178.588 293.904 180.34 294.288C182.668 294.84 183.556 295.392 183.556 296.472C183.556 297.744 182.284 298.56 180.82 298.56C179.308 298.56 178.156 297.72 177.364 296.064L175.828 296.904C176.812 299.112 178.492 300.216 180.844 300.216C182.164 300.216 183.268 299.856 184.132 299.136C185.02 298.392 185.452 297.48 185.452 296.352ZM205.551 300.12C205.551 303.264 203.655 304.776 200.967 304.776C199.551 304.776 198.423 304.344 197.679 303.576C196.935 302.808 196.575 302.28 196.167 301.392L194.655 302.28C195.879 305.04 197.991 306.408 200.991 306.408C204.951 306.408 207.423 304.104 207.423 300.048V287.184H205.575V289.872C204.279 287.928 202.623 286.968 200.583 286.968C198.831 286.968 197.391 287.616 196.263 288.936C195.135 290.256 194.583 291.768 194.583 293.52C194.583 295.32 195.135 296.88 196.239 298.152C197.343 299.424 198.783 300.048 200.583 300.048C202.719 300.048 204.375 299.088 205.551 297.144V300.12ZM200.967 298.416C199.599 298.416 198.519 297.96 197.703 297.024C196.911 296.088 196.503 294.936 196.503 293.568C196.503 292.152 196.911 290.976 197.703 290.04C198.495 289.104 199.599 288.624 200.967 288.624C202.263 288.624 203.343 289.104 204.231 290.088C205.119 291.072 205.575 292.2 205.575 293.496C205.575 294.84 205.143 295.992 204.255 296.976C203.391 297.936 202.287 298.416 200.967 298.416ZM222.971 294.168C222.995 294.048 222.995 293.832 222.995 293.544C222.995 291.6 222.467 290.04 221.411 288.816C220.355 287.592 218.867 286.968 216.947 286.968C215.195 286.968 213.707 287.616 212.507 288.936C211.307 290.256 210.707 291.792 210.707 293.568C210.707 295.416 211.331 297 212.579 298.296C213.827 299.568 215.363 300.216 217.211 300.216C219.515 300.216 221.555 299.016 222.635 296.904L221.243 295.992C220.499 297.528 218.987 298.56 217.187 298.56C215.939 298.56 214.883 298.152 214.019 297.312C213.155 296.472 212.675 295.416 212.603 294.168H222.971ZM212.627 292.584C212.795 291.48 213.275 290.544 214.091 289.776C214.907 288.984 215.867 288.6 216.947 288.6C219.347 288.6 220.835 290.184 221.099 292.584H212.627ZM230.475 300.096C231.027 300.096 231.531 300.024 231.939 299.904V298.344C231.675 298.416 231.291 298.44 230.787 298.44C229.395 298.44 228.699 297.84 228.699 296.64V288.84H231.939V287.184H228.699V283.488H226.851V287.184H224.475V288.84H226.851V296.688C226.851 298.968 228.051 300.096 230.475 300.096ZM250.303 296.352C250.303 295.56 249.991 294.84 249.391 294.24C248.695 293.52 247.567 292.992 246.031 292.656C243.655 292.152 243.031 291.696 243.031 290.64C243.031 290.088 243.295 289.632 243.799 289.224C244.303 288.816 244.927 288.624 245.623 288.624C246.943 288.624 247.951 289.344 248.623 290.784L250.159 289.944C249.295 287.952 247.783 286.968 245.623 286.968C244.471 286.968 243.439 287.328 242.527 288.048C241.615 288.768 241.159 289.68 241.159 290.784C241.159 291.528 241.399 292.152 241.855 292.704C242.551 293.496 243.439 293.904 245.191 294.288C247.519 294.84 248.407 295.392 248.407 296.472C248.407 297.744 247.135 298.56 245.671 298.56C244.159 298.56 243.007 297.72 242.215 296.064L240.679 296.904C241.663 299.112 243.343 300.216 245.695 300.216C247.015 300.216 248.119 299.856 248.983 299.136C249.871 298.392 250.303 297.48 250.303 296.352ZM257.967 300.096C258.519 300.096 259.023 300.024 259.431 299.904V298.344C259.167 298.416 258.783 298.44 258.279 298.44C256.887 298.44 256.191 297.84 256.191 296.64V288.84H259.431V287.184H256.191V283.488H254.343V287.184H251.967V288.84H254.343V296.688C254.343 298.968 255.543 300.096 257.967 300.096ZM266.772 292.608C265.428 292.608 264.252 292.92 263.22 293.52C262.212 294.12 261.708 295.032 261.708 296.304V296.448C261.708 297.528 262.092 298.44 262.884 299.16C263.676 299.856 264.732 300.216 266.004 300.216C267.828 300.216 269.268 299.4 270.324 297.744H270.348V300H272.172V291.72C272.172 290.928 272.052 290.232 271.788 289.608C271.02 287.856 269.46 286.968 267.108 286.968C264.564 286.968 262.812 288.072 261.852 290.28L263.388 291.144C264.18 289.464 265.404 288.624 267.06 288.624C269.244 288.624 270.324 289.656 270.324 291.744V292.608H266.772ZM270.324 294.6C270.324 295.776 269.94 296.712 269.196 297.456C268.452 298.2 267.492 298.56 266.34 298.56C264.732 298.56 263.58 297.72 263.58 296.304C263.652 294.624 265.284 294.12 266.748 294.144H270.324V294.6ZM276.237 287.184V300H278.109V293.736C278.109 292.416 278.421 291.312 279.069 290.376C279.717 289.44 280.725 288.96 282.117 288.96C282.285 288.96 282.525 288.984 282.837 289.008V287.016C282.741 286.992 282.525 286.992 282.213 286.992C280.581 286.992 278.973 287.88 278.085 289.728V287.184H276.237ZM289.842 300.096C290.394 300.096 290.898 300.024 291.306 299.904V298.344C291.042 298.416 290.658 298.44 290.154 298.44C288.762 298.44 288.066 297.84 288.066 296.64V288.84H291.306V287.184H288.066V283.488H286.218V287.184H283.842V288.84H286.218V296.688C286.218 298.968 287.418 300.096 289.842 300.096ZM305.542 294.168C305.566 294.048 305.566 293.832 305.566 293.544C305.566 291.6 305.038 290.04 303.982 288.816C302.926 287.592 301.438 286.968 299.518 286.968C297.766 286.968 296.278 287.616 295.078 288.936C293.878 290.256 293.278 291.792 293.278 293.568C293.278 295.416 293.902 297 295.15 298.296C296.398 299.568 297.934 300.216 299.782 300.216C302.086 300.216 304.126 299.016 305.206 296.904L303.814 295.992C303.07 297.528 301.558 298.56 299.758 298.56C298.51 298.56 297.454 298.152 296.59 297.312C295.726 296.472 295.246 295.416 295.174 294.168H305.542ZM295.198 292.584C295.366 291.48 295.846 290.544 296.662 289.776C297.478 288.984 298.438 288.6 299.518 288.6C301.918 288.6 303.406 290.184 303.67 292.584H295.198ZM307.88 293.568C307.88 295.392 308.432 296.952 309.536 298.248C310.664 299.544 312.104 300.192 313.88 300.192C316.016 300.192 317.696 299.208 318.872 297.264V300H320.696V280.464H318.848V289.872C317.528 287.928 315.872 286.968 313.88 286.968C312.128 286.968 310.688 287.64 309.56 288.96C308.432 290.28 307.88 291.816 307.88 293.568ZM314.264 298.536C312.896 298.536 311.816 298.056 311 297.12C310.184 296.16 309.776 294.984 309.776 293.616C309.776 292.2 310.184 291 311 290.064C311.816 289.104 312.896 288.624 314.264 288.624C315.56 288.624 316.64 289.128 317.528 290.112C318.416 291.096 318.872 292.224 318.872 293.544C318.872 294.912 318.44 296.088 317.552 297.072C316.688 298.056 315.584 298.536 314.264 298.536ZM326.188 296.76C325.228 296.76 324.46 297.528 324.46 298.488C324.46 299.448 325.228 300.216 326.188 300.216C327.124 300.216 327.892 299.448 327.892 298.488C327.892 297.528 327.124 296.76 326.188 296.76ZM332.891 296.76C331.931 296.76 331.163 297.528 331.163 298.488C331.163 299.448 331.931 300.216 332.891 300.216C333.827 300.216 334.595 299.448 334.595 298.488C334.595 297.528 333.827 296.76 332.891 296.76ZM339.594 296.76C338.634 296.76 337.866 297.528 337.866 298.488C337.866 299.448 338.634 300.216 339.594 300.216C340.53 300.216 341.298 299.448 341.298 298.488C341.298 297.528 340.53 296.76 339.594 296.76ZM346.298 296.76C345.338 296.76 344.57 297.528 344.57 298.488C344.57 299.448 345.338 300.216 346.298 300.216C347.234 300.216 348.002 299.448 348.002 298.488C348.002 297.528 347.234 296.76 346.298 296.76ZM350.313 281.208L356.193 300H358.353L363.393 283.872L368.409 300H370.617L376.521 281.208H374.529L369.585 297.24H369.537L364.545 281.208H362.313L357.345 297.144H357.297L352.377 281.208H350.313ZM390.404 300V292.08C390.404 289.008 388.628 286.944 385.556 286.944C383.66 286.944 382.196 287.784 381.164 289.488V280.464H379.292V300H381.164V292.704C381.164 291.552 381.524 290.592 382.244 289.824C382.964 289.032 383.876 288.648 384.98 288.648C387.284 288.648 388.532 290.16 388.532 292.536V300H390.404ZM398.632 292.608C397.288 292.608 396.112 292.92 395.08 293.52C394.072 294.12 393.568 295.032 393.568 296.304V296.448C393.568 297.528 393.952 298.44 394.744 299.16C395.536 299.856 396.592 300.216 397.864 300.216C399.688 300.216 401.128 299.4 402.184 297.744H402.208V300H404.032V291.72C404.032 290.928 403.912 290.232 403.648 289.608C402.88 287.856 401.32 286.968 398.968 286.968C396.424 286.968 394.672 288.072 393.712 290.28L395.248 291.144C396.04 289.464 397.264 288.624 398.92 288.624C401.104 288.624 402.184 289.656 402.184 291.744V292.608H398.632ZM402.184 294.6C402.184 295.776 401.8 296.712 401.056 297.456C400.312 298.2 399.352 298.56 398.2 298.56C396.592 298.56 395.44 297.72 395.44 296.304C395.512 294.624 397.144 294.12 398.608 294.144H402.184V294.6ZM412.467 300.096C413.019 300.096 413.523 300.024 413.931 299.904V298.344C413.667 298.416 413.283 298.44 412.779 298.44C411.387 298.44 410.691 297.84 410.691 296.64V288.84H413.931V287.184H410.691V283.488H408.843V287.184H406.467V288.84H408.843V296.688C408.843 298.968 410.043 300.096 412.467 300.096ZM417.72 288C419.424 286.776 420.288 285.288 420.288 283.536V283.44C420.288 282.024 419.52 281.088 418.392 281.088C417.456 281.088 416.712 281.832 416.712 282.792C416.712 283.752 417.36 284.376 418.296 284.376C418.488 284.376 418.68 284.328 418.872 284.256C418.728 285.24 418.032 286.2 416.784 287.136L417.72 288ZM431.264 296.352C431.264 295.56 430.952 294.84 430.352 294.24C429.656 293.52 428.528 292.992 426.992 292.656C424.616 292.152 423.992 291.696 423.992 290.64C423.992 290.088 424.256 289.632 424.76 289.224C425.264 288.816 425.888 288.624 426.584 288.624C427.904 288.624 428.912 289.344 429.584 290.784L431.12 289.944C430.256 287.952 428.744 286.968 426.584 286.968C425.432 286.968 424.4 287.328 423.488 288.048C422.576 288.768 422.12 289.68 422.12 290.784C422.12 291.528 422.36 292.152 422.816 292.704C423.512 293.496 424.4 293.904 426.152 294.288C428.48 294.84 429.368 295.392 429.368 296.472C429.368 297.744 428.096 298.56 426.632 298.56C425.12 298.56 423.968 297.72 423.176 296.064L421.64 296.904C422.624 299.112 424.304 300.216 426.656 300.216C427.976 300.216 429.08 299.856 429.944 299.136C430.832 298.392 431.264 297.48 431.264 296.352ZM444.969 299.136L441.657 306.312H443.673L452.457 287.184H450.441L446.001 297.096L441.297 287.184H439.137L444.969 299.136ZM460.214 300.216C462.086 300.216 463.67 299.568 464.942 298.296C466.214 297.024 466.862 295.44 466.862 293.544C466.862 291.696 466.214 290.16 464.942 288.888C463.67 287.616 462.11 286.968 460.262 286.968C458.366 286.968 456.782 287.616 455.51 288.888C454.238 290.16 453.614 291.744 453.614 293.64C453.614 295.464 454.238 297.024 455.51 298.296C456.782 299.568 458.366 300.216 460.214 300.216ZM460.262 298.56C458.894 298.56 457.742 298.08 456.854 297.096C455.965 296.112 455.534 294.912 455.534 293.544C455.534 292.176 455.965 291 456.854 290.04C457.742 289.08 458.846 288.6 460.214 288.6C461.582 288.6 462.71 289.104 463.598 290.088C464.486 291.072 464.942 292.272 464.942 293.64C464.942 295.008 464.486 296.16 463.598 297.12C462.71 298.08 461.606 298.56 460.262 298.56ZM470.015 287.184V295.104C470.015 298.176 471.791 300.24 474.863 300.24C476.807 300.24 478.271 299.376 479.255 297.648V300H481.079V287.184H479.231V294.504C479.231 295.656 478.871 296.616 478.151 297.384C477.431 298.152 476.519 298.536 475.415 298.536C473.111 298.536 471.863 297.024 471.863 294.648V287.184H470.015ZM485.323 287.184V300H487.195V293.736C487.195 292.416 487.507 291.312 488.155 290.376C488.803 289.44 489.811 288.96 491.203 288.96C491.371 288.96 491.611 288.984 491.923 289.008V287.016C491.827 286.992 491.611 286.992 491.299 286.992C489.667 286.992 488.059 287.88 487.171 289.728V287.184H485.323ZM511.529 300V292.08C511.529 289.008 509.753 286.944 506.681 286.944C504.737 286.944 503.273 287.808 502.265 289.536V287.184H500.417V300H502.289V292.704C502.289 291.552 502.649 290.592 503.369 289.824C504.089 289.032 505.001 288.648 506.105 288.648C508.409 288.648 509.657 290.16 509.657 292.536V300H511.529ZM519.757 292.608C518.413 292.608 517.237 292.92 516.205 293.52C515.197 294.12 514.693 295.032 514.693 296.304V296.448C514.693 297.528 515.077 298.44 515.869 299.16C516.661 299.856 517.717 300.216 518.989 300.216C520.813 300.216 522.253 299.4 523.309 297.744H523.333V300H525.157V291.72C525.157 290.928 525.037 290.232 524.773 289.608C524.005 287.856 522.445 286.968 520.093 286.968C517.549 286.968 515.797 288.072 514.837 290.28L516.373 291.144C517.165 289.464 518.389 288.624 520.045 288.624C522.229 288.624 523.309 289.656 523.309 291.744V292.608H519.757ZM523.309 294.6C523.309 295.776 522.925 296.712 522.181 297.456C521.437 298.2 520.477 298.56 519.325 298.56C517.717 298.56 516.565 297.72 516.565 296.304C516.637 294.624 518.269 294.12 519.733 294.144H523.309V294.6ZM539.805 300V292.632C539.805 291.504 540.117 290.568 540.765 289.824C541.413 289.056 542.277 288.672 543.357 288.672C545.589 288.672 546.669 290.232 546.669 292.536V300H548.541V292.08C548.541 289.008 546.813 286.968 543.813 286.968C541.917 286.968 540.405 287.808 539.301 289.512C538.509 287.808 537.141 286.944 535.197 286.944C533.373 286.944 532.149 287.76 531.069 289.416V287.184H529.221V300H531.093V292.704C531.093 291.6 531.405 290.64 532.053 289.848C532.701 289.056 533.565 288.648 534.645 288.648C536.853 288.648 537.957 290.256 537.957 292.488V300H539.805ZM563.94 294.168C563.964 294.048 563.964 293.832 563.964 293.544C563.964 291.6 563.436 290.04 562.38 288.816C561.324 287.592 559.836 286.968 557.916 286.968C556.164 286.968 554.676 287.616 553.476 288.936C552.276 290.256 551.676 291.792 551.676 293.568C551.676 295.416 552.3 297 553.548 298.296C554.796 299.568 556.332 300.216 558.18 300.216C560.484 300.216 562.524 299.016 563.604 296.904L562.212 295.992C561.468 297.528 559.956 298.56 558.156 298.56C556.908 298.56 555.852 298.152 554.988 297.312C554.124 296.472 553.644 295.416 553.572 294.168H563.94ZM553.596 292.584C553.764 291.48 554.244 290.544 555.06 289.776C555.876 288.984 556.836 288.6 557.916 288.6C560.316 288.6 561.804 290.184 562.068 292.584H553.596ZM570.589 282.84C572.509 282.84 573.685 284.112 573.685 285.744C573.685 286.992 573.253 287.712 571.789 289.032L571.117 289.608C569.605 290.928 568.957 292.152 568.957 293.856V295.032H570.805V294.072C570.805 293.328 570.949 292.728 571.213 292.272C571.501 291.816 572.005 291.264 572.749 290.664C573.853 289.728 574.597 288.936 575.005 288.288C575.461 287.496 575.701 286.656 575.701 285.72C575.701 284.352 575.221 283.224 574.261 282.336C573.301 281.448 572.077 280.992 570.589 280.992C568.117 280.992 566.101 282.312 565.261 284.712L566.989 285.6C567.637 283.752 568.837 282.84 570.589 282.84ZM568.477 298.8C568.477 299.592 569.125 300.216 569.893 300.216C570.685 300.216 571.285 299.592 571.285 298.8C571.285 298.032 570.685 297.408 569.893 297.408C569.125 297.408 568.477 298.032 568.477 298.8Z" fill="black"/>
<path d="M147.056 392H149.712V369.408H158.064V366.944H138.672V369.408H147.056V392ZM162.979 390.848L158.563 400.416H161.251L172.963 374.912H170.275L164.355 388.128L158.083 374.912H155.203L162.979 390.848ZM192.467 383.424C192.467 381.088 191.699 379.04 190.195 377.28C188.691 375.52 186.771 374.624 184.435 374.624C181.715 374.624 179.507 375.968 177.811 378.624V374.912H175.347V400.416H177.843V388.48C179.443 391.008 181.651 392.256 184.435 392.256C186.771 392.256 188.691 391.392 190.195 389.632C191.699 387.872 192.467 385.824 192.467 383.424ZM183.923 390.048C182.163 390.048 180.691 389.408 179.539 388.096C178.387 386.784 177.811 385.216 177.811 383.392C177.811 381.632 178.387 380.128 179.571 378.816C180.755 377.504 182.195 376.832 183.923 376.832C185.747 376.832 187.187 377.472 188.275 378.784C189.363 380.064 189.907 381.632 189.907 383.488C189.907 385.376 189.363 386.944 188.275 388.192C187.219 389.44 185.747 390.048 183.923 390.048ZM210.983 384.224C211.015 384.064 211.015 383.776 211.015 383.392C211.015 380.8 210.311 378.72 208.903 377.088C207.495 375.456 205.511 374.624 202.951 374.624C200.615 374.624 198.631 375.488 197.031 377.248C195.431 379.008 194.631 381.056 194.631 383.424C194.631 385.888 195.463 388 197.127 389.728C198.791 391.424 200.839 392.288 203.303 392.288C206.375 392.288 209.095 390.688 210.535 387.872L208.679 386.656C207.687 388.704 205.671 390.08 203.271 390.08C201.607 390.08 200.199 389.536 199.047 388.416C197.895 387.296 197.255 385.888 197.159 384.224H210.983ZM197.191 382.112C197.415 380.64 198.055 379.392 199.143 378.368C200.231 377.312 201.51 376.8 202.951 376.8C206.151 376.8 208.135 378.912 208.487 382.112H197.191ZM227.135 390.848L222.72 400.416H225.408L237.12 374.912H234.432L228.512 388.128L222.24 374.912H219.36L227.135 390.848ZM246.462 392.288C248.958 392.288 251.07 391.424 252.766 389.728C254.462 388.032 255.326 385.92 255.326 383.392C255.326 380.928 254.462 378.88 252.766 377.184C251.07 375.488 248.99 374.624 246.526 374.624C243.998 374.624 241.886 375.488 240.19 377.184C238.494 378.88 237.662 380.992 237.662 383.52C237.662 385.952 238.494 388.032 240.19 389.728C241.886 391.424 243.998 392.288 246.462 392.288ZM246.526 390.08C244.702 390.08 243.166 389.44 241.982 388.128C240.798 386.816 240.222 385.216 240.222 383.392C240.222 381.568 240.798 380 241.982 378.72C243.166 377.44 244.638 376.8 246.462 376.8C248.286 376.8 249.79 377.472 250.974 378.784C252.158 380.096 252.766 381.696 252.766 383.52C252.766 385.344 252.158 386.88 250.974 388.16C249.79 389.44 248.318 390.08 246.526 390.08ZM258.53 374.912V385.472C258.53 389.568 260.898 392.32 264.994 392.32C267.586 392.32 269.538 391.168 270.85 388.864V392H273.282V374.912H270.818V384.672C270.818 386.208 270.338 387.488 269.378 388.512C268.418 389.536 267.202 390.048 265.73 390.048C262.658 390.048 260.994 388.032 260.994 384.864V374.912H258.53ZM277.941 374.912V392H280.437V383.648C280.437 381.888 280.853 380.416 281.717 379.168C282.581 377.92 283.925 377.28 285.781 377.28C286.005 377.28 286.325 377.312 286.741 377.344V374.688C286.613 374.656 286.325 374.656 285.909 374.656C283.733 374.656 281.589 375.84 280.405 378.304V374.912H277.941ZM310.882 392V381.44C310.882 377.344 308.514 374.592 304.418 374.592C301.826 374.592 299.874 375.744 298.53 378.048V374.912H296.066V392H298.562V382.272C298.562 380.736 299.042 379.456 300.002 378.432C300.962 377.376 302.178 376.864 303.65 376.864C306.722 376.864 308.386 378.88 308.386 382.048V392H310.882ZM320.853 382.144C319.061 382.144 317.493 382.56 316.117 383.36C314.773 384.16 314.101 385.376 314.101 387.072V387.264C314.101 388.704 314.613 389.92 315.669 390.88C316.725 391.808 318.133 392.288 319.829 392.288C322.261 392.288 324.181 391.2 325.589 388.992H325.621V392H328.053V380.96C328.053 379.904 327.893 378.976 327.541 378.144C326.517 375.808 324.437 374.624 321.301 374.624C317.909 374.624 315.573 376.096 314.293 379.04L316.341 380.192C317.397 377.952 319.029 376.832 321.237 376.832C324.149 376.832 325.589 378.208 325.589 380.992V382.144H320.853ZM325.589 384.8C325.589 386.368 325.077 387.616 324.085 388.608C323.093 389.6 321.813 390.08 320.277 390.08C318.133 390.08 316.597 388.96 316.597 387.072C316.693 384.832 318.869 384.16 320.821 384.192H325.589V384.8ZM346.584 392V382.176C346.584 380.672 347 379.424 347.864 378.432C348.728 377.408 349.88 376.896 351.32 376.896C354.296 376.896 355.736 378.976 355.736 382.048V392H358.232V381.44C358.232 377.344 355.928 374.624 351.928 374.624C349.4 374.624 347.384 375.744 345.912 378.016C344.856 375.744 343.032 374.592 340.44 374.592C338.008 374.592 336.376 375.68 334.936 377.888V374.912H332.472V392H334.968V382.272C334.968 380.8 335.384 379.52 336.248 378.464C337.112 377.408 338.264 376.864 339.704 376.864C342.648 376.864 344.12 379.008 344.12 381.984V392H346.584ZM377.764 384.224C377.796 384.064 377.796 383.776 377.796 383.392C377.796 380.8 377.092 378.72 375.684 377.088C374.276 375.456 372.292 374.624 369.732 374.624C367.396 374.624 365.412 375.488 363.812 377.248C362.212 379.008 361.412 381.056 361.412 383.424C361.412 385.888 362.244 388 363.908 389.728C365.572 391.424 367.62 392.288 370.084 392.288C373.156 392.288 375.876 390.688 377.316 387.872L375.46 386.656C374.468 388.704 372.452 390.08 370.052 390.08C368.388 390.08 366.98 389.536 365.828 388.416C364.676 387.296 364.036 385.888 363.94 384.224H377.764ZM363.972 382.112C364.196 380.64 364.836 379.392 365.924 378.368C367.012 377.312 368.292 376.8 369.732 376.8C372.932 376.8 374.916 378.912 375.268 382.112H363.972ZM403.851 392V381.44C403.851 377.344 401.483 374.592 397.387 374.592C394.859 374.592 392.907 375.712 391.531 377.984V365.952H389.035V392H391.531V382.272C391.531 380.736 392.011 379.456 392.971 378.432C393.931 377.376 395.147 376.864 396.619 376.864C399.691 376.864 401.355 378.88 401.355 382.048V392H403.851ZM423.358 384.224C423.39 384.064 423.39 383.776 423.39 383.392C423.39 380.8 422.686 378.72 421.278 377.088C419.87 375.456 417.886 374.624 415.326 374.624C412.99 374.624 411.006 375.488 409.406 377.248C407.806 379.008 407.006 381.056 407.006 383.424C407.006 385.888 407.838 388 409.502 389.728C411.166 391.424 413.214 392.288 415.678 392.288C418.75 392.288 421.47 390.688 422.91 387.872L421.054 386.656C420.062 388.704 418.046 390.08 415.646 390.08C413.982 390.08 412.574 389.536 411.422 388.416C410.27 387.296 409.63 385.888 409.534 384.224H423.358ZM409.566 382.112C409.79 380.64 410.43 379.392 411.518 378.368C412.606 377.312 413.885 376.8 415.326 376.8C418.526 376.8 420.51 378.912 420.862 382.112H409.566ZM426.691 374.912V392H429.187V383.648C429.187 381.888 429.603 380.416 430.467 379.168C431.331 377.92 432.675 377.28 434.531 377.28C434.755 377.28 435.075 377.312 435.491 377.344V374.688C435.363 374.656 435.075 374.656 434.659 374.656C432.483 374.656 430.339 375.84 429.155 378.304V374.912H426.691ZM452.358 384.224C452.39 384.064 452.39 383.776 452.39 383.392C452.39 380.8 451.686 378.72 450.278 377.088C448.87 375.456 446.886 374.624 444.326 374.624C441.99 374.624 440.006 375.488 438.406 377.248C436.806 379.008 436.006 381.056 436.006 383.424C436.006 385.888 436.838 388 438.502 389.728C440.166 391.424 442.214 392.288 444.678 392.288C447.75 392.288 450.47 390.688 451.91 387.872L450.054 386.656C449.062 388.704 447.046 390.08 444.646 390.08C442.982 390.08 441.574 389.536 440.422 388.416C439.27 387.296 438.63 385.888 438.534 384.224H452.358ZM438.566 382.112C438.79 380.64 439.43 379.392 440.518 378.368C441.606 377.312 442.885 376.8 444.326 376.8C447.526 376.8 449.51 378.912 449.862 382.112H438.566ZM457.355 387.68C456.075 387.68 455.051 388.704 455.051 389.984C455.051 391.264 456.075 392.288 457.355 392.288C458.603 392.288 459.627 391.264 459.627 389.984C459.627 388.704 458.603 387.68 457.355 387.68ZM465.293 387.68C464.013 387.68 462.989 388.704 462.989 389.984C462.989 391.264 464.013 392.288 465.293 392.288C466.541 392.288 467.565 391.264 467.565 389.984C467.565 388.704 466.541 387.68 465.293 387.68ZM473.23 387.68C471.95 387.68 470.926 388.704 470.926 389.984C470.926 391.264 471.95 392.288 473.23 392.288C474.478 392.288 475.502 391.264 475.502 389.984C475.502 388.704 474.478 387.68 473.23 387.68Z" fill="#E5EAF0"/>
<defs>
<filter id="filter0_d_806_453" x="98.6992" y="0.0600586" width="866.26" height="431.04" filterUnits="userSpaceOnUse" color-interpolation-filters="sRGB">
<feFlood flood-opacity="0" result="BackgroundImageFix"/>
<feColorMatrix in="SourceAlpha" type="matrix" values="0 0 0 0 0 0 0 0 0 0 0 0 0 0 0 0 0 0 127 0" result="hardAlpha"/>
<feOffset/>
<feGaussianBlur stdDeviation="10"/>
<feColorMatrix type="matrix" values="0 0 0 0 0.137255 0 0 0 0 0.192157 0 0 0 0 0.25098 0 0 0 0.04 0"/>
<feBlend mode="normal" in2="BackgroundImageFix" result="effect1_dropShadow_806_453"/>
<feBlend mode="normal" in="SourceGraphic" in2="effect1_dropShadow_806_453" result="shape"/>
</filter>
<filter id="filter1_d_806_453" x="57.2793" y="19.5601" width="949.1" height="497.9" filterUnits="userSpaceOnUse" color-interpolation-filters="sRGB">
<feFlood flood-opacity="0" result="BackgroundImageFix"/>
<feColorMatrix in="SourceAlpha" type="matrix" values="0 0 0 0 0 0 0 0 0 0 0 0 0 0 0 0 0 0 127 0" result="hardAlpha"/>
<feOffset dy="-3"/>
<feGaussianBlur stdDeviation="10.5"/>
<feColorMatrix type="matrix" values="0 0 0 0 0 0 0 0 0 0 0 0 0 0 0 0 0 0 0.04 0"/>
<feBlend mode="normal" in2="BackgroundImageFix" result="effect1_dropShadow_806_453"/>
<feBlend mode="normal" in="SourceGraphic" in2="effect1_dropShadow_806_453" result="shape"/>
</filter>
<filter id="filter2_d_806_453" x="26.8438" y="43.9399" width="1011.73" height="488.04" filterUnits="userSpaceOnUse" color-interpolation-filters="sRGB">
<feFlood flood-opacity="0" result="BackgroundImageFix"/>
<feColorMatrix in="SourceAlpha" type="matrix" values="0 0 0 0 0 0 0 0 0 0 0 0 0 0 0 0 0 0 127 0" result="hardAlpha"/>
<feOffset/>
<feGaussianBlur stdDeviation="12.5"/>
<feColorMatrix type="matrix" values="0 0 0 0 0 0 0 0 0 0 0 0 0 0 0 0 0 0 0.05 0"/>
<feBlend mode="normal" in2="BackgroundImageFix" result="effect1_dropShadow_806_453"/>
<feBlend mode="normal" in="SourceGraphic" in2="effect1_dropShadow_806_453" result="shape"/>
</filter>
<filter id="filter3_d_806_453" x="0" y="38" width="1064.6" height="650.06" filterUnits="userSpaceOnUse" color-interpolation-filters="sRGB">
<feFlood flood-opacity="0" result="BackgroundImageFix"/>
<feColorMatrix in="SourceAlpha" type="matrix" values="0 0 0 0 0 0 0 0 0 0 0 0 0 0 0 0 0 0 127 0" result="hardAlpha"/>
<feOffset dy="-10"/>
<feGaussianBlur stdDeviation="10"/>
<feColorMatrix type="matrix" values="0 0 0 0 0.09891 0 0 0 0 0.230472 0 0 0 0 0.367074 0 0 0 0.0595771 0"/>
<feBlend mode="normal" in2="BackgroundImageFix" result="effect1_dropShadow_806_453"/>
<feBlend mode="normal" in="SourceGraphic" in2="effect1_dropShadow_806_453" result="shape"/>
</filter>
</defs>
</svg>
