<svg width="367" height="167" viewBox="0 0 367 167" fill="none" xmlns="http://www.w3.org/2000/svg">
<g filter="url(#filter0_d_820_623)">
<rect x="50" y="20" width="267" height="67" rx="10" fill="white"/>
</g>
<path d="M216.216 49.112C217.462 49.112 218.526 48.79 219.38 48.132C220.248 47.474 220.85 46.676 221.172 45.738L220.136 45.248C219.506 46.97 218.204 48.02 216.258 48.02C215.012 48.02 213.99 47.586 213.178 46.732C212.366 45.878 211.96 44.786 211.96 43.484C211.96 42.182 212.38 41.118 213.206 40.278C214.046 39.438 215.054 39.018 216.244 39.018C217.294 39.018 218.134 39.284 218.764 39.816C219.408 40.334 219.856 40.992 220.122 41.762L221.158 41.286C220.864 40.362 220.29 39.578 219.436 38.92C218.582 38.262 217.532 37.926 216.272 37.926C214.746 37.926 213.444 38.458 212.366 39.522C211.288 40.572 210.756 41.916 210.756 43.554C210.756 45.178 211.274 46.508 212.324 47.558C213.374 48.594 214.676 49.112 216.216 49.112ZM229.431 49V44.38C229.431 42.588 228.395 41.384 226.603 41.384C225.497 41.384 224.643 41.874 224.041 42.868V37.604H222.949V49H224.041V44.744C224.041 44.072 224.251 43.512 224.671 43.064C225.091 42.602 225.623 42.378 226.267 42.378C227.611 42.378 228.339 43.26 228.339 44.646V49H229.431ZM235.099 49.126C236.191 49.126 237.115 48.748 237.857 48.006C238.599 47.264 238.977 46.34 238.977 45.234C238.977 44.156 238.599 43.26 237.857 42.518C237.115 41.776 236.205 41.398 235.127 41.398C234.021 41.398 233.097 41.776 232.355 42.518C231.613 43.26 231.249 44.184 231.249 45.29C231.249 46.354 231.613 47.264 232.355 48.006C233.097 48.748 234.021 49.126 235.099 49.126ZM235.127 48.16C234.329 48.16 233.657 47.88 233.139 47.306C232.62 46.732 232.369 46.032 232.369 45.234C232.369 44.436 232.62 43.75 233.139 43.19C233.657 42.63 234.301 42.35 235.099 42.35C235.897 42.35 236.555 42.644 237.073 43.218C237.591 43.792 237.857 44.492 237.857 45.29C237.857 46.088 237.591 46.76 237.073 47.32C236.555 47.88 235.911 48.16 235.127 48.16ZM244.204 49.126C245.296 49.126 246.22 48.748 246.962 48.006C247.704 47.264 248.082 46.34 248.082 45.234C248.082 44.156 247.704 43.26 246.962 42.518C246.22 41.776 245.31 41.398 244.232 41.398C243.126 41.398 242.202 41.776 241.46 42.518C240.718 43.26 240.354 44.184 240.354 45.29C240.354 46.354 240.718 47.264 241.46 48.006C242.202 48.748 243.126 49.126 244.204 49.126ZM244.232 48.16C243.434 48.16 242.762 47.88 242.244 47.306C241.726 46.732 241.474 46.032 241.474 45.234C241.474 44.436 241.726 43.75 242.244 43.19C242.762 42.63 243.406 42.35 244.204 42.35C245.002 42.35 245.66 42.644 246.178 43.218C246.696 43.792 246.962 44.492 246.962 45.29C246.962 46.088 246.696 46.76 246.178 47.32C245.66 47.88 245.016 48.16 244.232 48.16ZM254.961 46.872C254.961 46.41 254.779 45.99 254.429 45.64C254.023 45.22 253.365 44.912 252.469 44.716C251.083 44.422 250.719 44.156 250.719 43.54C250.719 43.218 250.873 42.952 251.167 42.714C251.461 42.476 251.825 42.364 252.231 42.364C253.001 42.364 253.589 42.784 253.981 43.624L254.877 43.134C254.373 41.972 253.491 41.398 252.231 41.398C251.559 41.398 250.957 41.608 250.425 42.028C249.893 42.448 249.627 42.98 249.627 43.624C249.627 44.058 249.767 44.422 250.033 44.744C250.439 45.206 250.957 45.444 251.979 45.668C253.337 45.99 253.855 46.312 253.855 46.942C253.855 47.684 253.113 48.16 252.259 48.16C251.377 48.16 250.705 47.67 250.243 46.704L249.347 47.194C249.921 48.482 250.901 49.126 252.273 49.126C253.043 49.126 253.687 48.916 254.191 48.496C254.709 48.062 254.961 47.53 254.961 46.872ZM263.518 45.598C263.532 45.528 263.532 45.402 263.532 45.234C263.532 44.1 263.224 43.19 262.608 42.476C261.992 41.762 261.124 41.398 260.004 41.398C258.982 41.398 258.114 41.776 257.414 42.546C256.714 43.316 256.364 44.212 256.364 45.248C256.364 46.326 256.728 47.25 257.456 48.006C258.184 48.748 259.08 49.126 260.158 49.126C261.502 49.126 262.692 48.426 263.322 47.194L262.51 46.662C262.076 47.558 261.194 48.16 260.144 48.16C259.416 48.16 258.8 47.922 258.296 47.432C257.792 46.942 257.512 46.326 257.47 45.598H263.518ZM257.484 44.674C257.582 44.03 257.862 43.484 258.338 43.036C258.814 42.574 259.374 42.35 260.004 42.35C261.404 42.35 262.272 43.274 262.426 44.674H257.484ZM271.46 48.496L269.528 52.682H270.704L275.828 41.524H274.652L272.062 47.306L269.318 41.524H268.058L271.46 48.496ZM280.352 49.126C281.444 49.126 282.368 48.748 283.11 48.006C283.852 47.264 284.23 46.34 284.23 45.234C284.23 44.156 283.852 43.26 283.11 42.518C282.368 41.776 281.458 41.398 280.38 41.398C279.274 41.398 278.35 41.776 277.608 42.518C276.866 43.26 276.502 44.184 276.502 45.29C276.502 46.354 276.866 47.264 277.608 48.006C278.35 48.748 279.274 49.126 280.352 49.126ZM280.38 48.16C279.582 48.16 278.91 47.88 278.392 47.306C277.874 46.732 277.622 46.032 277.622 45.234C277.622 44.436 277.874 43.75 278.392 43.19C278.91 42.63 279.554 42.35 280.352 42.35C281.15 42.35 281.808 42.644 282.326 43.218C282.844 43.792 283.11 44.492 283.11 45.29C283.11 46.088 282.844 46.76 282.326 47.32C281.808 47.88 281.164 48.16 280.38 48.16ZM286.07 41.524V46.144C286.07 47.936 287.106 49.14 288.898 49.14C290.032 49.14 290.886 48.636 291.46 47.628V49H292.524V41.524H291.446V45.794C291.446 46.466 291.236 47.026 290.816 47.474C290.396 47.922 289.864 48.146 289.22 48.146C287.876 48.146 287.148 47.264 287.148 45.878V41.524H286.07ZM295 41.524V49H296.092V45.346C296.092 44.576 296.274 43.932 296.652 43.386C297.03 42.84 297.618 42.56 298.43 42.56C298.528 42.56 298.668 42.574 298.85 42.588V41.426C298.794 41.412 298.668 41.412 298.486 41.412C297.534 41.412 296.596 41.93 296.078 43.008V41.524H295ZM212.422 64.2H218.4L219.59 67H220.808L216.076 56.038H214.774L210.042 67H211.218L212.422 64.2ZM212.856 63.15L215.404 57.228L217.952 63.15H212.856ZM228.569 67V62.38C228.569 60.588 227.533 59.384 225.741 59.384C224.607 59.384 223.753 59.888 223.165 60.896V59.524H222.087V67H223.179V62.744C223.179 62.072 223.389 61.512 223.809 61.064C224.229 60.602 224.761 60.378 225.405 60.378C226.749 60.378 227.477 61.26 227.477 62.646V67H228.569ZM235.889 64.872C235.889 64.41 235.707 63.99 235.357 63.64C234.951 63.22 234.293 62.912 233.397 62.716C232.011 62.422 231.647 62.156 231.647 61.54C231.647 61.218 231.801 60.952 232.095 60.714C232.389 60.476 232.753 60.364 233.159 60.364C233.929 60.364 234.517 60.784 234.909 61.624L235.805 61.134C235.301 59.972 234.419 59.398 233.159 59.398C232.487 59.398 231.885 59.608 231.353 60.028C230.821 60.448 230.555 60.98 230.555 61.624C230.555 62.058 230.695 62.422 230.961 62.744C231.367 63.206 231.885 63.444 232.907 63.668C234.265 63.99 234.783 64.312 234.783 64.942C234.783 65.684 234.041 66.16 233.187 66.16C232.305 66.16 231.633 65.67 231.171 64.704L230.275 65.194C230.849 66.482 231.829 67.126 233.201 67.126C233.971 67.126 234.615 66.916 235.119 66.496C235.637 66.062 235.889 65.53 235.889 64.872ZM239.243 67H240.447L242.435 60.924H242.449L244.423 67H245.641L248.161 59.524H247.027L245.053 65.74H245.039L242.995 59.524H241.903L239.873 65.726H239.859L237.899 59.524H236.737L239.243 67ZM256.203 63.598C256.217 63.528 256.217 63.402 256.217 63.234C256.217 62.1 255.909 61.19 255.293 60.476C254.677 59.762 253.809 59.398 252.689 59.398C251.667 59.398 250.799 59.776 250.099 60.546C249.399 61.316 249.049 62.212 249.049 63.248C249.049 64.326 249.413 65.25 250.141 66.006C250.869 66.748 251.765 67.126 252.843 67.126C254.187 67.126 255.377 66.426 256.007 65.194L255.195 64.662C254.761 65.558 253.879 66.16 252.829 66.16C252.101 66.16 251.485 65.922 250.981 65.432C250.477 64.942 250.197 64.326 250.155 63.598H256.203ZM250.169 62.674C250.267 62.03 250.547 61.484 251.023 61.036C251.499 60.574 252.059 60.35 252.689 60.35C254.089 60.35 254.957 61.274 255.111 62.674H250.169ZM258.099 59.524V67H259.191V63.346C259.191 62.576 259.373 61.932 259.751 61.386C260.129 60.84 260.717 60.56 261.529 60.56C261.627 60.56 261.767 60.574 261.949 60.588V59.426C261.893 59.412 261.767 59.412 261.585 59.412C260.633 59.412 259.695 59.93 259.177 61.008V59.524H258.099Z" fill="black" fill-opacity="0.7"/>
<rect x="69.5" y="37.5" width="32" height="32" rx="4.5" stroke="#C638B7" stroke-opacity="0.15"/>
<path d="M81 58H82.764L83.772 55.424H89.148L90.142 58H91.934L87.496 47.038H85.466L81 58ZM86.46 48.69L88.546 53.898H84.388L86.46 48.69Z" fill="#D87CA8"/>
<rect x="112.5" y="37.5" width="32" height="32" rx="4.5" stroke="#C638B7" stroke-opacity="0.15"/>
<path d="M124.4 59H128.726C131.26 59 132.618 57.782 132.618 55.934C132.618 55.402 132.464 54.884 132.142 54.394C131.82 53.904 131.288 53.526 130.532 53.288C131.33 52.938 131.848 52.182 132.002 51.678C132.072 51.412 132.114 51.16 132.114 50.922C132.114 50.026 131.792 49.326 131.148 48.808C130.504 48.29 129.65 48.038 128.586 48.038H124.4V59ZM126.108 49.592H128.362C129.762 49.592 130.392 50.194 130.392 51.104C130.392 52.014 129.678 52.672 128.264 52.672H126.108V49.592ZM126.108 54.184H128.642C130.154 54.184 130.896 54.842 130.896 55.794C130.896 56.788 130.14 57.446 128.754 57.446H126.108V54.184Z" fill="#D87CA8"/>
<rect x="155.5" y="37.5" width="32" height="32" rx="4.5" stroke="#C638B7" stroke-opacity="0.15"/>
<path d="M173.188 58.126C174.574 58.126 175.806 57.678 176.632 57.006C177.458 56.334 177.99 55.592 178.256 54.822L176.688 54.108C176.422 54.822 175.96 55.41 175.316 55.858C174.686 56.292 173.986 56.516 173.23 56.516C172.222 56.516 171.34 56.138 170.598 55.396C169.856 54.64 169.492 53.674 169.492 52.498C169.492 51.308 169.87 50.356 170.612 49.614C171.354 48.872 172.236 48.494 173.23 48.494C174.952 48.494 176.1 49.474 176.646 50.888L178.2 50.174C177.962 49.39 177.43 48.648 176.646 47.99C175.862 47.318 174.644 46.884 173.258 46.884C171.732 46.884 170.43 47.43 169.324 48.508C168.218 49.586 167.672 50.93 167.672 52.554C167.672 54.276 168.344 55.746 169.394 56.684C170.444 57.594 171.788 58.126 173.188 58.126Z" fill="#D87CA8"/>
<defs>
<filter id="filter0_d_820_623" x="0" y="0" width="367" height="167" filterUnits="userSpaceOnUse" color-interpolation-filters="sRGB">
<feFlood flood-opacity="0" result="BackgroundImageFix"/>
<feColorMatrix in="SourceAlpha" type="matrix" values="0 0 0 0 0 0 0 0 0 0 0 0 0 0 0 0 0 0 127 0" result="hardAlpha"/>
<feOffset dy="30"/>
<feGaussianBlur stdDeviation="25"/>
<feComposite in2="hardAlpha" operator="out"/>
<feColorMatrix type="matrix" values="0 0 0 0 0 0 0 0 0 0.237667 0 0 0 0 0.516667 0 0 0 0.06 0"/>
<feBlend mode="normal" in2="BackgroundImageFix" result="effect1_dropShadow_820_623"/>
<feBlend mode="normal" in="SourceGraphic" in2="effect1_dropShadow_820_623" result="shape"/>
</filter>
</defs>
</svg>
